  0
SECTION
  2
HEADER
  9
$ACADVER
  1
AC1015
  9
$ACADMAINTVER
 70
     6
  9
$DWGCODEPAGE
  3
ANSI_936
  9
$INSBASE
 10
0.0
 20
0.0
 30
0.0
  9
$EXTMIN
 10
1.133
 20
1.133
 30
0.0
  9
$EXTMAX
 10
304.683
 20
95.133
 30
0.0
  9
$LIMMIN
 10
0.0
 20
0.0
  9
$LIMMAX
 10
420.0
 20
297.0
  9
$ORTHOMODE
 70
     0
  9
$REGENMODE
 70
     1
  9
$FILLMODE
 70
     1
  9
$QTEXTMODE
 70
     0
  9
$MIRRTEXT
 70
     1
  9
$LTSCALE
 40
1.0
  9
$ATTMODE
 70
     1
  9
$TEXTSIZE
 40
3.5
  9
$TRACEWID
 40
1.0
  9
$TEXTSTYLE
  7
Standard
  9
$CLAYER
  8
0
  9
$CELTYPE
  6
ByLayer
  9
$CECOLOR
 62
   256
  9
$CELTSCALE
 40
1.0
  9
$DISPSILH
 70
     0
  9
$DIMSCALE
 40
1.0
  9
$DIMASZ
 40
3.556
  9
$DIMEXO
 40
1.0
  9
$DIMDLI
 40
3.75
  9
$DIMRND
 40
0.0
  9
$DIMDLE
 40
0.0
  9
$DIMEXE
 40
1.0
  9
$DIMTP
 40
0.0
  9
$DIMTM
 40
0.0
  9
$DIMTXT
 40
3.5
  9
$DIMCEN
 40
2.5
  9
$DIMTSZ
 40
0.0
  9
$DIMTOL
 70
     0
  9
$DIMLIM
 70
     0
  9
$DIMTIH
 70
     1
  9
$DIMTOH
 70
     1
  9
$DIMSE1
 70
     0
  9
$DIMSE2
 70
     0
  9
$DIMTAD
 70
     1
  9
$DIMZIN
 70
     1
  9
$DIMBLK
  1

  9
$DIMASO
 70
     1
  9
$DIMSHO
 70
     1
  9
$DIMPOST
  1

  9
$DIMAPOST
  1

  9
$DIMALT
 70
     0
  9
$DIMALTD
 70
     3
  9
$DIMALTF
 40
0.0393700787
  9
$DIMLFAC
 40
1.0
  9
$DIMTOFL
 70
     1
  9
$DIMTVP
 40
0.0
  9
$DIMTIX
 70
     0
  9
$DIMSOXD
 70
     0
  9
$DIMSAH
 70
     0
  9
$DIMBLK1
  1

  9
$DIMBLK2
  1

  9
$DIMSTYLE
  2
ISO-25
  9
$DIMCLRD
 70
     0
  9
$DIMCLRE
 70
     0
  9
$DIMCLRT
 70
     0
  9
$DIMTFAC
 40
1.0
  9
$DIMGAP
 40
1.524
  9
$DIMJUST
 70
     0
  9
$DIMSD1
 70
     0
  9
$DIMSD2
 70
     0
  9
$DIMTOLJ
 70
     0
  9
$DIMTZIN
 70
     1
  9
$DIMALTZ
 70
     0
  9
$DIMALTTZ
 70
     0
  9
$DIMUPT
 70
     0
  9
$DIMDEC
 70
     2
  9
$DIMTDEC
 70
     2
  9
$DIMALTU
 70
     2
  9
$DIMALTTD
 70
     3
  9
$DIMTXSTY
  7
Standard
  9
$DIMAUNIT
 70
     0
  9
$DIMADEC
 70
     2
  9
$DIMALTRND
 40
0.0
  9
$DIMAZIN
 70
     0
  9
$DIMDSEP
 70
    44
  9
$DIMATFIT
 70
     3
  9
$DIMFRAC
 70
     0
  9
$DIMLDRBLK
  1

  9
$DIMLUNIT
 70
     2
  9
$DIMLWD
 70
    -2
  9
$DIMLWE
 70
    -2
  9
$DIMTMOVE
 70
     0
  9
$LUNITS
 70
     2
  9
$LUPREC
 70
     2
  9
$SKETCHINC
 40
1.0
  9
$FILLETRAD
 40
10.0
  9
$AUNITS
 70
     0
  9
$AUPREC
 70
     2
  9
$MENU
  1
.
  9
$ELEVATION
 40
0.0
  9
$PELEVATION
 40
0.0
  9
$THICKNESS
 40
0.0
  9
$LIMCHECK
 70
     0
  9
$CHAMFERA
 40
0.0
  9
$CHAMFERB
 40
0.0
  9
$CHAMFERC
 40
0.0
  9
$CHAMFERD
 40
0.0
  9
$SKPOLY
 70
     0
  9
$TDCREATE
 40
2458598.391561574
  9
$TDUCREATE
 40
2458598.058228241
  9
$TDUPDATE
 40
2458598.391615035
  9
$TDUUPDATE
 40
2458598.058281702
  9
$TDINDWG
 40
0.0000000116
  9
$TDUSRTIMER
 40
0.0000000116
  9
$USRTIMER
 70
     1
  9
$ANGBASE
 50
0.0
  9
$ANGDIR
 70
     0
  9
$PDMODE
 70
     0
  9
$PDSIZE
 40
-1.0
  9
$PLINEWID
 40
0.0
  9
$SPLFRAME
 70
     0
  9
$SPLINETYPE
 70
     6
  9
$SPLINESEGS
 70
     8
  9
$HANDSEED
  5
59C
  9
$SURFTAB1
 70
     6
  9
$SURFTAB2
 70
     6
  9
$SURFTYPE
 70
     6
  9
$SURFU
 70
     6
  9
$SURFV
 70
     6
  9
$UCSBASE
  2

  9
$UCSNAME
  2

  9
$UCSORG
 10
0.0
 20
0.0
 30
0.0
  9
$UCSXDIR
 10
1.0
 20
0.0
 30
0.0
  9
$UCSYDIR
 10
0.0
 20
1.0
 30
0.0
  9
$UCSORTHOREF
  2

  9
$UCSORTHOVIEW
 70
     0
  9
$UCSORGTOP
 10
0.0
 20
0.0
 30
0.0
  9
$UCSORGBOTTOM
 10
0.0
 20
0.0
 30
0.0
  9
$UCSORGLEFT
 10
0.0
 20
0.0
 30
0.0
  9
$UCSORGRIGHT
 10
0.0
 20
0.0
 30
0.0
  9
$UCSORGFRONT
 10
0.0
 20
0.0
 30
0.0
  9
$UCSORGBACK
 10
0.0
 20
0.0
 30
0.0
  9
$PUCSBASE
  2

  9
$PUCSNAME
  2

  9
$PUCSORG
 10
0.0
 20
0.0
 30
0.0
  9
$PUCSXDIR
 10
1.0
 20
0.0
 30
0.0
  9
$PUCSYDIR
 10
0.0
 20
1.0
 30
0.0
  9
$PUCSORTHOREF
  2

  9
$PUCSORTHOVIEW
 70
     0
  9
$PUCSORGTOP
 10
0.0
 20
0.0
 30
0.0
  9
$PUCSORGBOTTOM
 10
0.0
 20
0.0
 30
0.0
  9
$PUCSORGLEFT
 10
0.0
 20
0.0
 30
0.0
  9
$PUCSORGRIGHT
 10
0.0
 20
0.0
 30
0.0
  9
$PUCSORGFRONT
 10
0.0
 20
0.0
 30
0.0
  9
$PUCSORGBACK
 10
0.0
 20
0.0
 30
0.0
  9
$USERI1
 70
     0
  9
$USERI2
 70
     0
  9
$USERI3
 70
     0
  9
$USERI4
 70
     0
  9
$USERI5
 70
     0
  9
$USERR1
 40
0.0
  9
$USERR2
 40
0.0
  9
$USERR3
 40
0.0
  9
$USERR4
 40
0.0
  9
$USERR5
 40
0.0
  9
$WORLDVIEW
 70
     1
  9
$SHADEDGE
 70
     3
  9
$SHADEDIF
 70
    70
  9
$TILEMODE
 70
     1
  9
$MAXACTVP
 70
    64
  9
$PINSBASE
 10
0.0
 20
0.0
 30
0.0
  9
$PLIMCHECK
 70
     0
  9
$PEXTMIN
 10
1.0000000000E+20
 20
1.0000000000E+20
 30
1.0000000000E+20
  9
$PEXTMAX
 10
-1.0000000000E+20
 20
-1.0000000000E+20
 30
-1.0000000000E+20
  9
$PLIMMIN
 10
0.0
 20
0.0
  9
$PLIMMAX
 10
420.0
 20
297.0
  9
$UNITMODE
 70
     0
  9
$VISRETAIN
 70
     1
  9
$PLINEGEN
 70
     0
  9
$PSLTSCALE
 70
     1
  9
$TREEDEPTH
 70
  3020
  9
$CMLSTYLE
  2
Standard
  9
$CMLJUST
 70
     0
  9
$CMLSCALE
 40
20.0
  9
$PROXYGRAPHICS
 70
     1
  9
$MEASUREMENT
 70
     1
  9
$CELWEIGHT
370
    -1
  9
$ENDCAPS
280
     0
  9
$JOINSTYLE
280
     0
  9
$LWDISPLAY
290
     1
  9
$INSUNITS
 70
     4
  9
$HYPERLINKBASE
  1

  9
$STYLESHEET
  1

  9
$XEDIT
290
     1
  9
$CEPSNTYPE
380
     0
  9
$PSTYLEMODE
290
     1
  9
$FINGERPRINTGUID
  2
{1E476CE9-0CF9-4C2B-998F-211AA8E42C28}
  9
$VERSIONGUID
  2
{FAEB1C32-E019-11D5-929B-00C0DF256EC4}
  9
$EXTNAMES
290
     1
  9
$PSVPSCALE
 40
0.0
  9
$OLESTARTUP
290
     0
  0
ENDSEC
  0
SECTION
  2
CLASSES
  0
CLASS
  1
ACDBDICTIONARYWDFLT
  2
AcDbDictionaryWithDefault
  3
ObjectDBX Classes
 90
        0
280
     0
281
     0
  0
CLASS
  1
VISUALSTYLE
  2
AcDbVisualStyle
  3
ObjectDBX Classes
 90
     4095
280
     0
281
     0
  0
CLASS
  1
MATERIAL
  2
AcDbMaterial
  3
ObjectDBX Classes
 90
     1153
280
     0
281
     0
  0
CLASS
  1
SCALE
  2
AcDbScale
  3
ObjectDBX Classes
 90
     1153
280
     0
281
     0
  0
CLASS
  1
TABLESTYLE
  2
AcDbTableStyle
  3
ObjectDBX Classes
 90
     4095
280
     0
281
     0
  0
CLASS
  1
MLEADERSTYLE
  2
AcDbMLeaderStyle
  3
ACDB_MLEADERSTYLE_CLASS
 90
     4095
280
     0
281
     0
  0
CLASS
  1
SUN
  2
AcDbSun
  3
SCENEOE
 90
     1153
280
     0
281
     0
  0
CLASS
  1
ACDBPLACEHOLDER
  2
AcDbPlaceHolder
  3
ObjectDBX Classes
 90
        0
280
     0
281
     0
  0
CLASS
  1
LAYOUT
  2
AcDbLayout
  3
ObjectDBX Classes
 90
        0
280
     0
281
     0
  0
ENDSEC
  0
SECTION
  2
TABLES
  0
TABLE
  2
VPORT
  5
8
330
0
100
AcDbSymbolTable
 70
     1
  0
VPORT
  5
29
330
8
100
AcDbSymbolTableRecord
100
AcDbViewportTableRecord
  2
*Active
 70
     0
 10
0.0
 20
0.0
 11
1.0
 21
1.0
 12
152.908
 22
48.133
 13
0.0
 23
0.0
 14
10.0
 24
10.0
 15
10.0
 25
10.0
 16
0.0
 26
0.0
 36
1.0
 17
0.0
 27
0.0
 37
0.0
 40
95.88
 41
3.2292553191
 42
50.0
 43
0.0
 44
0.0
 50
0.0
 51
0.0
 71
     0
 72
   100
 73
     1
 74
     3
 75
     0
 76
     0
 77
     0
 78
     0
281
     0
 65
     1
110
0.0
120
0.0
130
0.0
111
1.0
121
0.0
131
0.0
112
0.0
122
1.0
132
0.0
 79
     0
146
0.0
  0
ENDTAB
  0
TABLE
  2
LTYPE
  5
5
330
0
100
AcDbSymbolTable
 70
     6
  0
LTYPE
  5
14
330
5
100
AcDbSymbolTableRecord
100
AcDbLinetypeTableRecord
  2
ByBlock
 70
     0
  3

 72
    65
 73
     0
 40
0.0
  0
LTYPE
  5
15
330
5
100
AcDbSymbolTableRecord
100
AcDbLinetypeTableRecord
  2
ByLayer
 70
     0
  3

 72
    65
 73
     0
 40
0.0
  0
LTYPE
  5
16
330
5
100
AcDbSymbolTableRecord
100
AcDbLinetypeTableRecord
  2
Continuous
 70
     0
  3
Solid line
 72
    65
 73
     0
 40
0.0
  0
LTYPE
  5
6E
330
5
100
AcDbSymbolTableRecord
100
AcDbLinetypeTableRecord
  2
HIDDEN
 70
     0
  3
Hidden __ __ __ __ __ __ __ __ __ __ __ __ __ __
 72
    65
 73
     2
 40
1.905
 49
1.27
 74
     0
 49
-0.635
 74
     0
  0
LTYPE
  5
6F
330
5
100
AcDbSymbolTableRecord
100
AcDbLinetypeTableRecord
  2
PHANTOM
 70
     0
  3
Phantom ______  __  __  ______  __  __  ______
 72
    65
 73
     6
 40
12.7
 49
6.35
 74
     0
 49
-1.27
 74
     0
 49
1.27
 74
     0
 49
-1.27
 74
     0
 49
1.27
 74
     0
 49
-1.27
 74
     0
  0
LTYPE
  5
70
330
5
100
AcDbSymbolTableRecord
100
AcDbLinetypeTableRecord
  2
CENTER
 70
     0
  3
Center ____ _ ____ _ ____ _ ____ _ ____ _ ____
 72
    65
 73
     4
 40
10.16
 49
6.35
 74
     0
 49
-1.27
 74
     0
 49
1.27
 74
     0
 49
-1.27
 74
     0
  0
LTYPE
  5
71
330
5
100
AcDbSymbolTableRecord
100
AcDbLinetypeTableRecord
  2
CENTERX2
 70
     0
  3
Center (2x) ________  __  ________  __  _____
 72
    65
 73
     4
 40
20.32
 49
12.7
 74
     0
 49
-2.54
 74
     0
 49
2.54
 74
     0
 49
-2.54
 74
     0
  0
LTYPE
  5
72
330
5
100
AcDbSymbolTableRecord
100
AcDbLinetypeTableRecord
  2
DOT2
 70
     0
  3
Dot (.5x) ........................................
 72
    65
 73
     2
 40
0.635
 49
0.0
 74
     0
 49
-0.635
 74
     0
  0
ENDTAB
  0
TABLE
  2
LAYER
  5
2
330
0
100
AcDbSymbolTable
 70
     1
  0
LAYER
  5
10
330
2
100
AcDbSymbolTableRecord
100
AcDbLayerTableRecord
  2
0
 70
     0
 62
     7
  6
Continuous
370
    -3
390
F
  0
ENDTAB
  0
TABLE
  2
STYLE
  5
3
330
0
100
AcDbSymbolTable
 70
     1
  0
STYLE
  5
11
330
3
100
AcDbSymbolTableRecord
100
AcDbTextStyleTableRecord
  2
Standard
 70
     0
 40
0.0
 41
1.0
 50
0.0
 71
     0
 42
3.5
  3
txt
  4

  0
ENDTAB
  0
TABLE
  2
VIEW
  5
6
330
0
100
AcDbSymbolTable
 70
     0
  0
ENDTAB
  0
TABLE
  2
UCS
  5
7
330
0
100
AcDbSymbolTable
 70
     0
  0
ENDTAB
  0
TABLE
  2
APPID
  5
9
330
0
100
AcDbSymbolTable
 70
     1
  0
APPID
  5
12
330
9
100
AcDbSymbolTableRecord
100
AcDbRegAppTableRecord
  2
ACAD
 70
     0
  0
ENDTAB
  0
TABLE
  2
DIMSTYLE
  5
A
330
0
100
AcDbSymbolTable
 70
     1
100
AcDbDimStyleTable
  0
DIMSTYLE
105
27
330
A
100
AcDbSymbolTableRecord
100
AcDbDimStyleTableRecord
  2
ISO-25
 70
     0
 41
2.5
 42
0.625
 43
3.75
 44
1.25
 73
     0
 74
     0
 77
     1
 78
     8
140
2.5
141
2.5
143
0.0393700787
147
0.625
171
     3
172
     1
178
     0
271
     2
272
     2
274
     3
278
    44
283
     0
284
     8
340
11
  0
ENDTAB
  0
TABLE
  2
BLOCK_RECORD
  5
1
330
0
100
AcDbSymbolTable
 70
     1
  0
BLOCK_RECORD
  5
1F
330
1
100
AcDbSymbolTableRecord
100
AcDbBlockTableRecord
  2
*Model_Space
340
22
  0
BLOCK_RECORD
  5
1B
330
1
100
AcDbSymbolTableRecord
100
AcDbBlockTableRecord
  2
*Paper_Space
340
1E
  0
BLOCK_RECORD
  5
23
330
1
100
AcDbSymbolTableRecord
100
AcDbBlockTableRecord
  2
*Paper_Space0
340
26
  0
ENDTAB
  0
ENDSEC
  0
SECTION
  2
BLOCKS
  0
BLOCK
  5
20
330
1F
100
AcDbEntity
  8
0
100
AcDbBlockBegin
  2
*Model_Space
 70
     0
 10
0.0
 20
0.0
 30
0.0
  3
*Model_Space
  1

  0
ENDBLK
  5
21
330
1F
100
AcDbEntity
  8
0
100
AcDbBlockEnd
  0
BLOCK
  5
1C
330
1B
100
AcDbEntity
 67
     1
  8
0
100
AcDbBlockBegin
  2
*Paper_Space
 70
     0
 10
0.0
 20
0.0
 30
0.0
  3
*Paper_Space
  1

  0
ENDBLK
  5
1D
330
1B
100
AcDbEntity
 67
     1
  8
0
100
AcDbBlockEnd
  0
BLOCK
  5
24
330
23
100
AcDbEntity
  8
0
100
AcDbBlockBegin
  2
*Paper_Space0
 70
     0
 10
0.0
 20
0.0
 30
0.0
  3
*Paper_Space0
  1

  0
ENDBLK
  5
25
330
23
100
AcDbEntity
  8
0
100
AcDbBlockEnd
  0
ENDSEC
  0
SECTION
  2
ENTITIES
  0
SPLINE
  5
77
330
1F
100
AcDbEntity
  8
0
  6
Continuous
 62
     7
370
    25
100
AcDbSpline
210
0.0
220
0.0
230
1.0
 70
     8
 71
     3
 72
     8
 73
     4
 74
     0
 42
0.000000001
 43
0.00000001
 40
0.0
 40
0.0
 40
0.0
 40
0.0
 40
1.0
 40
1.0
 40
1.0
 40
1.0
 10
17.68020000000001
 20
93.22153841731999
 30
0.0
 10
17.68020000000001
 20
93.22153841731999
 30
0.0
 10
17.69480971319534
 20
93.2206
 30
0.0
 10
17.71020000000001
 20
93.2206
 30
0.0
  0
SPLINE
  5
7E
330
1F
100
AcDbEntity
  8
0
  6
Continuous
 62
     7
370
    25
100
AcDbSpline
210
0.0
220
0.0
230
1.0
 70
     8
 71
     3
 72
     8
 73
     4
 74
     0
 42
0.000000001
 43
0.00000001
 40
0.0
 40
0.0
 40
0.0
 40
0.0
 40
1.0
 40
1.0
 40
1.0
 40
1.0
 10
17.68020000000001
 20
94.17966158268
 30
0.0
 10
17.68020000000001
 20
94.17966158268
 30
0.0
 10
17.69480969664733
 20
94.18059999845998
 30
0.0
 10
17.71020000000001
 20
94.18059999999998
 30
0.0
  0
SPLINE
  5
85
330
1F
100
AcDbEntity
  8
0
  6
Continuous
 62
     7
370
    25
100
AcDbSpline
210
0.0
220
0.0
230
1.0
 70
     8
 71
     3
 72
     8
 73
     4
 74
     0
 42
0.000000001
 43
0.00000001
 40
0.0
 40
0.0
 40
0.0
 40
0.0
 40
1.0
 40
1.0
 40
1.0
 40
1.0
 10
21.08019999999999
 20
93.22153841731999
 30
0.0
 10
21.08019999999999
 20
93.22153841731999
 30
0.0
 10
21.06559030335267
 20
93.22060000154
 30
0.0
 10
21.05019999999999
 20
93.2206
 30
0.0
  0
SPLINE
  5
8D
330
1F
100
AcDbEntity
  8
0
  6
Continuous
 62
     7
370
    25
100
AcDbSpline
210
0.0
220
0.0
230
1.0
 70
     8
 71
     3
 72
     8
 73
     4
 74
     0
 42
0.000000001
 43
0.00000001
 40
0.0
 40
0.0
 40
0.0
 40
0.0
 40
1.0
 40
1.0
 40
1.0
 40
1.0
 10
21.08019999999999
 20
94.17966158268
 30
0.0
 10
21.08019999999999
 20
94.17966158268
 30
0.0
 10
21.06559028680466
 20
94.18059999999998
 30
0.0
 10
21.05019999999999
 20
94.18059999999998
 30
0.0
  0
CIRCLE
  5
9B
330
1F
100
AcDbEntity
  8
0
  6
Continuous
 62
     7
370
    25
100
AcDbCircle
 10
295.783
 20
67.183
 30
0.0
 40
2.049780000000055
  0
CIRCLE
  5
9C
330
1F
100
AcDbEntity
  8
0
  6
Continuous
 62
     7
370
    25
100
AcDbCircle
 10
294.513
 20
81.153
 30
0.0
 40
0.5
  0
CIRCLE
  5
9D
330
1F
100
AcDbEntity
  8
0
  6
Continuous
 62
     7
370
    25
100
AcDbCircle
 10
298.16425
 20
77.978
 30
0.0
 40
2.0
  0
CIRCLE
  5
9E
330
1F
100
AcDbEntity
  8
0
  6
Continuous
 62
     7
370
    25
100
AcDbCircle
 10
300.863
 20
86.233
 30
0.0
 40
0.8496299999999906
  0
CIRCLE
  5
9F
330
1F
100
AcDbEntity
  8
0
  6
Continuous
 62
     7
370
    25
100
AcDbCircle
 10
300.863
 20
10.033
 30
0.0
 40
0.8496299999999906
  0
CIRCLE
  5
A0
330
1F
100
AcDbEntity
  8
0
  6
Continuous
 62
     7
370
    25
100
AcDbCircle
 10
300.863
 20
29.083
 30
0.0
 40
0.8496299999999906
  0
CIRCLE
  5
A1
330
1F
100
AcDbEntity
  8
0
  6
Continuous
 62
     7
370
    25
100
AcDbCircle
 10
300.863
 20
48.133
 30
0.0
 40
0.8496299999999906
  0
CIRCLE
  5
A2
330
1F
100
AcDbEntity
  8
0
  6
Continuous
 62
     7
370
    25
100
AcDbCircle
 10
300.863
 20
67.183
 30
0.0
 40
0.8496299999999906
  0
CIRCLE
  5
AB
330
1F
100
AcDbEntity
  8
0
  6
Continuous
 62
     7
370
    25
100
AcDbCircle
 10
21.9908
 20
90.748
 30
0.0
 40
0.324999999999978
  0
CIRCLE
  5
AC
330
1F
100
AcDbEntity
  8
0
  6
Continuous
 62
     7
370
    25
100
AcDbCircle
 10
17.52854
 20
87.11692
 30
0.0
 40
0.3000000000000114
  0
CIRCLE
  5
AD
330
1F
100
AcDbEntity
  8
0
  6
Continuous
 62
     7
370
    25
100
AcDbCircle
 10
6.223
 20
88.773
 30
0.0
 40
0.7250000000000139
  0
CIRCLE
  5
AE
330
1F
100
AcDbEntity
  8
0
  6
Continuous
 62
     7
370
    25
100
AcDbCircle
 10
4.953
 20
86.233
 30
0.0
 40
0.8496300000000048
  0
CIRCLE
  5
AF
330
1F
100
AcDbEntity
  8
0
  6
Continuous
 62
     7
370
    25
100
AcDbCircle
 10
12.573
 20
91.313
 30
0.0
 40
0.724999999999989
  0
CIRCLE
  5
B4
330
1F
100
AcDbEntity
  8
0
  6
Continuous
 62
     7
370
    25
100
AcDbCircle
 10
16.2108
 20
90.748
 30
0.0
 40
0.324999999999978
  0
CIRCLE
  5
B5
330
1F
100
AcDbEntity
  8
0
  6
Continuous
 62
     7
370
    25
100
AcDbCircle
 10
11.14425
 20
4.953
 30
0.0
 40
0.4999999999999947
  0
CIRCLE
  5
B9
330
1F
100
AcDbEntity
  8
0
  6
Continuous
 62
     7
370
    25
100
AcDbCircle
 10
16.0655
 20
4.953
 30
0.0
 40
0.5000000000000036
  0
CIRCLE
  5
BA
330
1F
100
AcDbEntity
  8
0
  6
Continuous
 62
     7
370
    25
100
AcDbCircle
 10
22.733
 20
75.6666
 30
0.0
 40
0.4000000000000199
  0
CIRCLE
  5
BB
330
1F
100
AcDbEntity
  8
0
  6
Continuous
 62
     7
370
    25
100
AcDbCircle
 10
14.7955
 20
67.183
 30
0.0
 40
2.049779999999997
  0
CIRCLE
  5
BC
330
1F
100
AcDbEntity
  8
0
  6
Continuous
 62
     7
370
    25
100
AcDbCircle
 10
10.9855
 20
69.723
 30
0.0
 40
0.7250000000000156
  0
CIRCLE
  5
BD
330
1F
100
AcDbEntity
  8
0
  6
Continuous
 62
     7
370
    25
100
AcDbCircle
 10
5.08
 20
69.247
 30
0.0
 40
0.4000000000000075
  0
CIRCLE
  5
BE
330
1F
100
AcDbEntity
  8
0
  6
Continuous
 62
     7
370
    25
100
AcDbCircle
 10
5.08
 20
67.247
 30
0.0
 40
0.4000000000000075
  0
CIRCLE
  5
BF
330
1F
100
AcDbEntity
  8
0
  6
Continuous
 62
     7
370
    25
100
AcDbCircle
 10
5.08
 20
71.247
 30
0.0
 40
0.4000000000000075
  0
CIRCLE
  5
C0
330
1F
100
AcDbEntity
  8
0
  6
Continuous
 62
     7
370
    25
100
AcDbCircle
 10
3.44932
 20
75.80884
 30
0.0
 40
0.4999999999999902
  0
CIRCLE
  5
C1
330
1F
100
AcDbEntity
  8
0
  6
Continuous
 62
     7
370
    25
100
AcDbCircle
 10
3.44932
 20
78.34884
 30
0.0
 40
0.5000000000000102
  0
CIRCLE
  5
C2
330
1F
100
AcDbEntity
  8
0
  6
Continuous
 62
     7
370
    25
100
AcDbCircle
 10
19.8755
 20
67.183
 30
0.0
 40
0.8496300000000119
  0
CIRCLE
  5
C3
330
1F
100
AcDbEntity
  8
0
  6
Continuous
 62
     7
370
    25
100
AcDbCircle
 10
31.14675
 20
10.033
 30
0.0
 40
0.8496299999999941
  0
CIRCLE
  5
C8
330
1F
100
AcDbEntity
  8
0
  6
Continuous
 62
     7
370
    25
100
AcDbCircle
 10
28.7655
 20
29.083
 30
0.0
 40
0.8496300000000012
  0
CIRCLE
  5
C9
330
1F
100
AcDbEntity
  8
0
  6
Continuous
 62
     7
370
    25
100
AcDbCircle
 10
27.01925
 20
29.083
 30
0.0
 40
0.8496299999999941
  0
CIRCLE
  5
D2
330
1F
100
AcDbEntity
  8
0
  6
Continuous
 62
     7
370
    25
100
AcDbCircle
 10
30.3794
 20
93.8403
 30
0.0
 40
0.3999999999999986
  0
CIRCLE
  5
D3
330
1F
100
AcDbEntity
  8
0
  6
Continuous
 62
     7
370
    25
100
AcDbCircle
 10
29.083
 20
86.233
 30
0.0
 40
2.049779999999974
  0
CIRCLE
  5
D4
330
1F
100
AcDbEntity
  8
0
  6
Continuous
 62
     7
370
    25
100
AcDbCircle
 10
28.956
 20
68.8594
 30
0.0
 40
0.1500000000000057
  0
CIRCLE
  5
D5
330
1F
100
AcDbEntity
  8
0
  6
Continuous
 62
     7
370
    25
100
AcDbCircle
 10
30.353
 20
81.153
 30
0.0
 40
0.5000000000000071
  0
CIRCLE
  5
D6
330
1F
100
AcDbEntity
  8
0
  6
Continuous
 62
     7
370
    25
100
AcDbCircle
 10
27.813
 20
81.153
 30
0.0
 40
0.5000000000000142
  0
CIRCLE
  5
D7
330
1F
100
AcDbEntity
  8
0
  6
Continuous
 62
     7
370
    25
100
AcDbCircle
 10
28.6395
 20
46.89475
 30
0.0
 40
0.3500000000000014
  0
CIRCLE
  5
D8
330
1F
100
AcDbEntity
  8
0
  6
Continuous
 62
     7
370
    25
100
AcDbCircle
 10
30.0355
 20
31.623
 30
0.0
 40
0.7249999999999943
  0
CIRCLE
  5
D9
330
1F
100
AcDbEntity
  8
0
  6
Continuous
 62
     7
370
    25
100
AcDbCircle
 10
25.563
 20
67.1555
 30
0.0
 40
1.249999999999986
  0
CIRCLE
  5
DE
330
1F
100
AcDbEntity
  8
0
  6
Continuous
 62
     7
370
    25
100
AcDbCircle
 10
294.513
 20
4.953
 30
0.0
 40
0.5
  0
CIRCLE
  5
DF
330
1F
100
AcDbEntity
  8
0
  6
Continuous
 62
     7
370
    25
100
AcDbCircle
 10
297.053
 20
4.953
 30
0.0
 40
0.5
  0
CIRCLE
  5
E0
330
1F
100
AcDbEntity
  8
0
  6
Continuous
 62
     7
370
    25
100
AcDbCircle
 10
295.783
 20
10.033
 30
0.0
 40
2.049780000000055
  0
CIRCLE
  5
E1
330
1F
100
AcDbEntity
  8
0
  6
Continuous
 62
     7
370
    25
100
AcDbCircle
 10
298.323
 20
53.213
 30
0.0
 40
0.7249999999999659
  0
CIRCLE
  5
E2
330
1F
100
AcDbEntity
  8
0
  6
Continuous
 62
     7
370
    25
100
AcDbCircle
 10
295.783
 20
48.133
 30
0.0
 40
2.049780000000055
  0
CIRCLE
  5
E3
330
1F
100
AcDbEntity
  8
0
  6
Continuous
 62
     7
370
    25
100
AcDbCircle
 10
298.323
 20
34.163
 30
0.0
 40
0.7249999999999659
  0
CIRCLE
  5
E4
330
1F
100
AcDbEntity
  8
0
  6
Continuous
 62
     7
370
    25
100
AcDbCircle
 10
295.783
 20
29.083
 30
0.0
 40
2.049780000000055
  0
CIRCLE
  5
E5
330
1F
100
AcDbEntity
  8
0
  6
Continuous
 62
     7
370
    25
100
AcDbCircle
 10
297.053
 20
43.053
 30
0.0
 40
0.5
  0
CIRCLE
  5
E6
330
1F
100
AcDbEntity
  8
0
  6
Continuous
 62
     7
370
    25
100
AcDbCircle
 10
294.513
 20
43.053
 30
0.0
 40
0.5
  0
CIRCLE
  5
E7
330
1F
100
AcDbEntity
  8
0
  6
Continuous
 62
     7
370
    25
100
AcDbCircle
 10
297.053
 20
24.003
 30
0.0
 40
0.5
  0
CIRCLE
  5
E8
330
1F
100
AcDbEntity
  8
0
  6
Continuous
 62
     7
370
    25
100
AcDbCircle
 10
294.513
 20
24.003
 30
0.0
 40
0.5
  0
CIRCLE
  5
E9
330
1F
100
AcDbEntity
  8
0
  6
Continuous
 62
     7
370
    25
100
AcDbCircle
 10
298.323
 20
15.113
 30
0.0
 40
0.7250000000000227
  0
CIRCLE
  5
EA
330
1F
100
AcDbEntity
  8
0
  6
Continuous
 62
     7
370
    25
100
AcDbCircle
 10
298.323
 20
72.263
 30
0.0
 40
0.7250000000000227
  0
CIRCLE
  5
EB
330
1F
100
AcDbEntity
  8
0
  6
Continuous
 62
     7
370
    25
100
AcDbCircle
 10
297.053
 20
62.103
 30
0.0
 40
0.5
  0
CIRCLE
  5
EC
330
1F
100
AcDbEntity
  8
0
  6
Continuous
 62
     7
370
    25
100
AcDbCircle
 10
294.513
 20
62.103
 30
0.0
 40
0.5
  0
CIRCLE
  5
F1
330
1F
100
AcDbEntity
  8
0
  6
Continuous
 62
     7
370
    25
100
AcDbCircle
 10
297.053
 20
81.153
 30
0.0
 40
0.5
  0
CIRCLE
  5
F2
330
1F
100
AcDbEntity
  8
0
  6
Continuous
 62
     7
370
    25
100
AcDbCircle
 10
295.783
 20
86.233
 30
0.0
 40
2.049780000000055
  0
CIRCLE
  5
F3
330
1F
100
AcDbEntity
  8
0
  6
Continuous
 62
     7
370
    25
100
AcDbCircle
 10
31.623
 20
91.313
 30
0.0
 40
0.7249999999999837
  0
CIRCLE
  5
F8
330
1F
100
AcDbEntity
  8
0
  6
Continuous
 62
     7
370
    25
100
AcDbCircle
 10
33.528
 20
67.183
 30
0.0
 40
0.8496299999999692
  0
CIRCLE
  5
F9
330
1F
100
AcDbEntity
  8
0
  6
Continuous
 62
     7
370
    25
100
AcDbCircle
 10
34.163
 20
86.233
 30
0.0
 40
0.8496299999999977
  0
CIRCLE
  5
FA
330
1F
100
AcDbEntity
  8
0
  6
Continuous
 62
     7
370
    25
100
AcDbCircle
 10
38.608
 20
92.837
 30
0.0
 40
0.3999999999999915
  0
CIRCLE
  5
FB
330
1F
100
AcDbEntity
  8
0
  6
Continuous
 62
     7
370
    25
100
AcDbCircle
 10
36.608
 20
92.837
 30
0.0
 40
0.3999999999999915
  0
CIRCLE
  5
FC
330
1F
100
AcDbEntity
  8
0
  6
Continuous
 62
     7
370
    25
100
AcDbCircle
 10
38.608
 20
67.183
 30
0.0
 40
2.049780000000005
  0
CIRCLE
  5
FD
330
1F
100
AcDbEntity
  8
0
  6
Continuous
 62
     7
370
    25
100
AcDbCircle
 10
40.608
 20
92.837
 30
0.0
 40
0.3999999999999915
  0
CIRCLE
  5
FE
330
1F
100
AcDbEntity
  8
0
  6
Continuous
 62
     7
370
    25
100
AcDbCircle
 10
41.148
 20
72.263
 30
0.0
 40
0.724999999999973
  0
CIRCLE
  5
FF
330
1F
100
AcDbEntity
  8
0
  6
Continuous
 62
     7
370
    25
100
AcDbCircle
 10
287.528
 20
81.153
 30
0.0
 40
0.5
  0
CIRCLE
  5
100
330
1F
100
AcDbEntity
  8
0
  6
Continuous
 62
     7
370
    25
100
AcDbCircle
 10
291.973
 20
69.723
 30
0.0
 40
0.7250000000000796
  0
CIRCLE
  5
101
330
1F
100
AcDbEntity
  8
0
  6
Continuous
 62
     7
370
    25
100
AcDbCircle
 10
286.258
 20
86.233
 30
0.0
 40
2.049780000000112
  0
CIRCLE
  5
102
330
1F
100
AcDbEntity
  8
0
  6
Continuous
 62
     7
370
    25
100
AcDbCircle
 10
288.798
 20
91.313
 30
0.0
 40
0.7249999999999659
  0
CIRCLE
  5
103
330
1F
100
AcDbEntity
  8
0
  6
Continuous
 62
     7
370
    25
100
AcDbCircle
 10
291.973
 20
88.773
 30
0.0
 40
0.7250000000000796
  0
CIRCLE
  5
107
330
1F
100
AcDbEntity
  8
0
  6
Continuous
 62
     7
370
    25
100
AcDbCircle
 10
53.848
 20
69.723
 30
0.0
 40
0.7250000000000156
  0
CIRCLE
  5
108
330
1F
100
AcDbEntity
  8
0
  6
Continuous
 62
     7
370
    25
100
AcDbCircle
 10
206.248
 20
69.723
 30
0.0
 40
0.7250000000000227
  0
CIRCLE
  5
109
330
1F
100
AcDbEntity
  8
0
  6
Continuous
 62
     7
370
    25
100
AcDbCircle
 10
241.01425
 20
77.978
 30
0.0
 40
2.0
  0
CIRCLE
  5
10A
330
1F
100
AcDbEntity
  8
0
  6
Continuous
 62
     7
370
    25
100
AcDbCircle
 10
243.078
 20
67.183
 30
0.0
 40
0.849630000000019
  0
CIRCLE
  5
10B
330
1F
100
AcDbEntity
  8
0
  6
Continuous
 62
     7
370
    25
100
AcDbCircle
 10
250.698
 20
72.263
 30
0.0
 40
0.7250000000000512
  0
CIRCLE
  5
10C
330
1F
100
AcDbEntity
  8
0
  6
Continuous
 62
     7
370
    25
100
AcDbCircle
 10
248.158
 20
67.183
 30
0.0
 40
2.049779999999998
  0
CIRCLE
  5
10D
330
1F
100
AcDbEntity
  8
0
  6
Continuous
 62
     7
370
    25
100
AcDbCircle
 10
236.4105
 20
72.263
 30
0.0
 40
0.7249999999999659
  0
CIRCLE
  5
10E
330
1F
100
AcDbEntity
  8
0
  6
Continuous
 62
     7
370
    25
100
AcDbCircle
 10
231.648
 20
72.263
 30
0.0
 40
0.7249999999999943
  0
CIRCLE
  5
112
330
1F
100
AcDbEntity
  8
0
  6
Continuous
 62
     7
370
    25
100
AcDbCircle
 10
274.5105
 20
72.263
 30
0.0
 40
0.7250000000000796
  0
CIRCLE
  5
117
330
1F
100
AcDbEntity
  8
0
  6
Continuous
 62
     7
370
    25
100
AcDbCircle
 10
279.11425
 20
77.978
 30
0.0
 40
2.0
  0
CIRCLE
  5
118
330
1F
100
AcDbEntity
  8
0
  6
Continuous
 62
     7
370
    25
100
AcDbCircle
 10
152.908
 20
67.183
 30
0.0
 40
2.049779999999998
  0
CIRCLE
  5
119
330
1F
100
AcDbEntity
  8
0
  6
Continuous
 62
     7
370
    25
100
AcDbCircle
 10
149.098
 20
69.723
 30
0.0
 40
0.7249999999999943
  0
CIRCLE
  5
11A
330
1F
100
AcDbEntity
  8
0
  6
Continuous
 62
     7
370
    25
100
AcDbCircle
 10
72.898
 20
69.723
 30
0.0
 40
0.7250000000000085
  0
CIRCLE
  5
11B
330
1F
100
AcDbEntity
  8
0
  6
Continuous
 62
     7
370
    25
100
AcDbCircle
 10
133.858
 20
67.183
 30
0.0
 40
2.049780000000027
  0
CIRCLE
  5
11C
330
1F
100
AcDbEntity
  8
0
  6
Continuous
 62
     7
370
    25
100
AcDbCircle
 10
100.838
 20
67.183
 30
0.0
 40
0.8496300000000332
  0
CIRCLE
  5
11D
330
1F
100
AcDbEntity
  8
0
  6
Continuous
 62
     7
370
    25
100
AcDbCircle
 10
95.758
 20
67.183
 30
0.0
 40
2.049779999999998
  0
CIRCLE
  5
11E
330
1F
100
AcDbEntity
  8
0
  6
Continuous
 62
     7
370
    25
100
AcDbCircle
 10
140.1318
 20
73.2978
 30
0.0
 40
0.3499999999999659
  0
CIRCLE
  5
11F
330
1F
100
AcDbEntity
  8
0
  6
Continuous
 62
     7
370
    25
100
AcDbCircle
 10
98.298
 20
72.263
 30
0.0
 40
0.7249999999999943
  0
CIRCLE
  5
120
330
1F
100
AcDbEntity
  8
0
  6
Continuous
 62
     7
370
    25
100
AcDbCircle
 10
79.248
 20
72.263
 30
0.0
 40
0.7249999999999801
  0
CIRCLE
  5
121
330
1F
100
AcDbEntity
  8
0
  6
Continuous
 62
     7
370
    25
100
AcDbCircle
 10
63.9572
 20
71.2978
 30
0.0
 40
0.349999999999973
  0
CIRCLE
  5
122
330
1F
100
AcDbEntity
  8
0
  6
Continuous
 62
     7
370
    25
100
AcDbCircle
 10
267.208
 20
86.233
 30
0.0
 40
2.049779999999998
  0
CIRCLE
  5
127
330
1F
100
AcDbEntity
  8
0
  6
Continuous
 62
     7
370
    25
100
AcDbCircle
 10
274.35175
 20
93.218
 30
0.0
 40
1.5
  0
CIRCLE
  5
128
330
1F
100
AcDbEntity
  8
0
  6
Continuous
 62
     7
370
    25
100
AcDbCircle
 10
269.748
 20
91.313
 30
0.0
 40
0.7250000000000227
  0
CIRCLE
  5
12C
330
1F
100
AcDbEntity
  8
0
  6
Continuous
 62
     7
370
    25
100
AcDbCircle
 10
272.923
 20
88.773
 30
0.0
 40
0.7249999999999659
  0
CIRCLE
  5
12D
330
1F
100
AcDbEntity
  8
0
  6
Continuous
 62
     7
370
    25
100
AcDbCircle
 10
284.988
 20
81.153
 30
0.0
 40
0.5
  0
CIRCLE
  5
12E
330
1F
100
AcDbEntity
  8
0
  6
Continuous
 62
     7
370
    25
100
AcDbCircle
 10
184.023
 20
91.313
 30
0.0
 40
0.7249999999999943
  0
CIRCLE
  5
12F
330
1F
100
AcDbEntity
  8
0
  6
Continuous
 62
     7
370
    25
100
AcDbCircle
 10
164.973
 20
91.313
 30
0.0
 40
0.7249999999999659
  0
CIRCLE
  5
130
330
1F
100
AcDbEntity
  8
0
  6
Continuous
 62
     7
370
    25
100
AcDbCircle
 10
231.648
 20
91.313
 30
0.0
 40
0.7249999999999943
  0
CIRCLE
  5
135
330
1F
100
AcDbEntity
  8
0
  6
Continuous
 62
     7
370
    25
100
AcDbCircle
 10
255.30175
 20
93.218
 30
0.0
 40
1.500000000000028
  0
CIRCLE
  5
136
330
1F
100
AcDbEntity
  8
0
  6
Continuous
 62
     7
370
    25
100
AcDbCircle
 10
260.223
 20
91.313
 30
0.0
 40
0.7250000000001364
  0
CIRCLE
  5
137
330
1F
100
AcDbEntity
  8
0
  6
Continuous
 62
     7
370
    25
100
AcDbCircle
 10
203.073
 20
91.313
 30
0.0
 40
0.7249999999999943
  0
CIRCLE
  5
138
330
1F
100
AcDbEntity
  8
0
  6
Continuous
 62
     7
370
    25
100
AcDbCircle
 10
217.20175
 20
93.218
 30
0.0
 40
1.500000000000028
  0
CIRCLE
  5
139
330
1F
100
AcDbEntity
  8
0
  6
Continuous
 62
     7
370
    25
100
AcDbCircle
 10
222.123
 20
91.313
 30
0.0
 40
0.7249999999999659
  0
CIRCLE
  5
13A
330
1F
100
AcDbEntity
  8
0
  6
Continuous
 62
     7
370
    25
100
AcDbCircle
 10
205.613
 20
86.233
 30
0.0
 40
0.8496299999999906
  0
CIRCLE
  5
13B
330
1F
100
AcDbEntity
  8
0
  6
Continuous
 62
     7
370
    25
100
AcDbCircle
 10
196.723
 20
88.773
 30
0.0
 40
0.7249999999999659
  0
CIRCLE
  5
13C
330
1F
100
AcDbEntity
  8
0
  6
Continuous
 62
     7
370
    25
100
AcDbCircle
 10
195.453
 20
86.233
 30
0.0
 40
0.8496299999999906
  0
CIRCLE
  5
13D
330
1F
100
AcDbEntity
  8
0
  6
Continuous
 62
     7
370
    25
100
AcDbCircle
 10
186.563
 20
86.233
 30
0.0
 40
0.8496299999999906
  0
CIRCLE
  5
13E
330
1F
100
AcDbEntity
  8
0
  6
Continuous
 62
     7
370
    25
100
AcDbCircle
 10
180.213
 20
81.153
 30
0.0
 40
0.5000000000000284
  0
CIRCLE
  5
13F
330
1F
100
AcDbEntity
  8
0
  6
Continuous
 62
     7
370
    25
100
AcDbCircle
 10
161.163
 20
81.153
 30
0.0
 40
0.5000000000000284
  0
CIRCLE
  5
140
330
1F
100
AcDbEntity
  8
0
  6
Continuous
 62
     7
370
    25
100
AcDbCircle
 10
177.673
 20
88.773
 30
0.0
 40
0.7249999999999943
  0
CIRCLE
  5
141
330
1F
100
AcDbEntity
  8
0
  6
Continuous
 62
     7
370
    25
100
AcDbCircle
 10
176.403
 20
86.233
 30
0.0
 40
0.8496299999999906
  0
CIRCLE
  5
142
330
1F
100
AcDbEntity
  8
0
  6
Continuous
 62
     7
370
    25
100
AcDbCircle
 10
167.513
 20
86.233
 30
0.0
 40
0.849630000000019
  0
CIRCLE
  5
143
330
1F
100
AcDbEntity
  8
0
  6
Continuous
 62
     7
370
    25
100
AcDbCircle
 10
162.433
 20
86.233
 30
0.0
 40
2.049779999999998
  0
CIRCLE
  5
144
330
1F
100
AcDbEntity
  8
0
  6
Continuous
 62
     7
370
    25
100
AcDbCircle
 10
158.623
 20
88.773
 30
0.0
 40
0.7249999999999943
  0
CIRCLE
  5
145
330
1F
100
AcDbEntity
  8
0
  6
Continuous
 62
     7
370
    25
100
AcDbCircle
 10
220.853
 20
81.153
 30
0.0
 40
0.5000000000000284
  0
CIRCLE
  5
146
330
1F
100
AcDbEntity
  8
0
  6
Continuous
 62
     7
370
    25
100
AcDbCircle
 10
253.873
 20
88.773
 30
0.0
 40
0.7249999999999375
  0
CIRCLE
  5
147
330
1F
100
AcDbEntity
  8
0
  6
Continuous
 62
     7
370
    25
100
AcDbCircle
 10
229.108
 20
86.233
 30
0.0
 40
2.049780000000027
  0
CIRCLE
  5
148
330
1F
100
AcDbEntity
  8
0
  6
Continuous
 62
     7
370
    25
100
AcDbCircle
 10
225.298
 20
88.773
 30
0.0
 40
0.7249999999999943
  0
CIRCLE
  5
149
330
1F
100
AcDbEntity
  8
0
  6
Continuous
 62
     7
370
    25
100
AcDbCircle
 10
219.583
 20
86.233
 30
0.0
 40
2.049779999999998
  0
CIRCLE
  5
14A
330
1F
100
AcDbEntity
  8
0
  6
Continuous
 62
     7
370
    25
100
AcDbCircle
 10
238.633
 20
86.233
 30
0.0
 40
2.04977999999997
  0
CIRCLE
  5
14E
330
1F
100
AcDbEntity
  8
0
  6
Continuous
 62
     7
370
    25
100
AcDbCircle
 10
252.603
 20
86.233
 30
0.0
 40
0.8496299999999621
  0
CIRCLE
  5
14F
330
1F
100
AcDbEntity
  8
0
  6
Continuous
 62
     7
370
    25
100
AcDbCircle
 10
263.398
 20
88.773
 30
0.0
 40
0.7249999999999659
  0
CIRCLE
  5
150
330
1F
100
AcDbEntity
  8
0
  6
Continuous
 62
     7
370
    25
100
AcDbCircle
 10
239.903
 20
81.153
 30
0.0
 40
0.5000000000000568
  0
CIRCLE
  5
151
330
1F
100
AcDbEntity
  8
0
  6
Continuous
 62
     7
370
    25
100
AcDbCircle
 10
145.923
 20
91.313
 30
0.0
 40
0.7249999999999659
  0
CIRCLE
  5
152
330
1F
100
AcDbEntity
  8
0
  6
Continuous
 62
     7
370
    25
100
AcDbCircle
 10
143.383
 20
86.233
 30
0.0
 40
2.049779999999998
  0
CIRCLE
  5
153
330
1F
100
AcDbEntity
  8
0
  6
Continuous
 62
     7
370
    25
100
AcDbCircle
 10
148.463
 20
86.233
 30
0.0
 40
0.849630000000019
  0
CIRCLE
  5
154
330
1F
100
AcDbEntity
  8
0
  6
Continuous
 62
     7
370
    25
100
AcDbCircle
 10
107.823
 20
91.313
 30
0.0
 40
0.7250000000000085
  0
CIRCLE
  5
155
330
1F
100
AcDbEntity
  8
0
  6
Continuous
 62
     7
370
    25
100
AcDbCircle
 10
119.253
 20
86.233
 30
0.0
 40
0.8496299999999763
  0
CIRCLE
  5
156
330
1F
100
AcDbEntity
  8
0
  6
Continuous
 62
     7
370
    25
100
AcDbCircle
 10
120.523
 20
88.773
 30
0.0
 40
0.7250000000000085
  0
CIRCLE
  5
157
330
1F
100
AcDbEntity
  8
0
  6
Continuous
 62
     7
370
    25
100
AcDbCircle
 10
129.413
 20
86.233
 30
0.0
 40
0.8496299999999906
  0
CIRCLE
  5
158
330
1F
100
AcDbEntity
  8
0
  6
Continuous
 62
     7
370
    25
100
AcDbCircle
 10
126.873
 20
91.313
 30
0.0
 40
0.7249999999999801
  0
CIRCLE
  5
159
330
1F
100
AcDbEntity
  8
0
  6
Continuous
 62
     7
370
    25
100
AcDbCircle
 10
139.573
 20
88.773
 30
0.0
 40
0.7250000000000227
  0
CIRCLE
  5
15A
330
1F
100
AcDbEntity
  8
0
  6
Continuous
 62
     7
370
    25
100
AcDbCircle
 10
138.303
 20
86.233
 30
0.0
 40
0.8496299999999621
  0
CIRCLE
  5
15B
330
1F
100
AcDbEntity
  8
0
  6
Continuous
 62
     7
370
    25
100
AcDbCircle
 10
91.313
 20
86.233
 30
0.0
 40
0.8496299999999906
  0
CIRCLE
  5
15C
330
1F
100
AcDbEntity
  8
0
  6
Continuous
 62
     7
370
    25
100
AcDbCircle
 10
69.723
 20
91.313
 30
0.0
 40
0.7249999999999801
  0
CIRCLE
  5
15D
330
1F
100
AcDbEntity
  8
0
  6
Continuous
 62
     7
370
    25
100
AcDbCircle
 10
67.183
 20
86.233
 30
0.0
 40
2.04977999999997
  0
CIRCLE
  5
15E
330
1F
100
AcDbEntity
  8
0
  6
Continuous
 62
     7
370
    25
100
AcDbCircle
 10
68.453
 20
81.153
 30
0.0
 40
0.5000000000000142
  0
CIRCLE
  5
15F
330
1F
100
AcDbEntity
  8
0
  6
Continuous
 62
     7
370
    25
100
AcDbCircle
 10
86.233
 20
86.233
 30
0.0
 40
2.049779999999998
  0
CIRCLE
  5
160
330
1F
100
AcDbEntity
  8
0
  6
Continuous
 62
     7
370
    25
100
AcDbCircle
 10
82.423
 20
88.773
 30
0.0
 40
0.7250000000000227
  0
CIRCLE
  5
161
330
1F
100
AcDbEntity
  8
0
  6
Continuous
 62
     7
370
    25
100
AcDbCircle
 10
81.153
 20
86.233
 30
0.0
 40
0.8496299999999906
  0
CIRCLE
  5
162
330
1F
100
AcDbEntity
  8
0
  6
Continuous
 62
     7
370
    25
100
AcDbCircle
 10
88.773
 20
91.313
 30
0.0
 40
0.7249999999999801
  0
CIRCLE
  5
163
330
1F
100
AcDbEntity
  8
0
  6
Continuous
 62
     7
370
    25
100
AcDbCircle
 10
63.373
 20
88.773
 30
0.0
 40
0.7250000000000085
  0
CIRCLE
  5
164
330
1F
100
AcDbEntity
  8
0
  6
Continuous
 62
     7
370
    25
100
AcDbCircle
 10
49.403
 20
81.153
 30
0.0
 40
0.5000000000000142
  0
CIRCLE
  5
165
330
1F
100
AcDbEntity
  8
0
  6
Continuous
 62
     7
370
    25
100
AcDbCircle
 10
50.673
 20
91.313
 30
0.0
 40
0.724999999999973
  0
CIRCLE
  5
166
330
1F
100
AcDbEntity
  8
0
  6
Continuous
 62
     7
370
    25
100
AcDbCircle
 10
48.133
 20
86.233
 30
0.0
 40
2.049780000000005
  0
CIRCLE
  5
167
330
1F
100
AcDbEntity
  8
0
  6
Continuous
 62
     7
370
    25
100
AcDbCircle
 10
46.863
 20
81.153
 30
0.0
 40
0.5000000000000071
  0
CIRCLE
  5
168
330
1F
100
AcDbEntity
  8
0
  6
Continuous
 62
     7
370
    25
100
AcDbCircle
 10
43.053
 20
86.233
 30
0.0
 40
0.8496299999999977
  0
CIRCLE
  5
169
330
1F
100
AcDbEntity
  8
0
  6
Continuous
 62
     7
370
    25
100
AcDbCircle
 10
46.3794
 20
93.8403
 30
0.0
 40
0.3999999999999986
  0
CIRCLE
  5
16A
330
1F
100
AcDbEntity
  8
0
  6
Continuous
 62
     7
370
    25
100
AcDbCircle
 10
44.323
 20
88.773
 30
0.0
 40
0.7250000000000014
  0
CIRCLE
  5
16F
330
1F
100
AcDbEntity
  8
0
  6
Continuous
 62
     7
370
    25
100
AcDbCircle
 10
290.703
 20
10.033
 30
0.0
 40
0.8496299999999906
  0
CIRCLE
  5
170
330
1F
100
AcDbEntity
  8
0
  6
Continuous
 62
     7
370
    25
100
AcDbCircle
 10
34.95675
 20
4.953
 30
0.0
 40
0.5
  0
CIRCLE
  5
171
330
1F
100
AcDbEntity
  8
0
  6
Continuous
 62
     7
370
    25
100
AcDbCircle
 10
268.478
 20
4.953
 30
0.0
 40
0.5
  0
CIRCLE
  5
172
330
1F
100
AcDbEntity
  8
0
  6
Continuous
 62
     7
370
    25
100
AcDbCircle
 10
265.938
 20
4.953
 30
0.0
 40
0.4999999999999432
  0
CIRCLE
  5
174
330
1F
100
AcDbEntity
  8
0
  6
Continuous
 62
     7
370
    25
100
AcDbCircle
 10
279.273
 20
15.113
 30
0.0
 40
0.7250000000000796
  0
CIRCLE
  5
175
330
1F
100
AcDbEntity
  8
0
  6
Continuous
 62
     7
370
    25
100
AcDbCircle
 10
275.463
 20
4.953
 30
0.0
 40
0.5
  0
CIRCLE
  5
176
330
1F
100
AcDbEntity
  8
0
  6
Continuous
 62
     7
370
    25
100
AcDbCircle
 10
278.003
 20
4.953
 30
0.0
 40
0.5
  0
CIRCLE
  5
177
330
1F
100
AcDbEntity
  8
0
  6
Continuous
 62
     7
370
    25
100
AcDbCircle
 10
279.11425
 20
3.048
 30
0.0
 40
1.5
  0
CIRCLE
  5
17B
330
1F
100
AcDbEntity
  8
0
  6
Continuous
 62
     7
370
    25
100
AcDbCircle
 10
272.923
 20
12.573
 30
0.0
 40
0.7250000000000227
  0
CIRCLE
  5
17C
330
1F
100
AcDbEntity
  8
0
  6
Continuous
 62
     7
370
    25
100
AcDbCircle
 10
257.683
 20
10.033
 30
0.0
 40
2.049779999999998
  0
CIRCLE
  5
17D
330
1F
100
AcDbEntity
  8
0
  6
Continuous
 62
     7
370
    25
100
AcDbCircle
 10
258.953
 20
4.953
 30
0.0
 40
0.5
  0
CIRCLE
  5
17E
330
1F
100
AcDbEntity
  8
0
  6
Continuous
 62
     7
370
    25
100
AcDbCircle
 10
263.398
 20
12.573
 30
0.0
 40
0.7250000000000227
  0
CIRCLE
  5
182
330
1F
100
AcDbEntity
  8
0
  6
Continuous
 62
     7
370
    25
100
AcDbCircle
 10
255.30175
 20
3.048
 30
0.0
 40
1.5
  0
CIRCLE
  5
183
330
1F
100
AcDbEntity
  8
0
  6
Continuous
 62
     7
370
    25
100
AcDbCircle
 10
256.413
 20
4.953
 30
0.0
 40
0.5
  0
CIRCLE
  5
184
330
1F
100
AcDbEntity
  8
0
  6
Continuous
 62
     7
370
    25
100
AcDbCircle
 10
94.64675
 20
4.953
 30
0.0
 40
0.5
  0
CIRCLE
  5
185
330
1F
100
AcDbEntity
  8
0
  6
Continuous
 62
     7
370
    25
100
AcDbCircle
 10
89.56675
 20
12.573
 30
0.0
 40
0.7250000000000085
  0
CIRCLE
  5
186
330
1F
100
AcDbEntity
  8
0
  6
Continuous
 62
     7
370
    25
100
AcDbCircle
 10
92.10675
 20
4.953
 30
0.0
 40
0.4999999999999858
  0
CIRCLE
  5
187
330
1F
100
AcDbEntity
  8
0
  6
Continuous
 62
     7
370
    25
100
AcDbCircle
 10
86.233
 20
18.288
 30
0.0
 40
1.999999999999986
  0
CIRCLE
  5
188
330
1F
100
AcDbEntity
  8
0
  6
Continuous
 62
     7
370
    25
100
AcDbCircle
 10
117.18925
 20
10.033
 30
0.0
 40
2.049779999999998
  0
CIRCLE
  5
189
330
1F
100
AcDbEntity
  8
0
  6
Continuous
 62
     7
370
    25
100
AcDbCircle
 10
115.91925
 20
4.953
 30
0.0
 40
0.4999999999999858
  0
CIRCLE
  5
18A
330
1F
100
AcDbEntity
  8
0
  6
Continuous
 62
     7
370
    25
100
AcDbCircle
 10
105.6005
 20
10.033
 30
0.0
 40
0.8496299999999906
  0
CIRCLE
  5
18B
330
1F
100
AcDbEntity
  8
0
  6
Continuous
 62
     7
370
    25
100
AcDbCircle
 10
103.0605
 20
15.113
 30
0.0
 40
0.7250000000000085
  0
CIRCLE
  5
18C
330
1F
100
AcDbEntity
  8
0
  6
Continuous
 62
     7
370
    25
100
AcDbCircle
 10
99.2505
 20
4.953
 30
0.0
 40
0.5
  0
CIRCLE
  5
18D
330
1F
100
AcDbEntity
  8
0
  6
Continuous
 62
     7
370
    25
100
AcDbCircle
 10
95.91675
 20
15.113
 30
0.0
 40
0.7250000000000085
  0
CIRCLE
  5
18E
330
1F
100
AcDbEntity
  8
0
  6
Continuous
 62
     7
370
    25
100
AcDbCircle
 10
144.653
 20
4.953
 30
0.0
 40
0.5
  0
CIRCLE
  5
18F
330
1F
100
AcDbEntity
  8
0
  6
Continuous
 62
     7
370
    25
100
AcDbCircle
 10
152.908
 20
3.048
 30
0.0
 40
1.5
  0
CIRCLE
  5
190
330
1F
100
AcDbEntity
  8
0
  6
Continuous
 62
     7
370
    25
100
AcDbCircle
 10
154.01925
 20
4.953
 30
0.0
 40
0.5000000000000284
  0
CIRCLE
  5
191
330
1F
100
AcDbEntity
  8
0
  6
Continuous
 62
     7
370
    25
100
AcDbCircle
 10
163.54425
 20
4.953
 30
0.0
 40
0.5
  0
CIRCLE
  5
192
330
1F
100
AcDbEntity
  8
0
  6
Continuous
 62
     7
370
    25
100
AcDbCircle
 10
134.01675
 20
15.113
 30
0.0
 40
0.7249999999999943
  0
CIRCLE
  5
193
330
1F
100
AcDbEntity
  8
0
  6
Continuous
 62
     7
370
    25
100
AcDbCircle
 10
131.47675
 20
10.033
 30
0.0
 40
2.049779999999998
  0
CIRCLE
  5
194
330
1F
100
AcDbEntity
  8
0
  6
Continuous
 62
     7
370
    25
100
AcDbCircle
 10
136.55675
 20
10.033
 30
0.0
 40
0.8496299999999906
  0
CIRCLE
  5
195
330
1F
100
AcDbEntity
  8
0
  6
Continuous
 62
     7
370
    25
100
AcDbCircle
 10
129.0955
 20
18.288
 30
0.0
 40
2.000000000000028
  0
CIRCLE
  5
196
330
1F
100
AcDbEntity
  8
0
  6
Continuous
 62
     7
370
    25
100
AcDbCircle
 10
119.5705
 20
18.288
 30
0.0
 40
2.000000000000014
  0
CIRCLE
  5
197
330
1F
100
AcDbEntity
  8
0
  6
Continuous
 62
     7
370
    25
100
AcDbCircle
 10
119.5705
 20
3.048
 30
0.0
 40
1.5
  0
CIRCLE
  5
198
330
1F
100
AcDbEntity
  8
0
  6
Continuous
 62
     7
370
    25
100
AcDbCircle
 10
129.0955
 20
3.048
 30
0.0
 40
1.5
  0
CIRCLE
  5
199
330
1F
100
AcDbEntity
  8
0
  6
Continuous
 62
     7
370
    25
100
AcDbCircle
 10
130.20675
 20
4.953
 30
0.0
 40
0.5
  0
CIRCLE
  5
1A1
330
1F
100
AcDbEntity
  8
0
  6
Continuous
 62
     7
370
    25
100
AcDbCircle
 10
122.90425
 20
12.573
 30
0.0
 40
0.7249999999999943
  0
CIRCLE
  5
1A2
330
1F
100
AcDbEntity
  8
0
  6
Continuous
 62
     7
370
    25
100
AcDbCircle
 10
119.72925
 20
15.113
 30
0.0
 40
0.7250000000000085
  0
CIRCLE
  5
1A3
330
1F
100
AcDbEntity
  8
0
  6
Continuous
 62
     7
370
    25
100
AcDbCircle
 10
181.483
 20
3.048
 30
0.0
 40
1.500000000000028
  0
CIRCLE
  5
1A8
330
1F
100
AcDbEntity
  8
0
  6
Continuous
 62
     7
370
    25
100
AcDbCircle
 10
218.313
 20
4.953
 30
0.0
 40
0.5
  0
CIRCLE
  5
1A9
330
1F
100
AcDbEntity
  8
0
  6
Continuous
 62
     7
370
    25
100
AcDbCircle
 10
227.99675
 20
4.953
 30
0.0
 40
0.5
  0
CIRCLE
  5
1AD
330
1F
100
AcDbEntity
  8
0
  6
Continuous
 62
     7
370
    25
100
AcDbCircle
 10
223.0755
 20
4.953
 30
0.0
 40
0.5
  0
CIRCLE
  5
1AE
330
1F
100
AcDbEntity
  8
0
  6
Continuous
 62
     7
370
    25
100
AcDbCircle
 10
220.853
 20
4.953
 30
0.0
 40
0.5
  0
CIRCLE
  5
1AF
330
1F
100
AcDbEntity
  8
0
  6
Continuous
 62
     7
370
    25
100
AcDbCircle
 10
235.0008
 20
4.953
 30
0.0
 40
0.5
  0
CIRCLE
  5
1B0
330
1F
100
AcDbEntity
  8
0
  6
Continuous
 62
     7
370
    25
100
AcDbCircle
 10
239.903
 20
4.953
 30
0.0
 40
0.5
  0
CIRCLE
  5
1B1
330
1F
100
AcDbEntity
  8
0
  6
Continuous
 62
     7
370
    25
100
AcDbCircle
 10
38.76675
 20
15.113
 30
0.0
 40
0.7249999999999801
  0
CIRCLE
  5
1B2
330
1F
100
AcDbEntity
  8
0
  6
Continuous
 62
     7
370
    25
100
AcDbCircle
 10
132.74675
 20
4.953
 30
0.0
 40
0.5
  0
CIRCLE
  5
1B3
330
1F
100
AcDbEntity
  8
0
  6
Continuous
 62
     7
370
    25
100
AcDbCircle
 10
127.98425
 20
4.953
 30
0.0
 40
0.4999999999999858
  0
CIRCLE
  5
1B4
330
1F
100
AcDbEntity
  8
0
  6
Continuous
 62
     7
370
    25
100
AcDbCircle
 10
153.8605
 20
12.573
 30
0.0
 40
0.7249999999999943
  0
CIRCLE
  5
1B5
330
1F
100
AcDbEntity
  8
0
  6
Continuous
 62
     7
370
    25
100
AcDbCircle
 10
138.6205
 20
3.048
 30
0.0
 40
1.500000000000028
  0
CIRCLE
  5
1B6
330
1F
100
AcDbEntity
  8
0
  6
Continuous
 62
     7
370
    25
100
AcDbCircle
 10
139.573
 20
12.573
 30
0.0
 40
0.7249999999999943
  0
CIRCLE
  5
1B7
330
1F
100
AcDbEntity
  8
0
  6
Continuous
 62
     7
370
    25
100
AcDbCircle
 10
142.113
 20
4.953
 30
0.0
 40
0.5000000000000284
  0
CIRCLE
  5
1B8
330
1F
100
AcDbEntity
  8
0
  6
Continuous
 62
     7
370
    25
100
AcDbCircle
 10
176.7205
 20
3.048
 30
0.0
 40
1.5
  0
CIRCLE
  5
1B9
330
1F
100
AcDbEntity
  8
0
  6
Continuous
 62
     7
370
    25
100
AcDbCircle
 10
166.08425
 20
4.953
 30
0.0
 40
0.5000000000000284
  0
CIRCLE
  5
1BA
330
1F
100
AcDbEntity
  8
0
  6
Continuous
 62
     7
370
    25
100
AcDbCircle
 10
158.9405
 20
4.953
 30
0.0
 40
0.5
  0
CIRCLE
  5
1CA
330
1F
100
AcDbEntity
  8
0
  6
Continuous
 62
     7
370
    25
100
AcDbCircle
 10
204.18425
 20
4.953
 30
0.0
 40
0.5
  0
CIRCLE
  5
1CB
330
1F
100
AcDbEntity
  8
0
  6
Continuous
 62
     7
370
    25
100
AcDbCircle
 10
205.2955
 20
3.048
 30
0.0
 40
1.500000000000028
  0
CIRCLE
  5
1D2
330
1F
100
AcDbEntity
  8
0
  6
Continuous
 62
     7
370
    25
100
AcDbCircle
 10
200.533
 20
3.048
 30
0.0
 40
1.5
  0
CIRCLE
  5
1D3
330
1F
100
AcDbEntity
  8
0
  6
Continuous
 62
     7
370
    25
100
AcDbCircle
 10
196.88175
 20
4.953
 30
0.0
 40
0.5
  0
CIRCLE
  5
1D4
330
1F
100
AcDbEntity
  8
0
  6
Continuous
 62
     7
370
    25
100
AcDbCircle
 10
125.44425
 20
4.953
 30
0.0
 40
0.5
  0
CIRCLE
  5
1DC
330
1F
100
AcDbEntity
  8
0
  6
Continuous
 62
     7
370
    25
100
AcDbCircle
 10
74.2598
 20
6.4974
 30
0.0
 40
0.4500000000000028
  0
CIRCLE
  5
1DD
330
1F
100
AcDbEntity
  8
0
  6
Continuous
 62
     7
370
    25
100
AcDbCircle
 10
43.688
 20
10.033
 30
0.0
 40
0.8496300000000048
  0
CIRCLE
  5
1DE
330
1F
100
AcDbEntity
  8
0
  6
Continuous
 62
     7
370
    25
100
AcDbCircle
 10
54.95925
 20
10.033
 30
0.0
 40
0.8496300000000048
  0
CIRCLE
  5
1DF
330
1F
100
AcDbEntity
  8
0
  6
Continuous
 62
     7
370
    25
100
AcDbCircle
 10
112.10925
 20
10.033
 30
0.0
 40
0.8496299999999763
  0
CIRCLE
  5
1E0
330
1F
100
AcDbEntity
  8
0
  6
Continuous
 62
     7
370
    25
100
AcDbCircle
 10
113.37925
 20
12.573
 30
0.0
 40
0.7250000000000085
  0
CIRCLE
  5
1E1
330
1F
100
AcDbEntity
  8
0
  6
Continuous
 62
     7
370
    25
100
AcDbCircle
 10
83.85175
 20
10.033
 30
0.0
 40
2.049780000000013
  0
CIRCLE
  5
1EB
330
1F
100
AcDbEntity
  8
0
  6
Continuous
 62
     7
370
    25
100
AcDbCircle
 10
80.04175
 20
12.573
 30
0.0
 40
0.7250000000000085
  0
CIRCLE
  5
1EC
330
1F
100
AcDbEntity
  8
0
  6
Continuous
 62
     7
370
    25
100
AcDbCircle
 10
78.77175
 20
10.033
 30
0.0
 40
0.849630000000019
  0
CIRCLE
  5
1ED
330
1F
100
AcDbEntity
  8
0
  6
Continuous
 62
     7
370
    25
100
AcDbCircle
 10
56.22925
 20
12.573
 30
0.0
 40
0.7249999999999943
  0
CIRCLE
  5
1EE
330
1F
100
AcDbEntity
  8
0
  6
Continuous
 62
     7
370
    25
100
AcDbCircle
 10
58.6105
 20
12.573
 30
0.0
 40
0.7249999999999943
  0
CIRCLE
  5
1F6
330
1F
100
AcDbEntity
  8
0
  6
Continuous
 62
     7
370
    25
100
AcDbCircle
 10
81.4705
 20
3.048
 30
0.0
 40
1.5
  0
CIRCLE
  5
1F7
330
1F
100
AcDbEntity
  8
0
  6
Continuous
 62
     7
370
    25
100
AcDbCircle
 10
82.58175
 20
4.953
 30
0.0
 40
0.4999999999999858
  0
CIRCLE
  5
1F8
330
1F
100
AcDbEntity
  8
0
  6
Continuous
 62
     7
370
    25
100
AcDbCircle
 10
85.12175
 20
4.953
 30
0.0
 40
0.4999999999999858
  0
CIRCLE
  5
1F9
330
1F
100
AcDbEntity
  8
0
  6
Continuous
 62
     7
370
    25
100
AcDbCircle
 10
86.233
 20
3.048
 30
0.0
 40
1.500000000000014
  0
CIRCLE
  5
1FA
330
1F
100
AcDbEntity
  8
0
  6
Continuous
 62
     7
370
    25
100
AcDbCircle
 10
105.283
 20
3.048
 30
0.0
 40
1.499999999999986
  0
CIRCLE
  5
1FB
330
1F
100
AcDbEntity
  8
0
  6
Continuous
 62
     7
370
    25
100
AcDbCircle
 10
101.7905
 20
4.953
 30
0.0
 40
0.4999999999999858
  0
CIRCLE
  5
1FC
330
1F
100
AcDbEntity
  8
0
  6
Continuous
 62
     7
370
    25
100
AcDbCircle
 10
118.45925
 20
4.953
 30
0.0
 40
0.5
  0
CIRCLE
  5
200
330
1F
100
AcDbEntity
  8
0
  6
Continuous
 62
     7
370
    25
100
AcDbCircle
 10
63.6905
 20
4.953
 30
0.0
 40
0.4999999999999929
  0
CIRCLE
  5
201
330
1F
100
AcDbEntity
  8
0
  6
Continuous
 62
     7
370
    25
100
AcDbCircle
 10
58.76925
 20
4.953
 30
0.0
 40
0.4999999999999929
  0
CIRCLE
  5
202
330
1F
100
AcDbEntity
  8
0
  6
Continuous
 62
     7
370
    25
100
AcDbCircle
 10
39.878
 20
4.953
 30
0.0
 40
0.5000000000000071
  0
CIRCLE
  5
206
330
1F
100
AcDbEntity
  8
0
  6
Continuous
 62
     7
370
    25
100
AcDbCircle
 10
94.488
 20
62.103
 30
0.0
 40
0.5
  0
CIRCLE
  5
207
330
1F
100
AcDbEntity
  8
0
  6
Continuous
 62
     7
370
    25
100
AcDbCircle
 10
37.338
 20
62.103
 30
0.0
 40
0.4999999999999929
  0
CIRCLE
  5
208
330
1F
100
AcDbEntity
  8
0
  6
Continuous
 62
     7
370
    25
100
AcDbCircle
 10
39.878
 20
62.103
 30
0.0
 40
0.5
  0
CIRCLE
  5
209
330
1F
100
AcDbEntity
  8
0
  6
Continuous
 62
     7
370
    25
100
AcDbCircle
 10
75.438
 20
62.103
 30
0.0
 40
0.5
  0
CIRCLE
  5
20A
330
1F
100
AcDbEntity
  8
0
  6
Continuous
 62
     7
370
    25
100
AcDbCircle
 10
77.978
 20
62.103
 30
0.0
 40
0.5
  0
CIRCLE
  5
20B
330
1F
100
AcDbEntity
  8
0
  6
Continuous
 62
     7
370
    25
100
AcDbCircle
 10
43.688
 20
67.183
 30
0.0
 40
0.8496300000000048
  0
CIRCLE
  5
20C
330
1F
100
AcDbEntity
  8
0
  6
Continuous
 62
     7
370
    25
100
AcDbCircle
 10
52.578
 20
67.183
 30
0.0
 40
0.8496299999999906
  0
CIRCLE
  5
20D
330
1F
100
AcDbEntity
  8
0
  6
Continuous
 62
     7
370
    25
100
AcDbCircle
 10
34.798
 20
69.723
 30
0.0
 40
0.7249999999999943
  0
CIRCLE
  5
20E
330
1F
100
AcDbEntity
  8
0
  6
Continuous
 62
     7
370
    25
100
AcDbCircle
 10
76.708
 20
67.183
 30
0.0
 40
2.049779999999998
  0
CIRCLE
  5
20F
330
1F
100
AcDbEntity
  8
0
  6
Continuous
 62
     7
370
    25
100
AcDbCircle
 10
90.678
 20
67.183
 30
0.0
 40
0.849630000000019
  0
CIRCLE
  5
210
330
1F
100
AcDbEntity
  8
0
  6
Continuous
 62
     7
370
    25
100
AcDbCircle
 10
64.9605
 20
15.113
 30
0.0
 40
0.7249999999999801
  0
CIRCLE
  5
211
330
1F
100
AcDbEntity
  8
0
  6
Continuous
 62
     7
370
    25
100
AcDbCircle
 10
62.57925
 20
15.113
 30
0.0
 40
0.7250000000000014
  0
CIRCLE
  5
212
330
1F
100
AcDbEntity
  8
0
  6
Continuous
 62
     7
370
    25
100
AcDbCircle
 10
86.39175
 20
15.113
 30
0.0
 40
0.7250000000000085
  0
CIRCLE
  5
213
330
1F
100
AcDbEntity
  8
0
  6
Continuous
 62
     7
370
    25
100
AcDbCircle
 10
41.148
 20
15.113
 30
0.0
 40
0.7249999999999943
  0
CIRCLE
  5
214
330
1F
100
AcDbEntity
  8
0
  6
Continuous
 62
     7
370
    25
100
AcDbCircle
 10
34.798
 20
12.573
 30
0.0
 40
0.7249999999999872
  0
CIRCLE
  5
215
330
1F
100
AcDbEntity
  8
0
  6
Continuous
 62
     7
370
    25
100
AcDbCircle
 10
32.41675
 20
12.573
 30
0.0
 40
0.7249999999999943
  0
CIRCLE
  5
216
330
1F
100
AcDbEntity
  8
0
  6
Continuous
 62
     7
370
    25
100
AcDbCircle
 10
33.8455
 20
20.828
 30
0.0
 40
1.999999999999993
  0
CIRCLE
  5
217
330
1F
100
AcDbEntity
  8
0
  6
Continuous
 62
     7
370
    25
100
AcDbCircle
 10
81.4705
 20
18.288
 30
0.0
 40
2.000000000000014
  0
CIRCLE
  5
218
330
1F
100
AcDbEntity
  8
0
  6
Continuous
 62
     7
370
    25
100
AcDbCircle
 10
64.9605
 20
53.213
 30
0.0
 40
0.7249999999999801
  0
CIRCLE
  5
219
330
1F
100
AcDbEntity
  8
0
  6
Continuous
 62
     7
370
    25
100
AcDbCircle
 10
45.9105
 20
53.213
 30
0.0
 40
0.7250000000000014
  0
CIRCLE
  5
21A
330
1F
100
AcDbEntity
  8
0
  6
Continuous
 62
     7
370
    25
100
AcDbCircle
 10
34.925
 20
53.4416
 30
0.0
 40
0.1499999999999915
  0
CIRCLE
  5
21B
330
1F
100
AcDbEntity
  8
0
  6
Continuous
 62
     7
370
    25
100
AcDbCircle
 10
33.8455
 20
36.068
 30
0.0
 40
1.499999999999993
  0
CIRCLE
  5
21C
330
1F
100
AcDbEntity
  8
0
  6
Continuous
 62
     7
370
    25
100
AcDbCircle
 10
74.4855
 20
34.163
 30
0.0
 40
0.7250000000000085
  0
CIRCLE
  5
21D
330
1F
100
AcDbEntity
  8
0
  6
Continuous
 62
     7
370
    25
100
AcDbCircle
 10
36.3855
 20
34.163
 30
0.0
 40
0.7250000000000014
  0
CIRCLE
  5
21E
330
1F
100
AcDbEntity
  8
0
  6
Continuous
 62
     7
370
    25
100
AcDbCircle
 10
61.1505
 20
43.053
 30
0.0
 40
0.5
  0
CIRCLE
  5
21F
330
1F
100
AcDbEntity
  8
0
  6
Continuous
 62
     7
370
    25
100
AcDbCircle
 10
80.2005
 20
43.053
 30
0.0
 40
0.5
  0
CIRCLE
  5
220
330
1F
100
AcDbEntity
  8
0
  6
Continuous
 62
     7
370
    25
100
AcDbCircle
 10
44.6405
 20
43.053
 30
0.0
 40
0.5000000000000071
  0
CIRCLE
  5
221
330
1F
100
AcDbEntity
  8
0
  6
Continuous
 62
     7
370
    25
100
AcDbCircle
 10
31.9395
 20
44.39475
 30
0.0
 40
0.350000000000005
  0
CIRCLE
  5
222
330
1F
100
AcDbEntity
  8
0
  6
Continuous
 62
     7
370
    25
100
AcDbCircle
 10
42.1005
 20
43.053
 30
0.0
 40
0.5
  0
CIRCLE
  5
223
330
1F
100
AcDbEntity
  8
0
  6
Continuous
 62
     7
370
    25
100
AcDbCircle
 10
31.9395
 20
49.39475
 30
0.0
 40
0.3499999999999979
  0
CIRCLE
  5
224
330
1F
100
AcDbEntity
  8
0
  6
Continuous
 62
     7
370
    25
100
AcDbCircle
 10
39.5605
 20
50.673
 30
0.0
 40
0.7250000000000014
  0
CIRCLE
  5
225
330
1F
100
AcDbEntity
  8
0
  6
Continuous
 62
     7
370
    25
100
AcDbCircle
 10
48.4505
 20
48.133
 30
0.0
 40
0.8496299999999977
  0
CIRCLE
  5
226
330
1F
100
AcDbEntity
  8
0
  6
Continuous
 62
     7
370
    25
100
AcDbCircle
 10
43.3705
 20
48.133
 30
0.0
 40
2.049780000000005
  0
CIRCLE
  5
227
330
1F
100
AcDbEntity
  8
0
  6
Continuous
 62
     7
370
    25
100
AcDbCircle
 10
38.2905
 20
48.133
 30
0.0
 40
0.8496299999999977
  0
CIRCLE
  5
228
330
1F
100
AcDbEntity
  8
0
  6
Continuous
 62
     7
370
    25
100
AcDbCircle
 10
31.9395
 20
46.89475
 30
0.0
 40
0.3500000000000014
  0
CIRCLE
  5
229
330
1F
100
AcDbEntity
  8
0
  6
Continuous
 62
     7
370
    25
100
AcDbCircle
 10
57.3405
 20
48.133
 30
0.0
 40
0.8496300000000048
  0
CIRCLE
  5
22A
330
1F
100
AcDbEntity
  8
0
  6
Continuous
 62
     7
370
    25
100
AcDbCircle
 10
62.4205
 20
48.133
 30
0.0
 40
2.049779999999998
  0
CIRCLE
  5
22B
330
1F
100
AcDbEntity
  8
0
  6
Continuous
 62
     7
370
    25
100
AcDbCircle
 10
68.1355
 20
31.623
 30
0.0
 40
0.7250000000000085
  0
CIRCLE
  5
22C
330
1F
100
AcDbEntity
  8
0
  6
Continuous
 62
     7
370
    25
100
AcDbCircle
 10
71.9455
 20
29.083
 30
0.0
 40
2.049779999999998
  0
CIRCLE
  5
22D
330
1F
100
AcDbEntity
  8
0
  6
Continuous
 62
     7
370
    25
100
AcDbCircle
 10
70.6755
 20
24.003
 30
0.0
 40
0.4999999999999858
  0
CIRCLE
  5
22E
330
1F
100
AcDbEntity
  8
0
  6
Continuous
 62
     7
370
    25
100
AcDbCircle
 10
73.2155
 20
24.003
 30
0.0
 40
0.5
  0
CIRCLE
  5
22F
330
1F
100
AcDbEntity
  8
0
  6
Continuous
 62
     7
370
    25
100
AcDbCircle
 10
49.0855
 20
31.623
 30
0.0
 40
0.7250000000000014
  0
CIRCLE
  5
230
330
1F
100
AcDbEntity
  8
0
  6
Continuous
 62
     7
370
    25
100
AcDbCircle
 10
47.8155
 20
29.083
 30
0.0
 40
0.8496300000000048
  0
CIRCLE
  5
231
330
1F
100
AcDbEntity
  8
0
  6
Continuous
 62
     7
370
    25
100
AcDbCircle
 10
51.6255
 20
24.003
 30
0.0
 40
0.4999999999999929
  0
CIRCLE
  5
232
330
1F
100
AcDbEntity
  8
0
  6
Continuous
 62
     7
370
    25
100
AcDbCircle
 10
38.9255
 20
29.083
 30
0.0
 40
0.8496299999999906
  0
CIRCLE
  5
233
330
1F
100
AcDbEntity
  8
0
  6
Continuous
 62
     7
370
    25
100
AcDbCircle
 10
32.5755
 20
24.003
 30
0.0
 40
0.4999999999999929
  0
CIRCLE
  5
234
330
1F
100
AcDbEntity
  8
0
  6
Continuous
 62
     7
370
    25
100
AcDbCircle
 10
35.1155
 20
24.003
 30
0.0
 40
0.4999999999999929
  0
CIRCLE
  5
235
330
1F
100
AcDbEntity
  8
0
  6
Continuous
 62
     7
370
    25
100
AcDbCircle
 10
33.8455
 20
29.083
 30
0.0
 40
2.049779999999991
  0
CIRCLE
  5
236
330
1F
100
AcDbEntity
  8
0
  6
Continuous
 62
     7
370
    25
100
AcDbCircle
 10
227.838
 20
62.103
 30
0.0
 40
0.3999999999999488
  0
CIRCLE
  5
237
330
1F
100
AcDbEntity
  8
0
  6
Continuous
 62
     7
370
    25
100
AcDbCircle
 10
217.3605
 20
53.213
 30
0.0
 40
0.7249999999999943
  0
CIRCLE
  5
238
330
1F
100
AcDbEntity
  8
0
  6
Continuous
 62
     7
370
    25
100
AcDbCircle
 10
200.2155
 20
29.083
 30
0.0
 40
0.849630000000019
  0
CIRCLE
  5
239
330
1F
100
AcDbEntity
  8
0
  6
Continuous
 62
     7
370
    25
100
AcDbCircle
 10
201.4855
 20
31.623
 30
0.0
 40
0.7249999999999943
  0
CIRCLE
  5
23A
330
1F
100
AcDbEntity
  8
0
  6
Continuous
 62
     7
370
    25
100
AcDbCircle
 10
211.16925
 20
24.003
 30
0.0
 40
0.5
  0
CIRCLE
  5
23B
330
1F
100
AcDbEntity
  8
0
  6
Continuous
 62
     7
370
    25
100
AcDbCircle
 10
243.6114
 20
21.4884
 30
0.0
 40
0.1500000000000057
  0
CIRCLE
  5
23F
330
1F
100
AcDbEntity
  8
0
  6
Continuous
 62
     7
370
    25
100
AcDbCircle
 10
214.8205
 20
39.878
 30
0.0
 40
1.999999999999972
  0
CIRCLE
  5
240
330
1F
100
AcDbEntity
  8
0
  6
Continuous
 62
     7
370
    25
100
AcDbCircle
 10
216.0905
 20
43.053
 30
0.0
 40
0.5
  0
CIRCLE
  5
241
330
1F
100
AcDbEntity
  8
0
  6
Continuous
 62
     7
370
    25
100
AcDbCircle
 10
207.8355
 20
34.163
 30
0.0
 40
0.7250000000000227
  0
CIRCLE
  5
245
330
1F
100
AcDbEntity
  8
0
  6
Continuous
 62
     7
370
    25
100
AcDbCircle
 10
221.64675
 20
48.133
 30
0.0
 40
0.849630000000019
  0
CIRCLE
  5
246
330
1F
100
AcDbEntity
  8
0
  6
Continuous
 62
     7
370
    25
100
AcDbCircle
 10
225.45675
 20
43.053
 30
0.0
 40
0.5000000000000284
  0
CIRCLE
  5
247
330
1F
100
AcDbEntity
  8
0
  6
Continuous
 62
     7
370
    25
100
AcDbCircle
 10
260.223
 20
15.113
 30
0.0
 40
0.7250000000000796
  0
CIRCLE
  5
248
330
1F
100
AcDbEntity
  8
0
  6
Continuous
 62
     7
370
    25
100
AcDbCircle
 10
291.973
 20
12.573
 30
0.0
 40
0.7250000000000796
  0
CIRCLE
  5
249
330
1F
100
AcDbEntity
  8
0
  6
Continuous
 62
     7
370
    25
100
AcDbCircle
 10
230.21925
 20
24.003
 30
0.0
 40
0.5
  0
CIRCLE
  5
24A
330
1F
100
AcDbEntity
  8
0
  6
Continuous
 62
     7
370
    25
100
AcDbCircle
 10
258.953
 20
24.003
 30
0.0
 40
0.5
  0
CIRCLE
  5
24B
330
1F
100
AcDbEntity
  8
0
  6
Continuous
 62
     7
370
    25
100
AcDbCircle
 10
275.463
 20
24.003
 30
0.0
 40
0.5
  0
CIRCLE
  5
24C
330
1F
100
AcDbEntity
  8
0
  6
Continuous
 62
     7
370
    25
100
AcDbCircle
 10
279.11425
 20
18.288
 30
0.0
 40
2.0
  0
CIRCLE
  5
24D
330
1F
100
AcDbEntity
  8
0
  6
Continuous
 62
     7
370
    25
100
AcDbCircle
 10
269.748
 20
15.113
 30
0.0
 40
0.7250000000000227
  0
CIRCLE
  5
253
330
1F
100
AcDbEntity
  8
0
  6
Continuous
 62
     7
370
    25
100
AcDbCircle
 10
252.9205
 20
39.878
 30
0.0
 40
1.999999999999972
  0
CIRCLE
  5
254
330
1F
100
AcDbEntity
  8
0
  6
Continuous
 62
     7
370
    25
100
AcDbCircle
 10
263.55675
 20
43.053
 30
0.0
 40
0.5
  0
CIRCLE
  5
255
330
1F
100
AcDbEntity
  8
0
  6
Continuous
 62
     7
370
    25
100
AcDbCircle
 10
279.273
 20
34.163
 30
0.0
 40
0.7250000000000796
  0
CIRCLE
  5
259
330
1F
100
AcDbEntity
  8
0
  6
Continuous
 62
     7
370
    25
100
AcDbCircle
 10
281.813
 20
29.083
 30
0.0
 40
0.8496300000001042
  0
CIRCLE
  5
25A
330
1F
100
AcDbEntity
  8
0
  6
Continuous
 62
     7
370
    25
100
AcDbCircle
 10
291.973
 20
31.623
 30
0.0
 40
0.7250000000000796
  0
CIRCLE
  5
25B
330
1F
100
AcDbEntity
  8
0
  6
Continuous
 62
     7
370
    25
100
AcDbCircle
 10
290.703
 20
29.083
 30
0.0
 40
0.8496299999999906
  0
CIRCLE
  5
25C
330
1F
100
AcDbEntity
  8
0
  6
Continuous
 62
     7
370
    25
100
AcDbCircle
 10
229.26675
 20
53.213
 30
0.0
 40
0.7249999999999943
  0
CIRCLE
  5
25D
330
1F
100
AcDbEntity
  8
0
  6
Continuous
 62
     7
370
    25
100
AcDbCircle
 10
230.378
 20
62.103
 30
0.0
 40
0.4000000000000057
  0
CIRCLE
  5
262
330
1F
100
AcDbEntity
  8
0
  6
Continuous
 62
     7
370
    25
100
AcDbCircle
 10
247.8405
 20
48.133
 30
0.0
 40
0.849630000000019
  0
CIRCLE
  5
263
330
1F
100
AcDbEntity
  8
0
  6
Continuous
 62
     7
370
    25
100
AcDbCircle
 10
249.1105
 20
50.673
 30
0.0
 40
0.7249999999999943
  0
CIRCLE
  5
264
330
1F
100
AcDbEntity
  8
0
  6
Continuous
 62
     7
370
    25
100
AcDbCircle
 10
238.9505
 20
48.133
 30
0.0
 40
0.8496299999999906
  0
CIRCLE
  5
265
330
1F
100
AcDbEntity
  8
0
  6
Continuous
 62
     7
370
    25
100
AcDbCircle
 10
246.888
 20
62.103
 30
0.0
 40
0.5
  0
CIRCLE
  5
266
330
1F
100
AcDbEntity
  8
0
  6
Continuous
 62
     7
370
    25
100
AcDbCircle
 10
255.4605
 20
53.213
 30
0.0
 40
0.7250000000000512
  0
CIRCLE
  5
267
330
1F
100
AcDbEntity
  8
0
  6
Continuous
 62
     7
370
    25
100
AcDbCircle
 10
252.9205
 20
55.118
 30
0.0
 40
1.500000000000028
  0
CIRCLE
  5
271
330
1F
100
AcDbEntity
  8
0
  6
Continuous
 62
     7
370
    25
100
AcDbCircle
 10
244.348
 20
69.723
 30
0.0
 40
0.7249999999999659
  0
CIRCLE
  5
276
330
1F
100
AcDbEntity
  8
0
  6
Continuous
 62
     7
370
    25
100
AcDbCircle
 10
233.71175
 20
53.848
 30
0.0
 40
0.7249999999999659
  0
CIRCLE
  5
27F
330
1F
100
AcDbEntity
  8
0
  6
Continuous
 62
     7
370
    25
100
AcDbCircle
 10
232.6005
 20
62.103
 30
0.0
 40
0.4999999999999716
  0
CIRCLE
  5
280
330
1F
100
AcDbEntity
  8
0
  6
Continuous
 62
     7
370
    25
100
AcDbCircle
 10
233.8705
 20
67.183
 30
0.0
 40
2.049780000000027
  0
CIRCLE
  5
283
330
1F
100
AcDbEntity
  8
0
  6
Continuous
 62
     7
370
    25
100
AcDbCircle
 10
276.733
 20
48.133
 30
0.0
 40
2.049779999999998
  0
CIRCLE
  5
284
330
1F
100
AcDbEntity
  8
0
  6
Continuous
 62
     7
370
    25
100
AcDbCircle
 10
272.923
 20
50.673
 30
0.0
 40
0.7249999999999659
  0
CIRCLE
  5
285
330
1F
100
AcDbEntity
  8
0
  6
Continuous
 62
     7
370
    25
100
AcDbCircle
 10
274.35175
 20
52.578
 30
0.0
 40
0.8496299999999337
  0
CIRCLE
  5
28A
330
1F
100
AcDbEntity
  8
0
  6
Continuous
 62
     7
370
    25
100
AcDbCircle
 10
279.273
 20
53.213
 30
0.0
 40
0.7250000000000796
  0
CIRCLE
  5
28B
330
1F
100
AcDbEntity
  8
0
  6
Continuous
 62
     7
370
    25
100
AcDbCircle
 10
279.43175
 20
58.928
 30
0.0
 40
0.5
  0
CIRCLE
  5
28C
330
1F
100
AcDbEntity
  8
0
  6
Continuous
 62
     7
370
    25
100
AcDbCircle
 10
279.43175
 20
56.388
 30
0.0
 40
0.5
  0
CIRCLE
  5
291
330
1F
100
AcDbEntity
  8
0
  6
Continuous
 62
     7
370
    25
100
AcDbCircle
 10
290.703
 20
67.183
 30
0.0
 40
0.8496299999999906
  0
CIRCLE
  5
292
330
1F
100
AcDbEntity
  8
0
  6
Continuous
 62
     7
370
    25
100
AcDbCircle
 10
291.973
 20
50.673
 30
0.0
 40
0.7250000000000796
  0
CIRCLE
  5
293
330
1F
100
AcDbEntity
  8
0
  6
Continuous
 62
     7
370
    25
100
AcDbCircle
 10
290.703
 20
48.133
 30
0.0
 40
0.8496299999999906
  0
CIRCLE
  5
294
330
1F
100
AcDbEntity
  8
0
  6
Continuous
 62
     7
370
    25
100
AcDbCircle
 10
96.7105
 20
50.673
 30
0.0
 40
0.7249999999999801
  0
CIRCLE
  5
295
330
1F
100
AcDbEntity
  8
0
  6
Continuous
 62
     7
370
    25
100
AcDbCircle
 10
124.6505
 20
48.133
 30
0.0
 40
0.8496299999999763
  0
CIRCLE
  5
29A
330
1F
100
AcDbEntity
  8
0
  6
Continuous
 62
     7
370
    25
100
AcDbCircle
 10
128.778
 20
67.183
 30
0.0
 40
0.8496299999999906
  0
CIRCLE
  5
29B
330
1F
100
AcDbEntity
  8
0
  6
Continuous
 62
     7
370
    25
100
AcDbCircle
 10
121.1326
 20
58.801
 30
0.0
 40
0.1499999999999915
  0
CIRCLE
  5
29C
330
1F
100
AcDbEntity
  8
0
  6
Continuous
 62
     7
370
    25
100
AcDbCircle
 10
110.998
 20
46.4058
 30
0.0
 40
0.2999999999999972
  0
CIRCLE
  5
29D
330
1F
100
AcDbEntity
  8
0
  6
Continuous
 62
     7
370
    25
100
AcDbCircle
 10
109.728
 20
46.4058
 30
0.0
 40
0.2999999999999972
  0
CIRCLE
  5
29E
330
1F
100
AcDbEntity
  8
0
  6
Continuous
 62
     7
370
    25
100
AcDbCircle
 10
115.7605
 20
50.673
 30
0.0
 40
0.7250000000000085
  0
CIRCLE
  5
29F
330
1F
100
AcDbEntity
  8
0
  6
Continuous
 62
     7
370
    25
100
AcDbCircle
 10
114.4905
 20
48.133
 30
0.0
 40
0.8496300000000048
  0
CIRCLE
  5
2A0
330
1F
100
AcDbEntity
  8
0
  6
Continuous
 62
     7
370
    25
100
AcDbCircle
 10
101.7905
 20
43.053
 30
0.0
 40
0.5
  0
CIRCLE
  5
2A1
330
1F
100
AcDbEntity
  8
0
  6
Continuous
 62
     7
370
    25
100
AcDbCircle
 10
115.1255
 20
29.083
 30
0.0
 40
0.8496299999999906
  0
CIRCLE
  5
2A2
330
1F
100
AcDbEntity
  8
0
  6
Continuous
 62
     7
370
    25
100
AcDbCircle
 10
104.9655
 20
29.083
 30
0.0
 40
0.8496299999999906
  0
CIRCLE
  5
2A3
330
1F
100
AcDbEntity
  8
0
  6
Continuous
 62
     7
370
    25
100
AcDbCircle
 10
129.25425
 20
15.113
 30
0.0
 40
0.7249999999999943
  0
CIRCLE
  5
2A4
330
1F
100
AcDbEntity
  8
0
  6
Continuous
 62
     7
370
    25
100
AcDbCircle
 10
130.3655
 20
24.003
 30
0.0
 40
0.5
  0
CIRCLE
  5
2A5
330
1F
100
AcDbEntity
  8
0
  6
Continuous
 62
     7
370
    25
100
AcDbCircle
 10
105.283
 20
18.288
 30
0.0
 40
2.000000000000028
  0
CIRCLE
  5
2A6
330
1F
100
AcDbEntity
  8
0
  6
Continuous
 62
     7
370
    25
100
AcDbCircle
 10
96.7105
 20
12.573
 30
0.0
 40
0.7249999999999801
  0
CIRCLE
  5
2A7
330
1F
100
AcDbEntity
  8
0
  6
Continuous
 62
     7
370
    25
100
AcDbCircle
 10
160.2105
 20
15.113
 30
0.0
 40
0.7250000000000227
  0
CIRCLE
  5
2A8
330
1F
100
AcDbEntity
  8
0
  6
Continuous
 62
     7
370
    25
100
AcDbCircle
 10
181.483
 20
18.288
 30
0.0
 40
2.000000000000028
  0
CIRCLE
  5
2A9
330
1F
100
AcDbEntity
  8
0
  6
Continuous
 62
     7
370
    25
100
AcDbCircle
 10
168.4655
 20
24.003
 30
0.0
 40
0.5
  0
CIRCLE
  5
2AA
330
1F
100
AcDbEntity
  8
0
  6
Continuous
 62
     7
370
    25
100
AcDbCircle
 10
176.7205
 20
18.288
 30
0.0
 40
2.000000000000028
  0
CIRCLE
  5
2AB
330
1F
100
AcDbEntity
  8
0
  6
Continuous
 62
     7
370
    25
100
AcDbCircle
 10
162.7505
 20
48.133
 30
0.0
 40
0.849630000000019
  0
CIRCLE
  5
2AC
330
1F
100
AcDbEntity
  8
0
  6
Continuous
 62
     7
370
    25
100
AcDbCircle
 10
156.4005
 20
43.053
 30
0.0
 40
0.5
  0
CIRCLE
  5
2AD
330
1F
100
AcDbEntity
  8
0
  6
Continuous
 62
     7
370
    25
100
AcDbCircle
 10
160.2105
 20
53.213
 30
0.0
 40
0.7250000000000227
  0
CIRCLE
  5
2AE
330
1F
100
AcDbEntity
  8
0
  6
Continuous
 62
     7
370
    25
100
AcDbCircle
 10
153.2255
 20
29.083
 30
0.0
 40
0.849630000000019
  0
CIRCLE
  5
2AF
330
1F
100
AcDbEntity
  8
0
  6
Continuous
 62
     7
370
    25
100
AcDbCircle
 10
153.8605
 20
50.673
 30
0.0
 40
0.7249999999999943
  0
CIRCLE
  5
2B0
330
1F
100
AcDbEntity
  8
0
  6
Continuous
 62
     7
370
    25
100
AcDbCircle
 10
138.6205
 20
48.133
 30
0.0
 40
2.049779999999998
  0
CIRCLE
  5
2B1
330
1F
100
AcDbEntity
  8
0
  6
Continuous
 62
     7
370
    25
100
AcDbCircle
 10
170.688
 20
62.103
 30
0.0
 40
0.5
  0
CIRCLE
  5
2B2
330
1F
100
AcDbEntity
  8
0
  6
Continuous
 62
     7
370
    25
100
AcDbCircle
 10
169.7355
 20
34.163
 30
0.0
 40
0.7249999999999943
  0
CIRCLE
  5
2B3
330
1F
100
AcDbEntity
  8
0
  6
Continuous
 62
     7
370
    25
100
AcDbCircle
 10
172.2755
 20
29.083
 30
0.0
 40
0.8496299999999906
  0
CIRCLE
  5
2B4
330
1F
100
AcDbEntity
  8
0
  6
Continuous
 62
     7
370
    25
100
AcDbCircle
 10
181.1655
 20
29.083
 30
0.0
 40
0.849630000000019
  0
CIRCLE
  5
2B5
330
1F
100
AcDbEntity
  8
0
  6
Continuous
 62
     7
370
    25
100
AcDbCircle
 10
175.4505
 20
43.053
 30
0.0
 40
0.5
  0
CIRCLE
  5
2B6
330
1F
100
AcDbEntity
  8
0
  6
Continuous
 62
     7
370
    25
100
AcDbCircle
 10
177.9905
 20
43.053
 30
0.0
 40
0.5000000000000284
  0
CIRCLE
  5
2B7
330
1F
100
AcDbEntity
  8
0
  6
Continuous
 62
     7
370
    25
100
AcDbCircle
 10
179.2605
 20
53.213
 30
0.0
 40
0.7250000000000227
  0
CIRCLE
  5
2B8
330
1F
100
AcDbEntity
  8
0
  6
Continuous
 62
     7
370
    25
100
AcDbCircle
 10
177.038
 20
67.183
 30
0.0
 40
0.8496299999999906
  0
CIRCLE
  5
2B9
330
1F
100
AcDbEntity
  8
0
  6
Continuous
 62
     7
370
    25
100
AcDbCircle
 10
171.958
 20
67.183
 30
0.0
 40
2.049779999999998
  0
CIRCLE
  5
2BA
330
1F
100
AcDbEntity
  8
0
  6
Continuous
 62
     7
370
    25
100
AcDbCircle
 10
189.738
 20
62.103
 30
0.0
 40
0.5000000000000284
  0
CIRCLE
  5
2CE
330
1F
100
AcDbEntity
  8
0
  6
Continuous
 62
     7
370
    25
100
AcDbCircle
 10
17.3355
 20
72.263
 30
0.0
 40
0.7249999999999872
  0
CIRCLE
  5
2D2
330
1F
100
AcDbEntity
  8
0
  6
Continuous
 62
     7
370
    25
100
AcDbCircle
 10
9.7155
 20
67.183
 30
0.0
 40
0.8496300000000065
  0
CIRCLE
  5
2D3
330
1F
100
AcDbEntity
  8
0
  6
Continuous
 62
     7
370
    25
100
AcDbCircle
 10
16.0655
 20
62.103
 30
0.0
 40
0.5
  0
CIRCLE
  5
2D4
330
1F
100
AcDbEntity
  8
0
  6
Continuous
 62
     7
370
    25
100
AcDbCircle
 10
13.5255
 20
62.103
 30
0.0
 40
0.5
  0
CIRCLE
  5
2D5
330
1F
100
AcDbEntity
  8
0
  6
Continuous
 62
     7
370
    25
100
AcDbCircle
 10
14.95425
 20
53.213
 30
0.0
 40
0.7250000000000014
  0
CIRCLE
  5
2D6
330
1F
100
AcDbEntity
  8
0
  6
Continuous
 62
     7
370
    25
100
AcDbCircle
 10
19.71675
 20
53.213
 30
0.0
 40
0.7249999999999979
  0
CIRCLE
  5
2D7
330
1F
100
AcDbEntity
  8
0
  6
Continuous
 62
     7
370
    25
100
AcDbCircle
 10
15.113
 20
86.233
 30
0.0
 40
0.8496300000000048
  0
CIRCLE
  5
2D8
330
1F
100
AcDbEntity
  8
0
  6
Continuous
 62
     7
370
    25
100
AcDbCircle
 10
10.033
 20
86.233
 30
0.0
 40
2.049779999999974
  0
CIRCLE
  5
2D9
330
1F
100
AcDbEntity
  8
0
  6
Continuous
 62
     7
370
    25
100
AcDbCircle
 10
11.303
 20
81.153
 30
0.0
 40
0.500000000000016
  0
CIRCLE
  5
2DA
330
1F
100
AcDbEntity
  8
0
  6
Continuous
 62
     7
370
    25
100
AcDbCircle
 10
8.763
 20
81.153
 30
0.0
 40
0.5000000000000036
  0
CIRCLE
  5
2DB
330
1F
100
AcDbEntity
  8
0
  6
Continuous
 62
     7
370
    25
100
AcDbCircle
 10
22.733
 20
78.74
 30
0.0
 40
0.399999999999995
  0
CIRCLE
  5
2DC
330
1F
100
AcDbEntity
  8
0
  6
Continuous
 62
     7
370
    25
100
AcDbCircle
 10
18.733
 20
78.74
 30
0.0
 40
0.399999999999995
  0
CIRCLE
  5
2DD
330
1F
100
AcDbEntity
  8
0
  6
Continuous
 62
     7
370
    25
100
AcDbCircle
 10
20.733
 20
78.74
 30
0.0
 40
0.399999999999995
  0
CIRCLE
  5
2DE
330
1F
100
AcDbEntity
  8
0
  6
Continuous
 62
     7
370
    25
100
AcDbCircle
 10
18.733
 20
75.6666
 30
0.0
 40
0.4000000000000163
  0
CIRCLE
  5
2DF
330
1F
100
AcDbEntity
  8
0
  6
Continuous
 62
     7
370
    25
100
AcDbCircle
 10
20.733
 20
75.6666
 30
0.0
 40
0.4000000000000199
  0
CIRCLE
  5
2E0
330
1F
100
AcDbEntity
  8
0
  6
Continuous
 62
     7
370
    25
100
AcDbCircle
 10
16.733
 20
78.74
 30
0.0
 40
0.3999999999999915
  0
CIRCLE
  5
2E1
330
1F
100
AcDbEntity
  8
0
  6
Continuous
 62
     7
370
    25
100
AcDbCircle
 10
16.733
 20
75.6666
 30
0.0
 40
0.4000000000000163
  0
CIRCLE
  5
2E2
330
1F
100
AcDbEntity
  8
0
  6
Continuous
 62
     7
370
    25
100
AcDbCircle
 10
18.32864
 20
88.3158
 30
0.0
 40
0.3000000000000043
  0
CIRCLE
  5
2E3
330
1F
100
AcDbEntity
  8
0
  6
Continuous
 62
     7
370
    25
100
AcDbCircle
 10
19.92376
 20
88.3158
 30
0.0
 40
0.3000000000000078
  0
CIRCLE
  5
2E4
330
1F
100
AcDbEntity
  8
0
  6
Continuous
 62
     7
370
    25
100
AcDbCircle
 10
19.1262
 20
87.11692
 30
0.0
 40
0.3000000000000114
  0
CIRCLE
  5
2E5
330
1F
100
AcDbEntity
  8
0
  6
Continuous
 62
     7
370
    25
100
AcDbCircle
 10
20.72386
 20
87.11692
 30
0.0
 40
0.3000000000000043
  0
CIRCLE
  5
2E6
330
1F
100
AcDbEntity
  8
0
  6
Continuous
 62
     7
370
    25
100
AcDbCircle
 10
24.003
 20
86.233
 30
0.0
 40
0.8496299999999906
  0
CIRCLE
  5
2E7
330
1F
100
AcDbEntity
  8
0
  6
Continuous
 62
     7
370
    25
100
AcDbCircle
 10
25.273
 20
88.773
 30
0.0
 40
0.7250000000000085
  0
CIRCLE
  5
2E8
330
1F
100
AcDbEntity
  8
0
  6
Continuous
 62
     7
370
    25
100
AcDbCircle
 10
24.47925
 20
34.163
 30
0.0
 40
0.7249999999999943
  0
CIRCLE
  5
2E9
330
1F
100
AcDbEntity
  8
0
  6
Continuous
 62
     7
370
    25
100
AcDbCircle
 10
22.25675
 20
48.133
 30
0.0
 40
0.8496300000000083
  0
CIRCLE
  5
2EA
330
1F
100
AcDbEntity
  8
0
  6
Continuous
 62
     7
370
    25
100
AcDbCircle
 10
20.66925
 20
24.003
 30
0.0
 40
0.5000000000000036
  0
CIRCLE
  5
2EB
330
1F
100
AcDbEntity
  8
0
  6
Continuous
 62
     7
370
    25
100
AcDbCircle
 10
11.14425
 20
43.053
 30
0.0
 40
0.5
  0
CIRCLE
  5
2F0
330
1F
100
AcDbEntity
  8
0
  6
Continuous
 62
     7
370
    25
100
AcDbCircle
 10
7.33425
 20
48.133
 30
0.0
 40
0.8496300000000039
  0
CIRCLE
  5
2F1
330
1F
100
AcDbEntity
  8
0
  6
Continuous
 62
     7
370
    25
100
AcDbCircle
 10
8.60425
 20
50.673
 30
0.0
 40
0.7249999999999979
  0
CIRCLE
  5
2F2
330
1F
100
AcDbEntity
  8
0
  6
Continuous
 62
     7
370
    25
100
AcDbCircle
 10
13.68425
 20
43.053
 30
0.0
 40
0.5000000000000089
  0
CIRCLE
  5
2F3
330
1F
100
AcDbEntity
  8
0
  6
Continuous
 62
     7
370
    25
100
AcDbCircle
 10
15.90675
 20
43.053
 30
0.0
 40
0.4999999999999964
  0
CIRCLE
  5
2F4
330
1F
100
AcDbEntity
  8
0
  6
Continuous
 62
     7
370
    25
100
AcDbCircle
 10
18.44675
 20
43.053
 30
0.0
 40
0.5
  0
CIRCLE
  5
2F5
330
1F
100
AcDbEntity
  8
0
  6
Continuous
 62
     7
370
    25
100
AcDbCircle
 10
17.17675
 20
48.133
 30
0.0
 40
2.049779999999991
  0
CIRCLE
  5
2F6
330
1F
100
AcDbEntity
  8
0
  6
Continuous
 62
     7
370
    25
100
AcDbCircle
 10
23.20925
 20
24.003
 30
0.0
 40
0.5
  0
CIRCLE
  5
2F7
330
1F
100
AcDbEntity
  8
0
  6
Continuous
 62
     7
370
    25
100
AcDbCircle
 10
21.93925
 20
29.083
 30
0.0
 40
2.049779999999995
  0
CIRCLE
  5
2F8
330
1F
100
AcDbEntity
  8
0
  6
Continuous
 62
     7
370
    25
100
AcDbCircle
 10
19.8755
 20
10.033
 30
0.0
 40
0.8496300000000083
  0
CIRCLE
  5
2F9
330
1F
100
AcDbEntity
  8
0
  6
Continuous
 62
     7
370
    25
100
AcDbCircle
 10
13.68425
 20
24.003
 30
0.0
 40
0.5000000000000018
  0
CIRCLE
  5
2FA
330
1F
100
AcDbEntity
  8
0
  6
Continuous
 62
     7
370
    25
100
AcDbCircle
 10
11.14425
 20
24.003
 30
0.0
 40
0.4999999999999893
  0
CIRCLE
  5
2FB
330
1F
100
AcDbEntity
  8
0
  6
Continuous
 62
     7
370
    25
100
AcDbCircle
 10
7.33425
 20
29.083
 30
0.0
 40
0.8496300000000039
  0
CIRCLE
  5
2FC
330
1F
100
AcDbEntity
  8
0
  6
Continuous
 62
     7
370
    25
100
AcDbCircle
 10
8.60425
 20
31.623
 30
0.0
 40
0.7249999999999979
  0
CIRCLE
  5
300
330
1F
100
AcDbEntity
  8
0
  6
Continuous
 62
     7
370
    25
100
AcDbCircle
 10
18.12925
 20
31.623
 30
0.0
 40
0.7249999999999943
  0
CIRCLE
  5
301
330
1F
100
AcDbEntity
  8
0
  6
Continuous
 62
     7
370
    25
100
AcDbCircle
 10
12.41425
 20
29.083
 30
0.0
 40
2.049779999999998
  0
CIRCLE
  5
302
330
1F
100
AcDbEntity
  8
0
  6
Continuous
 62
     7
370
    25
100
AcDbCircle
 10
10.033
 20
36.068
 30
0.0
 40
1.499999999999998
  0
CIRCLE
  5
303
330
1F
100
AcDbEntity
  8
0
  6
Continuous
 62
     7
370
    25
100
AcDbCircle
 10
14.95425
 20
34.163
 30
0.0
 40
0.7250000000000014
  0
CIRCLE
  5
304
330
1F
100
AcDbEntity
  8
0
  6
Continuous
 62
     7
370
    25
100
AcDbCircle
 10
10.033
 20
20.828
 30
0.0
 40
1.999999999999996
  0
CIRCLE
  5
305
330
1F
100
AcDbEntity
  8
0
  6
Continuous
 62
     7
370
    25
100
AcDbCircle
 10
14.95425
 20
15.113
 30
0.0
 40
0.7250000000000014
  0
CIRCLE
  5
306
330
1F
100
AcDbEntity
  8
0
  6
Continuous
 62
     7
370
    25
100
AcDbCircle
 10
17.3355
 20
15.113
 30
0.0
 40
0.7249999999999979
  0
CIRCLE
  5
307
330
1F
100
AcDbEntity
  8
0
  6
Continuous
 62
     7
370
    25
100
AcDbCircle
 10
10.9855
 20
12.573
 30
0.0
 40
0.7250000000000032
  0
CIRCLE
  5
30F
330
1F
100
AcDbEntity
  8
0
  6
Continuous
 62
     7
370
    25
100
AcDbCircle
 10
7.33425
 20
10.033
 30
0.0
 40
0.8496300000000021
  0
CIRCLE
  5
310
330
1F
100
AcDbEntity
  8
0
  6
Continuous
 62
     7
370
    25
100
AcDbCircle
 10
8.60425
 20
12.573
 30
0.0
 40
0.7250000000000032
  0
CIRCLE
  5
311
330
1F
100
AcDbEntity
  8
0
  6
Continuous
 62
     7
370
    25
100
AcDbCircle
 10
55.4355
 20
34.163
 30
0.0
 40
0.7250000000000085
  0
CIRCLE
  5
312
330
1F
100
AcDbEntity
  8
0
  6
Continuous
 62
     7
370
    25
100
AcDbCircle
 10
52.8955
 20
29.083
 30
0.0
 40
2.049780000000005
  0
CIRCLE
  5
313
330
1F
100
AcDbEntity
  8
0
  6
Continuous
 62
     7
370
    25
100
AcDbCircle
 10
53.213
 20
86.233
 30
0.0
 40
0.8496300000000119
  0
CIRCLE
  5
314
330
1F
100
AcDbEntity
  8
0
  6
Continuous
 62
     7
370
    25
100
AcDbCircle
 10
60.198
 20
72.263
 30
0.0
 40
0.724999999999973
  0
CIRCLE
  5
315
330
1F
100
AcDbEntity
  8
0
  6
Continuous
 62
     7
370
    25
100
AcDbCircle
 10
57.9755
 20
29.083
 30
0.0
 40
0.8496300000000119
  0
CIRCLE
  5
316
330
1F
100
AcDbEntity
  8
0
  6
Continuous
 62
     7
370
    25
100
AcDbCircle
 10
58.6105
 20
50.673
 30
0.0
 40
0.7249999999999943
  0
CIRCLE
  5
317
330
1F
100
AcDbEntity
  8
0
  6
Continuous
 62
     7
370
    25
100
AcDbCircle
 10
57.658
 20
67.183
 30
0.0
 40
2.049780000000005
  0
CIRCLE
  5
318
330
1F
100
AcDbEntity
  8
0
  6
Continuous
 62
     7
370
    25
100
AcDbCircle
 10
56.388
 20
62.103
 30
0.0
 40
0.4999999999999929
  0
CIRCLE
  5
319
330
1F
100
AcDbEntity
  8
0
  6
Continuous
 62
     7
370
    25
100
AcDbCircle
 10
58.928
 20
62.103
 30
0.0
 40
0.4999999999999929
  0
CIRCLE
  5
31A
330
1F
100
AcDbEntity
  8
0
  6
Continuous
 62
     7
370
    25
100
AcDbCircle
 10
97.028
 20
62.103
 30
0.0
 40
0.4999999999999858
  0
CIRCLE
  5
31B
330
1F
100
AcDbEntity
  8
0
  6
Continuous
 62
     7
370
    25
100
AcDbCircle
 10
87.503
 20
81.153
 30
0.0
 40
0.5
  0
CIRCLE
  5
31C
330
1F
100
AcDbEntity
  8
0
  6
Continuous
 62
     7
370
    25
100
AcDbCircle
 10
85.9155
 20
29.083
 30
0.0
 40
0.8496299999999906
  0
CIRCLE
  5
31D
330
1F
100
AcDbEntity
  8
0
  6
Continuous
 62
     7
370
    25
100
AcDbCircle
 10
87.1855
 20
31.623
 30
0.0
 40
0.7249999999999943
  0
CIRCLE
  5
31E
330
1F
100
AcDbEntity
  8
0
  6
Continuous
 62
     7
370
    25
100
AcDbCircle
 10
86.5505
 20
48.133
 30
0.0
 40
0.849630000000019
  0
CIRCLE
  5
31F
330
1F
100
AcDbEntity
  8
0
  6
Continuous
 62
     7
370
    25
100
AcDbCircle
 10
91.948
 20
69.723
 30
0.0
 40
0.7250000000000227
  0
CIRCLE
  5
320
330
1F
100
AcDbEntity
  8
0
  6
Continuous
 62
     7
370
    25
100
AcDbCircle
 10
96.0755
 20
29.083
 30
0.0
 40
0.8496300000000048
  0
CIRCLE
  5
321
330
1F
100
AcDbEntity
  8
0
  6
Continuous
 62
     7
370
    25
100
AcDbCircle
 10
90.9955
 20
29.083
 30
0.0
 40
2.049779999999956
  0
CIRCLE
  5
322
330
1F
100
AcDbEntity
  8
0
  6
Continuous
 62
     7
370
    25
100
AcDbCircle
 10
93.5355
 20
34.163
 30
0.0
 40
0.7249999999999943
  0
CIRCLE
  5
323
330
1F
100
AcDbEntity
  8
0
  6
Continuous
 62
     7
370
    25
100
AcDbCircle
 10
95.4405
 20
48.133
 30
0.0
 40
0.8496300000000048
  0
CIRCLE
  5
324
330
1F
100
AcDbEntity
  8
0
  6
Continuous
 62
     7
370
    25
100
AcDbCircle
 10
82.7405
 20
43.053
 30
0.0
 40
0.5
  0
CIRCLE
  5
325
330
1F
100
AcDbEntity
  8
0
  6
Continuous
 62
     7
370
    25
100
AcDbCircle
 10
77.0255
 20
29.083
 30
0.0
 40
0.849630000000019
  0
CIRCLE
  5
326
330
1F
100
AcDbEntity
  8
0
  6
Continuous
 62
     7
370
    25
100
AcDbCircle
 10
71.628
 20
67.183
 30
0.0
 40
0.8496300000000048
  0
CIRCLE
  5
327
330
1F
100
AcDbEntity
  8
0
  6
Continuous
 62
     7
370
    25
100
AcDbCircle
 10
72.263
 20
86.233
 30
0.0
 40
0.8496299999999763
  0
CIRCLE
  5
328
330
1F
100
AcDbEntity
  8
0
  6
Continuous
 62
     7
370
    25
100
AcDbCircle
 10
81.788
 20
67.183
 30
0.0
 40
0.8496299999999906
  0
CIRCLE
  5
329
330
1F
100
AcDbEntity
  8
0
  6
Continuous
 62
     7
370
    25
100
AcDbCircle
 10
84.963
 20
81.153
 30
0.0
 40
0.5000000000000142
  0
CIRCLE
  5
32A
330
1F
100
AcDbEntity
  8
0
  6
Continuous
 62
     7
370
    25
100
AcDbCircle
 10
82.8802
 20
62.7126
 30
0.0
 40
0.1499999999999915
  0
CIRCLE
  5
32B
330
1F
100
AcDbEntity
  8
0
  6
Continuous
 62
     7
370
    25
100
AcDbCircle
 10
81.4705
 20
48.133
 30
0.0
 40
2.049779999999984
  0
CIRCLE
  5
32C
330
1F
100
AcDbEntity
  8
0
  6
Continuous
 62
     7
370
    25
100
AcDbCircle
 10
77.6605
 20
50.673
 30
0.0
 40
0.7249999999999943
  0
CIRCLE
  5
32D
330
1F
100
AcDbEntity
  8
0
  6
Continuous
 62
     7
370
    25
100
AcDbCircle
 10
76.3905
 20
48.133
 30
0.0
 40
0.849630000000019
  0
CIRCLE
  5
32E
330
1F
100
AcDbEntity
  8
0
  6
Continuous
 62
     7
370
    25
100
AcDbCircle
 10
84.0105
 20
53.213
 30
0.0
 40
0.7250000000000085
  0
CIRCLE
  5
32F
330
1F
100
AcDbEntity
  8
0
  6
Continuous
 62
     7
370
    25
100
AcDbCircle
 10
67.5005
 20
48.133
 30
0.0
 40
0.8496299999999906
  0
CIRCLE
  5
330
330
1F
100
AcDbEntity
  8
0
  6
Continuous
 62
     7
370
    25
100
AcDbCircle
 10
63.6905
 20
43.053
 30
0.0
 40
0.4999999999999929
  0
CIRCLE
  5
331
330
1F
100
AcDbEntity
  8
0
  6
Continuous
 62
     7
370
    25
100
AcDbCircle
 10
66.8655
 20
29.083
 30
0.0
 40
0.849630000000019
  0
CIRCLE
  5
332
330
1F
100
AcDbEntity
  8
0
  6
Continuous
 62
     7
370
    25
100
AcDbCircle
 10
62.738
 20
67.183
 30
0.0
 40
0.8496300000000119
  0
CIRCLE
  5
333
330
1F
100
AcDbEntity
  8
0
  6
Continuous
 62
     7
370
    25
100
AcDbCircle
 10
63.9572
 20
73.2978
 30
0.0
 40
0.349999999999973
  0
CIRCLE
  5
334
330
1F
100
AcDbEntity
  8
0
  6
Continuous
 62
     7
370
    25
100
AcDbCircle
 10
65.913
 20
81.153
 30
0.0
 40
0.5
  0
CIRCLE
  5
335
330
1F
100
AcDbEntity
  8
0
  6
Continuous
 62
     7
370
    25
100
AcDbCircle
 10
62.103
 20
86.233
 30
0.0
 40
0.8496300000000048
  0
CIRCLE
  5
336
330
1F
100
AcDbEntity
  8
0
  6
Continuous
 62
     7
370
    25
100
AcDbCircle
 10
110.998
 20
69.723
 30
0.0
 40
0.7250000000000085
  0
CIRCLE
  5
337
330
1F
100
AcDbEntity
  8
0
  6
Continuous
 62
     7
370
    25
100
AcDbCircle
 10
108.458
 20
46.4058
 30
0.0
 40
0.2999999999999829
  0
CIRCLE
  5
338
330
1F
100
AcDbEntity
  8
0
  6
Continuous
 62
     7
370
    25
100
AcDbCircle
 10
112.5855
 20
34.163
 30
0.0
 40
0.7249999999999801
  0
CIRCLE
  5
339
330
1F
100
AcDbEntity
  8
0
  6
Continuous
 62
     7
370
    25
100
AcDbCircle
 10
110.0455
 20
29.083
 30
0.0
 40
2.049779999999998
  0
CIRCLE
  5
33A
330
1F
100
AcDbEntity
  8
0
  6
Continuous
 62
     7
370
    25
100
AcDbCircle
 10
106.2355
 20
31.623
 30
0.0
 40
0.7249999999999943
  0
CIRCLE
  5
33B
330
1F
100
AcDbEntity
  8
0
  6
Continuous
 62
     7
370
    25
100
AcDbCircle
 10
276.733
 20
29.083
 30
0.0
 40
2.049779999999998
  0
CIRCLE
  5
33C
330
1F
100
AcDbEntity
  8
0
  6
Continuous
 62
     7
370
    25
100
AcDbCircle
 10
276.733
 20
39.878
 30
0.0
 40
2.0
  0
CIRCLE
  5
33D
330
1F
100
AcDbEntity
  8
0
  6
Continuous
 62
     7
370
    25
100
AcDbCircle
 10
162.1155
 20
29.083
 30
0.0
 40
0.849630000000019
  0
CIRCLE
  5
33E
330
1F
100
AcDbEntity
  8
0
  6
Continuous
 62
     7
370
    25
100
AcDbCircle
 10
163.3855
 20
31.623
 30
0.0
 40
0.7250000000000227
  0
CIRCLE
  5
33F
330
1F
100
AcDbEntity
  8
0
  6
Continuous
 62
     7
370
    25
100
AcDbCircle
 10
217.51925
 20
29.083
 30
0.0
 40
0.849630000000019
  0
CIRCLE
  5
340
330
1F
100
AcDbEntity
  8
0
  6
Continuous
 62
     7
370
    25
100
AcDbCircle
 10
208.62925
 20
31.623
 30
0.0
 40
0.7249999999999943
  0
CIRCLE
  5
344
330
1F
100
AcDbEntity
  8
0
  6
Continuous
 62
     7
370
    25
100
AcDbCircle
 10
214.97925
 20
34.163
 30
0.0
 40
0.7249999999999659
  0
CIRCLE
  5
345
330
1F
100
AcDbEntity
  8
0
  6
Continuous
 62
     7
370
    25
100
AcDbCircle
 10
191.3255
 20
29.083
 30
0.0
 40
0.8496299999999906
  0
CIRCLE
  5
346
330
1F
100
AcDbEntity
  8
0
  6
Continuous
 62
     7
370
    25
100
AcDbCircle
 10
186.2455
 20
29.083
 30
0.0
 40
2.049780000000027
  0
CIRCLE
  5
347
330
1F
100
AcDbEntity
  8
0
  6
Continuous
 62
     7
370
    25
100
AcDbCircle
 10
182.4355
 20
31.623
 30
0.0
 40
0.7249999999999943
  0
CIRCLE
  5
348
330
1F
100
AcDbEntity
  8
0
  6
Continuous
 62
     7
370
    25
100
AcDbCircle
 10
188.7855
 20
34.163
 30
0.0
 40
0.7250000000000227
  0
CIRCLE
  5
349
330
1F
100
AcDbEntity
  8
0
  6
Continuous
 62
     7
370
    25
100
AcDbCircle
 10
167.1955
 20
29.083
 30
0.0
 40
2.049779999999998
  0
CIRCLE
  5
34A
330
1F
100
AcDbEntity
  8
0
  6
Continuous
 62
     7
370
    25
100
AcDbCircle
 10
220.5355
 20
31.623
 30
0.0
 40
0.7250000000000227
  0
CIRCLE
  5
34B
330
1F
100
AcDbEntity
  8
0
  6
Continuous
 62
     7
370
    25
100
AcDbCircle
 10
227.67925
 20
31.623
 30
0.0
 40
0.7249999999999943
  0
CIRCLE
  5
34C
330
1F
100
AcDbEntity
  8
0
  6
Continuous
 62
     7
370
    25
100
AcDbCircle
 10
226.8855
 20
34.163
 30
0.0
 40
0.7250000000000227
  0
CIRCLE
  5
34D
330
1F
100
AcDbEntity
  8
0
  6
Continuous
 62
     7
370
    25
100
AcDbCircle
 10
246.72925
 20
31.623
 30
0.0
 40
0.7249999999999659
  0
CIRCLE
  5
34E
330
1F
100
AcDbEntity
  8
0
  6
Continuous
 62
     7
370
    25
100
AcDbCircle
 10
245.45925
 20
29.083
 30
0.0
 40
0.849630000000019
  0
CIRCLE
  5
34F
330
1F
100
AcDbEntity
  8
0
  6
Continuous
 62
     7
370
    25
100
AcDbCircle
 10
238.633
 20
39.878
 30
0.0
 40
1.999999999999943
  0
CIRCLE
  5
353
330
1F
100
AcDbEntity
  8
0
  6
Continuous
 62
     7
370
    25
100
AcDbCircle
 10
243.713
 20
29.083
 30
0.0
 40
0.849630000000019
  0
CIRCLE
  5
354
330
1F
100
AcDbEntity
  8
0
  6
Continuous
 62
     7
370
    25
100
AcDbCircle
 10
234.823
 20
31.623
 30
0.0
 40
0.7249999999999943
  0
CIRCLE
  5
355
330
1F
100
AcDbEntity
  8
0
  6
Continuous
 62
     7
370
    25
100
AcDbCircle
 10
241.173
 20
34.163
 30
0.0
 40
0.7249999999999943
  0
CIRCLE
  5
356
330
1F
100
AcDbEntity
  8
0
  6
Continuous
 62
     7
370
    25
100
AcDbCircle
 10
234.02925
 20
34.163
 30
0.0
 40
0.7250000000000227
  0
CIRCLE
  5
357
330
1F
100
AcDbEntity
  8
0
  6
Continuous
 62
     7
370
    25
100
AcDbCircle
 10
253.07925
 20
34.163
 30
0.0
 40
0.7250000000000227
  0
CIRCLE
  5
358
330
1F
100
AcDbEntity
  8
0
  6
Continuous
 62
     7
370
    25
100
AcDbCircle
 10
253.873
 20
31.623
 30
0.0
 40
0.7249999999999375
  0
CIRCLE
  5
359
330
1F
100
AcDbEntity
  8
0
  6
Continuous
 62
     7
370
    25
100
AcDbCircle
 10
260.223
 20
34.163
 30
0.0
 40
0.7250000000000796
  0
CIRCLE
  5
35A
330
1F
100
AcDbEntity
  8
0
  6
Continuous
 62
     7
370
    25
100
AcDbCircle
 10
259.0292
 20
38.862
 30
0.0
 40
0.1499999999999773
  0
CIRCLE
  5
35B
330
1F
100
AcDbEntity
  8
0
  6
Continuous
 62
     7
370
    25
100
AcDbCircle
 10
272.923
 20
31.623
 30
0.0
 40
0.7249999999999659
  0
CIRCLE
  5
35C
330
1F
100
AcDbEntity
  8
0
  6
Continuous
 62
     7
370
    25
100
AcDbCircle
 10
262.763
 20
29.083
 30
0.0
 40
0.8496300000000474
  0
CIRCLE
  5
35D
330
1F
100
AcDbEntity
  8
0
  6
Continuous
 62
     7
370
    25
100
AcDbCircle
 10
271.653
 20
29.083
 30
0.0
 40
0.8496300000000474
  0
CIRCLE
  5
35E
330
1F
100
AcDbEntity
  8
0
  6
Continuous
 62
     7
370
    25
100
AcDbCircle
 10
158.9405
 20
43.053
 30
0.0
 40
0.5
  0
CIRCLE
  5
35F
330
1F
100
AcDbEntity
  8
0
  6
Continuous
 62
     7
370
    25
100
AcDbCircle
 10
278.003
 20
43.053
 30
0.0
 40
0.5
  0
CIRCLE
  5
360
330
1F
100
AcDbEntity
  8
0
  6
Continuous
 62
     7
370
    25
100
AcDbCircle
 10
213.5505
 20
43.053
 30
0.0
 40
0.5000000000000284
  0
CIRCLE
  5
361
330
1F
100
AcDbEntity
  8
0
  6
Continuous
 62
     7
370
    25
100
AcDbCircle
 10
227.99675
 20
43.053
 30
0.0
 40
0.5
  0
CIRCLE
  5
362
330
1F
100
AcDbEntity
  8
0
  6
Continuous
 62
     7
370
    25
100
AcDbCircle
 10
197.0405
 20
43.053
 30
0.0
 40
0.5000000000000284
  0
CIRCLE
  5
363
330
1F
100
AcDbEntity
  8
0
  6
Continuous
 62
     7
370
    25
100
AcDbCircle
 10
194.5005
 20
43.053
 30
0.0
 40
0.5
  0
CIRCLE
  5
364
330
1F
100
AcDbEntity
  8
0
  6
Continuous
 62
     7
370
    25
100
AcDbCircle
 10
251.6505
 20
43.053
 30
0.0
 40
0.5000000000000284
  0
CIRCLE
  5
365
330
1F
100
AcDbEntity
  8
0
  6
Continuous
 62
     7
370
    25
100
AcDbCircle
 10
235.1405
 20
43.053
 30
0.0
 40
0.5
  0
CIRCLE
  5
366
330
1F
100
AcDbEntity
  8
0
  6
Continuous
 62
     7
370
    25
100
AcDbCircle
 10
266.09675
 20
43.053
 30
0.0
 40
0.5
  0
CIRCLE
  5
367
330
1F
100
AcDbEntity
  8
0
  6
Continuous
 62
     7
370
    25
100
AcDbCircle
 10
275.463
 20
43.053
 30
0.0
 40
0.5
  0
CIRCLE
  5
368
330
1F
100
AcDbEntity
  8
0
  6
Continuous
 62
     7
370
    25
100
AcDbCircle
 10
258.953
 20
43.053
 30
0.0
 40
0.5
  0
CIRCLE
  5
369
330
1F
100
AcDbEntity
  8
0
  6
Continuous
 62
     7
370
    25
100
AcDbCircle
 10
256.413
 20
43.053
 30
0.0
 40
0.5
  0
CIRCLE
  5
36A
330
1F
100
AcDbEntity
  8
0
  6
Continuous
 62
     7
370
    25
100
AcDbCircle
 10
254.1905
 20
43.053
 30
0.0
 40
0.5000000000000284
  0
CIRCLE
  5
36B
330
1F
100
AcDbEntity
  8
0
  6
Continuous
 62
     7
370
    25
100
AcDbCircle
 10
217.20175
 20
77.978
 30
0.0
 40
2.000000000000028
  0
CIRCLE
  5
36C
330
1F
100
AcDbEntity
  8
0
  6
Continuous
 62
     7
370
    25
100
AcDbCircle
 10
201.803
 20
81.153
 30
0.0
 40
0.5000000000000284
  0
CIRCLE
  5
36D
330
1F
100
AcDbEntity
  8
0
  6
Continuous
 62
     7
370
    25
100
AcDbCircle
 10
209.7405
 20
48.133
 30
0.0
 40
0.849630000000019
  0
CIRCLE
  5
36E
330
1F
100
AcDbEntity
  8
0
  6
Continuous
 62
     7
370
    25
100
AcDbCircle
 10
215.138
 20
67.183
 30
0.0
 40
0.849630000000019
  0
CIRCLE
  5
36F
330
1F
100
AcDbEntity
  8
0
  6
Continuous
 62
     7
370
    25
100
AcDbCircle
 10
212.598
 20
72.263
 30
0.0
 40
0.7249999999999659
  0
CIRCLE
  5
370
330
1F
100
AcDbEntity
  8
0
  6
Continuous
 62
     7
370
    25
100
AcDbCircle
 10
214.8205
 20
55.118
 30
0.0
 40
1.5
  0
CIRCLE
  5
371
330
1F
100
AcDbEntity
  8
0
  6
Continuous
 62
     7
370
    25
100
AcDbCircle
 10
214.8205
 20
48.133
 30
0.0
 40
2.049779999999998
  0
CIRCLE
  5
372
330
1F
100
AcDbEntity
  8
0
  6
Continuous
 62
     7
370
    25
100
AcDbCircle
 10
191.008
 20
67.183
 30
0.0
 40
2.049779999999998
  0
CIRCLE
  5
373
330
1F
100
AcDbEntity
  8
0
  6
Continuous
 62
     7
370
    25
100
AcDbCircle
 10
192.278
 20
62.103
 30
0.0
 40
0.4999999999999716
  0
CIRCLE
  5
374
330
1F
100
AcDbEntity
  8
0
  6
Continuous
 62
     7
370
    25
100
AcDbCircle
 10
196.088
 20
67.183
 30
0.0
 40
0.849630000000019
  0
CIRCLE
  5
375
330
1F
100
AcDbEntity
  8
0
  6
Continuous
 62
     7
370
    25
100
AcDbCircle
 10
191.9605
 20
50.673
 30
0.0
 40
0.7250000000000227
  0
CIRCLE
  5
376
330
1F
100
AcDbEntity
  8
0
  6
Continuous
 62
     7
370
    25
100
AcDbCircle
 10
195.7705
 20
48.133
 30
0.0
 40
2.049779999999998
  0
CIRCLE
  5
377
330
1F
100
AcDbEntity
  8
0
  6
Continuous
 62
     7
370
    25
100
AcDbCircle
 10
187.198
 20
69.723
 30
0.0
 40
0.7250000000000227
  0
CIRCLE
  5
378
330
1F
100
AcDbEntity
  8
0
  6
Continuous
 62
     7
370
    25
100
AcDbCircle
 10
185.928
 20
67.183
 30
0.0
 40
0.8496299999999621
  0
CIRCLE
  5
379
330
1F
100
AcDbEntity
  8
0
  6
Continuous
 62
     7
370
    25
100
AcDbCircle
 10
157.6705
 20
48.133
 30
0.0
 40
2.049780000000027
  0
CIRCLE
  5
37A
330
1F
100
AcDbEntity
  8
0
  6
Continuous
 62
     7
370
    25
100
AcDbCircle
 10
172.9105
 20
50.673
 30
0.0
 40
0.7250000000000227
  0
CIRCLE
  5
37B
330
1F
100
AcDbEntity
  8
0
  6
Continuous
 62
     7
370
    25
100
AcDbCircle
 10
171.6405
 20
48.133
 30
0.0
 40
0.849630000000019
  0
CIRCLE
  5
37C
330
1F
100
AcDbEntity
  8
0
  6
Continuous
 62
     7
370
    25
100
AcDbCircle
 10
176.7205
 20
48.133
 30
0.0
 40
2.049779999999998
  0
CIRCLE
  5
37D
330
1F
100
AcDbEntity
  8
0
  6
Continuous
 62
     7
370
    25
100
AcDbCircle
 10
181.8005
 20
48.133
 30
0.0
 40
0.849630000000019
  0
CIRCLE
  5
37E
330
1F
100
AcDbEntity
  8
0
  6
Continuous
 62
     7
370
    25
100
AcDbCircle
 10
182.753
 20
81.153
 30
0.0
 40
0.5000000000000284
  0
CIRCLE
  5
37F
330
1F
100
AcDbEntity
  8
0
  6
Continuous
 62
     7
370
    25
100
AcDbCircle
 10
174.498
 20
72.263
 30
0.0
 40
0.7249999999999659
  0
CIRCLE
  5
380
330
1F
100
AcDbEntity
  8
0
  6
Continuous
 62
     7
370
    25
100
AcDbCircle
 10
157.353
 20
86.233
 30
0.0
 40
0.849630000000019
  0
CIRCLE
  5
388
330
1F
100
AcDbEntity
  8
0
  6
Continuous
 62
     7
370
    25
100
AcDbCircle
 10
227.838
 20
81.153
 30
0.0
 40
0.5000000000000284
  0
CIRCLE
  5
389
330
1F
100
AcDbEntity
  8
0
  6
Continuous
 62
     7
370
    25
100
AcDbCircle
 10
257.683
 20
86.233
 30
0.0
 40
2.049779999999998
  0
CIRCLE
  5
38A
330
1F
100
AcDbEntity
  8
0
  6
Continuous
 62
     7
370
    25
100
AcDbCircle
 10
276.733
 20
86.233
 30
0.0
 40
2.049779999999998
  0
CIRCLE
  5
38B
330
1F
100
AcDbEntity
  8
0
  6
Continuous
 62
     7
370
    25
100
AcDbCircle
 10
282.448
 20
88.773
 30
0.0
 40
0.7250000000000227
  0
CIRCLE
  5
38C
330
1F
100
AcDbEntity
  8
0
  6
Continuous
 62
     7
370
    25
100
AcDbCircle
 10
278.003
 20
24.003
 30
0.0
 40
0.5
  0
CIRCLE
  5
38D
330
1F
100
AcDbEntity
  8
0
  6
Continuous
 62
     7
370
    25
100
AcDbCircle
 10
149.4155
 20
24.003
 30
0.0
 40
0.5
  0
CIRCLE
  5
38E
330
1F
100
AcDbEntity
  8
0
  6
Continuous
 62
     7
370
    25
100
AcDbCircle
 10
108.7755
 20
24.003
 30
0.0
 40
0.4999999999999858
  0
CIRCLE
  5
38F
330
1F
100
AcDbEntity
  8
0
  6
Continuous
 62
     7
370
    25
100
AcDbCircle
 10
127.8255
 20
24.003
 30
0.0
 40
0.5000000000000142
  0
CIRCLE
  5
390
330
1F
100
AcDbEntity
  8
0
  6
Continuous
 62
     7
370
    25
100
AcDbCircle
 10
111.3155
 20
24.003
 30
0.0
 40
0.5
  0
CIRCLE
  5
391
330
1F
100
AcDbEntity
  8
0
  6
Continuous
 62
     7
370
    25
100
AcDbCircle
 10
146.8755
 20
24.003
 30
0.0
 40
0.4999999999999716
  0
CIRCLE
  5
392
330
1F
100
AcDbEntity
  8
0
  6
Continuous
 62
     7
370
    25
100
AcDbCircle
 10
92.2655
 20
24.003
 30
0.0
 40
0.4999999999999858
  0
CIRCLE
  5
393
330
1F
100
AcDbEntity
  8
0
  6
Continuous
 62
     7
370
    25
100
AcDbCircle
 10
89.7255
 20
24.003
 30
0.0
 40
0.5
  0
CIRCLE
  5
394
330
1F
100
AcDbEntity
  8
0
  6
Continuous
 62
     7
370
    25
100
AcDbCircle
 10
54.1655
 20
24.003
 30
0.0
 40
0.5
  0
CIRCLE
  5
395
330
1F
100
AcDbEntity
  8
0
  6
Continuous
 62
     7
370
    25
100
AcDbCircle
 10
184.9755
 20
24.003
 30
0.0
 40
0.4999999999999716
  0
CIRCLE
  5
396
330
1F
100
AcDbEntity
  8
0
  6
Continuous
 62
     7
370
    25
100
AcDbCircle
 10
187.5155
 20
24.003
 30
0.0
 40
0.5
  0
CIRCLE
  5
397
330
1F
100
AcDbEntity
  8
0
  6
Continuous
 62
     7
370
    25
100
AcDbCircle
 10
165.9255
 20
24.003
 30
0.0
 40
0.4999999999999716
  0
CIRCLE
  5
398
330
1F
100
AcDbEntity
  8
0
  6
Continuous
 62
     7
370
    25
100
AcDbCircle
 10
213.70925
 20
24.003
 30
0.0
 40
0.5
  0
CIRCLE
  5
399
330
1F
100
AcDbEntity
  8
0
  6
Continuous
 62
     7
370
    25
100
AcDbCircle
 10
206.5655
 20
24.003
 30
0.0
 40
0.5
  0
CIRCLE
  5
39A
330
1F
100
AcDbEntity
  8
0
  6
Continuous
 62
     7
370
    25
100
AcDbCircle
 10
204.0255
 20
24.003
 30
0.0
 40
0.5
  0
CIRCLE
  5
39B
330
1F
100
AcDbEntity
  8
0
  6
Continuous
 62
     7
370
    25
100
AcDbCircle
 10
223.0755
 20
24.003
 30
0.0
 40
0.5
  0
CIRCLE
  5
39C
330
1F
100
AcDbEntity
  8
0
  6
Continuous
 62
     7
370
    25
100
AcDbCircle
 10
237.363
 20
24.003
 30
0.0
 40
0.5000000000000284
  0
CIRCLE
  5
39D
330
1F
100
AcDbEntity
  8
0
  6
Continuous
 62
     7
370
    25
100
AcDbCircle
 10
239.903
 20
24.003
 30
0.0
 40
0.4999999999999716
  0
CIRCLE
  5
39E
330
1F
100
AcDbEntity
  8
0
  6
Continuous
 62
     7
370
    25
100
AcDbCircle
 10
232.75925
 20
24.003
 30
0.0
 40
0.5000000000000284
  0
CIRCLE
  5
39F
330
1F
100
AcDbEntity
  8
0
  6
Continuous
 62
     7
370
    25
100
AcDbCircle
 10
225.6155
 20
24.003
 30
0.0
 40
0.5
  0
CIRCLE
  5
3A0
330
1F
100
AcDbEntity
  8
0
  6
Continuous
 62
     7
370
    25
100
AcDbCircle
 10
251.80925
 20
24.003
 30
0.0
 40
0.5
  0
CIRCLE
  5
3A1
330
1F
100
AcDbEntity
  8
0
  6
Continuous
 62
     7
370
    25
100
AcDbCircle
 10
249.26925
 20
24.003
 30
0.0
 40
0.5000000000000284
  0
CIRCLE
  5
3A2
330
1F
100
AcDbEntity
  8
0
  6
Continuous
 62
     7
370
    25
100
AcDbCircle
 10
256.413
 20
24.003
 30
0.0
 40
0.5
  0
CIRCLE
  5
3A3
330
1F
100
AcDbEntity
  8
0
  6
Continuous
 62
     7
370
    25
100
AcDbCircle
 10
281.813
 20
10.033
 30
0.0
 40
0.8496300000001042
  0
CIRCLE
  5
3A4
330
1F
100
AcDbEntity
  8
0
  6
Continuous
 62
     7
370
    25
100
AcDbCircle
 10
148.463
 20
10.033
 30
0.0
 40
0.849630000000019
  0
CIRCLE
  5
3A5
330
1F
100
AcDbEntity
  8
0
  6
Continuous
 62
     7
370
    25
100
AcDbCircle
 10
138.303
 20
10.033
 30
0.0
 40
0.8496299999999621
  0
CIRCLE
  5
3A6
330
1F
100
AcDbEntity
  8
0
  6
Continuous
 62
     7
370
    25
100
AcDbCircle
 10
143.383
 20
10.033
 30
0.0
 40
2.049779999999998
  0
CIRCLE
  5
3A7
330
1F
100
AcDbEntity
  8
0
  6
Continuous
 62
     7
370
    25
100
AcDbCircle
 10
145.923
 20
15.113
 30
0.0
 40
0.7249999999999943
  0
CIRCLE
  5
3A8
330
1F
100
AcDbEntity
  8
0
  6
Continuous
 62
     7
370
    25
100
AcDbCircle
 10
138.6205
 20
18.288
 30
0.0
 40
2.0
  0
CIRCLE
  5
3A9
330
1F
100
AcDbEntity
  8
0
  6
Continuous
 62
     7
370
    25
100
AcDbCircle
 10
200.533
 20
18.288
 30
0.0
 40
1.999999999999972
  0
CIRCLE
  5
3AA
330
1F
100
AcDbEntity
  8
0
  6
Continuous
 62
     7
370
    25
100
AcDbCircle
 10
196.723
 20
12.573
 30
0.0
 40
0.7249999999999659
  0
CIRCLE
  5
3AB
330
1F
100
AcDbEntity
  8
0
  6
Continuous
 62
     7
370
    25
100
AcDbCircle
 10
194.34175
 20
12.573
 30
0.0
 40
0.7249999999999943
  0
CIRCLE
  5
3AC
330
1F
100
AcDbEntity
  8
0
  6
Continuous
 62
     7
370
    25
100
AcDbCircle
 10
193.07175
 20
10.033
 30
0.0
 40
0.8496300000000474
  0
CIRCLE
  5
3AD
330
1F
100
AcDbEntity
  8
0
  6
Continuous
 62
     7
370
    25
100
AcDbCircle
 10
200.69175
 20
15.113
 30
0.0
 40
0.7249999999999659
  0
CIRCLE
  5
3AE
330
1F
100
AcDbEntity
  8
0
  6
Continuous
 62
     7
370
    25
100
AcDbCircle
 10
169.89425
 20
10.033
 30
0.0
 40
0.849630000000019
  0
CIRCLE
  5
3AF
330
1F
100
AcDbEntity
  8
0
  6
Continuous
 62
     7
370
    25
100
AcDbCircle
 10
161.00425
 20
12.573
 30
0.0
 40
0.7249999999999943
  0
CIRCLE
  5
3B4
330
1F
100
AcDbEntity
  8
0
  6
Continuous
 62
     7
370
    25
100
AcDbCircle
 10
269.90675
 20
48.133
 30
0.0
 40
0.8496300000001042
  0
CIRCLE
  5
3B5
330
1F
100
AcDbEntity
  8
0
  6
Continuous
 62
     7
370
    25
100
AcDbCircle
 10
271.653
 20
48.133
 30
0.0
 40
0.8496300000000474
  0
CIRCLE
  5
3B6
330
1F
100
AcDbEntity
  8
0
  6
Continuous
 62
     7
370
    25
100
AcDbCircle
 10
261.01675
 20
50.673
 30
0.0
 40
0.7249999999999659
  0
CIRCLE
  5
3BA
330
1F
100
AcDbEntity
  8
0
  6
Continuous
 62
     7
370
    25
100
AcDbCircle
 10
268.478
 20
81.153
 30
0.0
 40
0.5
  0
CIRCLE
  5
3BB
330
1F
100
AcDbEntity
  8
0
  6
Continuous
 62
     7
370
    25
100
AcDbCircle
 10
260.223
 20
72.263
 30
0.0
 40
0.7250000000001364
  0
CIRCLE
  5
3C0
330
1F
100
AcDbEntity
  8
0
  6
Continuous
 62
     7
370
    25
100
AcDbCircle
 10
279.273
 20
72.263
 30
0.0
 40
0.7250000000000796
  0
CIRCLE
  5
3C1
330
1F
100
AcDbEntity
  8
0
  6
Continuous
 62
     7
370
    25
100
AcDbCircle
 10
276.733
 20
67.183
 30
0.0
 40
2.049779999999998
  0
CIRCLE
  5
3C9
330
1F
100
AcDbEntity
  8
0
  6
Continuous
 62
     7
370
    25
100
AcDbCircle
 10
278.003
 20
62.103
 30
0.0
 40
0.5
  0
CIRCLE
  5
3CA
330
1F
100
AcDbEntity
  8
0
  6
Continuous
 62
     7
370
    25
100
AcDbCircle
 10
275.463
 20
81.153
 30
0.0
 40
0.5
  0
CIRCLE
  5
3CB
330
1F
100
AcDbEntity
  8
0
  6
Continuous
 62
     7
370
    25
100
AcDbCircle
 10
274.35175
 20
77.978
 30
0.0
 40
1.999999999999943
  0
CIRCLE
  5
3CF
330
1F
100
AcDbEntity
  8
0
  6
Continuous
 62
     7
370
    25
100
AcDbCircle
 10
142.113
 20
81.153
 30
0.0
 40
0.5000000000000284
  0
CIRCLE
  5
3D0
330
1F
100
AcDbEntity
  8
0
  6
Continuous
 62
     7
370
    25
100
AcDbCircle
 10
125.603
 20
81.153
 30
0.0
 40
0.5
  0
CIRCLE
  5
3D1
330
1F
100
AcDbEntity
  8
0
  6
Continuous
 62
     7
370
    25
100
AcDbCircle
 10
123.063
 20
81.153
 30
0.0
 40
0.5
  0
CIRCLE
  5
3D2
330
1F
100
AcDbEntity
  8
0
  6
Continuous
 62
     7
370
    25
100
AcDbCircle
 10
144.653
 20
81.153
 30
0.0
 40
0.5000000000000284
  0
CIRCLE
  5
3D3
330
1F
100
AcDbEntity
  8
0
  6
Continuous
 62
     7
370
    25
100
AcDbCircle
 10
163.703
 20
81.153
 30
0.0
 40
0.5000000000000284
  0
CIRCLE
  5
3D4
330
1F
100
AcDbEntity
  8
0
  6
Continuous
 62
     7
370
    25
100
AcDbCircle
 10
116.078
 20
62.103
 30
0.0
 40
0.4999999999999858
  0
CIRCLE
  5
3D5
330
1F
100
AcDbEntity
  8
0
  6
Continuous
 62
     7
370
    25
100
AcDbCircle
 10
132.588
 20
62.103
 30
0.0
 40
0.5
  0
CIRCLE
  5
3D6
330
1F
100
AcDbEntity
  8
0
  6
Continuous
 62
     7
370
    25
100
AcDbCircle
 10
135.128
 20
62.103
 30
0.0
 40
0.4999999999999716
  0
CIRCLE
  5
3D7
330
1F
100
AcDbEntity
  8
0
  6
Continuous
 62
     7
370
    25
100
AcDbCircle
 10
119.888
 20
67.183
 30
0.0
 40
0.8496300000000048
  0
CIRCLE
  5
3D8
330
1F
100
AcDbEntity
  8
0
  6
Continuous
 62
     7
370
    25
100
AcDbCircle
 10
133.5405
 20
48.133
 30
0.0
 40
0.849630000000019
  0
CIRCLE
  5
3D9
330
1F
100
AcDbEntity
  8
0
  6
Continuous
 62
     7
370
    25
100
AcDbCircle
 10
129.0955
 20
29.083
 30
0.0
 40
2.049779999999998
  0
CIRCLE
  5
3DA
330
1F
100
AcDbEntity
  8
0
  6
Continuous
 62
     7
370
    25
100
AcDbCircle
 10
134.1755
 20
29.083
 30
0.0
 40
0.849630000000019
  0
CIRCLE
  5
3DB
330
1F
100
AcDbEntity
  8
0
  6
Continuous
 62
     7
370
    25
100
AcDbCircle
 10
131.6355
 20
34.163
 30
0.0
 40
0.7250000000000227
  0
CIRCLE
  5
3DC
330
1F
100
AcDbEntity
  8
0
  6
Continuous
 62
     7
370
    25
100
AcDbCircle
 10
137.3505
 20
43.053
 30
0.0
 40
0.5
  0
CIRCLE
  5
3DD
330
1F
100
AcDbEntity
  8
0
  6
Continuous
 62
     7
370
    25
100
AcDbCircle
 10
125.2855
 20
31.623
 30
0.0
 40
0.7249999999999943
  0
CIRCLE
  5
3DE
330
1F
100
AcDbEntity
  8
0
  6
Continuous
 62
     7
370
    25
100
AcDbCircle
 10
124.0155
 20
29.083
 30
0.0
 40
0.849630000000019
  0
CIRCLE
  5
3DF
330
1F
100
AcDbEntity
  8
0
  6
Continuous
 62
     7
370
    25
100
AcDbCircle
 10
119.5705
 20
48.133
 30
0.0
 40
2.049779999999998
  0
CIRCLE
  5
3E0
330
1F
100
AcDbEntity
  8
0
  6
Continuous
 62
     7
370
    25
100
AcDbCircle
 10
118.3005
 20
43.053
 30
0.0
 40
0.5
  0
CIRCLE
  5
3E1
330
1F
100
AcDbEntity
  8
0
  6
Continuous
 62
     7
370
    25
100
AcDbCircle
 10
120.8405
 20
43.053
 30
0.0
 40
0.5
  0
CIRCLE
  5
3E2
330
1F
100
AcDbEntity
  8
0
  6
Continuous
 62
     7
370
    25
100
AcDbCircle
 10
114.808
 20
46.4058
 30
0.0
 40
0.3000000000000114
  0
CIRCLE
  5
3E3
330
1F
100
AcDbEntity
  8
0
  6
Continuous
 62
     7
370
    25
100
AcDbCircle
 10
113.538
 20
46.4058
 30
0.0
 40
0.2999999999999972
  0
CIRCLE
  5
3E4
330
1F
100
AcDbEntity
  8
0
  6
Continuous
 62
     7
370
    25
100
AcDbCircle
 10
112.268
 20
46.4058
 30
0.0
 40
0.2999999999999829
  0
CIRCLE
  5
3E5
330
1F
100
AcDbEntity
  8
0
  6
Continuous
 62
     7
370
    25
100
AcDbCircle
 10
143.7005
 20
48.133
 30
0.0
 40
0.8496299999999906
  0
CIRCLE
  5
3E6
330
1F
100
AcDbEntity
  8
0
  6
Continuous
 62
     7
370
    25
100
AcDbCircle
 10
139.8905
 20
43.053
 30
0.0
 40
0.5
  0
CIRCLE
  5
3E7
330
1F
100
AcDbEntity
  8
0
  6
Continuous
 62
     7
370
    25
100
AcDbCircle
 10
150.6855
 20
34.163
 30
0.0
 40
0.7249999999999943
  0
CIRCLE
  5
3E8
330
1F
100
AcDbEntity
  8
0
  6
Continuous
 62
     7
370
    25
100
AcDbCircle
 10
144.3355
 20
31.623
 30
0.0
 40
0.7250000000000227
  0
CIRCLE
  5
3E9
330
1F
100
AcDbEntity
  8
0
  6
Continuous
 62
     7
370
    25
100
AcDbCircle
 10
143.0655
 20
29.083
 30
0.0
 40
0.8496299999999906
  0
CIRCLE
  5
3EA
330
1F
100
AcDbEntity
  8
0
  6
Continuous
 62
     7
370
    25
100
AcDbCircle
 10
148.1455
 20
29.083
 30
0.0
 40
2.049779999999998
  0
CIRCLE
  5
3EB
330
1F
100
AcDbEntity
  8
0
  6
Continuous
 62
     7
370
    25
100
AcDbCircle
 10
141.1605
 20
53.213
 30
0.0
 40
0.7250000000000227
  0
CIRCLE
  5
3EC
330
1F
100
AcDbEntity
  8
0
  6
Continuous
 62
     7
370
    25
100
AcDbCircle
 10
155.448
 20
72.263
 30
0.0
 40
0.7249999999999943
  0
CIRCLE
  5
3ED
330
1F
100
AcDbEntity
  8
0
  6
Continuous
 62
     7
370
    25
100
AcDbCircle
 10
166.878
 20
67.183
 30
0.0
 40
0.8496299999999621
  0
CIRCLE
  5
3EE
330
1F
100
AcDbEntity
  8
0
  6
Continuous
 62
     7
370
    25
100
AcDbCircle
 10
147.828
 20
67.183
 30
0.0
 40
0.8496300000000474
  0
CIRCLE
  5
3EF
330
1F
100
AcDbEntity
  8
0
  6
Continuous
 62
     7
370
    25
100
AcDbCircle
 10
140.1318
 20
71.2978
 30
0.0
 40
0.3499999999999659
  0
CIRCLE
  5
3F0
330
1F
100
AcDbEntity
  8
0
  6
Continuous
 62
     7
370
    25
100
AcDbCircle
 10
219.2655
 20
29.083
 30
0.0
 40
0.8496299999999906
  0
CIRCLE
  5
3F1
330
1F
100
AcDbEntity
  8
0
  6
Continuous
 62
     7
370
    25
100
AcDbCircle
 10
200.8505
 20
48.133
 30
0.0
 40
0.849630000000019
  0
CIRCLE
  5
3F5
330
1F
100
AcDbEntity
  8
0
  6
Continuous
 62
     7
370
    25
100
AcDbCircle
 10
232.6005
 20
43.053
 30
0.0
 40
0.5
  0
CIRCLE
  5
3F9
330
1F
100
AcDbEntity
  8
0
  6
Continuous
 62
     7
370
    25
100
AcDbCircle
 10
99.2505
 20
43.053
 30
0.0
 40
0.5
  0
CIRCLE
  5
3FA
330
1F
100
AcDbEntity
  8
0
  6
Continuous
 62
     7
370
    25
100
AcDbCircle
 10
278.003
 20
81.153
 30
0.0
 40
0.5
  0
CIRCLE
  5
3FB
330
1F
100
AcDbEntity
  8
0
  6
Continuous
 62
     7
370
    25
100
AcDbCircle
 10
271.81175
 20
53.848
 30
0.0
 40
0.7249999999999659
  0
CIRCLE
  5
3FC
330
1F
100
AcDbEntity
  8
0
  6
Continuous
 62
     7
370
    25
100
AcDbCircle
 10
270.7005
 20
62.103
 30
0.0
 40
0.5
  0
CIRCLE
  5
3FD
330
1F
100
AcDbEntity
  8
0
  6
Continuous
 62
     7
370
    25
100
AcDbCircle
 10
255.30175
 20
77.978
 30
0.0
 40
1.999999999999972
  0
CIRCLE
  5
3FE
330
1F
100
AcDbEntity
  8
0
  6
Continuous
 62
     7
370
    25
100
AcDbCircle
 10
106.553
 20
81.153
 30
0.0
 40
0.5
  0
CIRCLE
  5
3FF
330
1F
100
AcDbEntity
  8
0
  6
Continuous
 62
     7
370
    25
100
AcDbCircle
 10
104.013
 20
81.153
 30
0.0
 40
0.5
  0
CIRCLE
  5
400
330
1F
100
AcDbEntity
  8
0
  6
Continuous
 62
     7
370
    25
100
AcDbCircle
 10
237.363
 20
81.153
 30
0.0
 40
0.5000000000000284
  0
CIRCLE
  5
401
330
1F
100
AcDbEntity
  8
0
  6
Continuous
 62
     7
370
    25
100
AcDbCircle
 10
258.953
 20
81.153
 30
0.0
 40
0.5
  0
CIRCLE
  5
402
330
1F
100
AcDbEntity
  8
0
  6
Continuous
 62
     7
370
    25
100
AcDbCircle
 10
256.413
 20
81.153
 30
0.0
 40
0.5
  0
CIRCLE
  5
403
330
1F
100
AcDbEntity
  8
0
  6
Continuous
 62
     7
370
    25
100
AcDbCircle
 10
265.938
 20
81.153
 30
0.0
 40
0.5
  0
CIRCLE
  5
404
330
1F
100
AcDbEntity
  8
0
  6
Continuous
 62
     7
370
    25
100
AcDbCircle
 10
230.378
 20
81.153
 30
0.0
 40
0.5000000000000284
  0
CIRCLE
  5
405
330
1F
100
AcDbEntity
  8
0
  6
Continuous
 62
     7
370
    25
100
AcDbCircle
 10
218.313
 20
81.153
 30
0.0
 40
0.5000000000000284
  0
CIRCLE
  5
406
330
1F
100
AcDbEntity
  8
0
  6
Continuous
 62
     7
370
    25
100
AcDbCircle
 10
199.263
 20
81.153
 30
0.0
 40
0.5
  0
CIRCLE
  5
407
330
1F
100
AcDbEntity
  8
0
  6
Continuous
 62
     7
370
    25
100
AcDbCircle
 10
100.5205
 20
48.133
 30
0.0
 40
2.049779999999984
  0
CIRCLE
  5
408
330
1F
100
AcDbEntity
  8
0
  6
Continuous
 62
     7
370
    25
100
AcDbCircle
 10
103.0605
 20
53.213
 30
0.0
 40
0.7250000000000085
  0
CIRCLE
  5
409
330
1F
100
AcDbEntity
  8
0
  6
Continuous
 62
     7
370
    25
100
AcDbCircle
 10
109.728
 20
67.183
 30
0.0
 40
0.8496299999999906
  0
CIRCLE
  5
40A
330
1F
100
AcDbEntity
  8
0
  6
Continuous
 62
     7
370
    25
100
AcDbCircle
 10
258.953
 20
62.103
 30
0.0
 40
0.5
  0
CIRCLE
  5
40B
330
1F
100
AcDbEntity
  8
0
  6
Continuous
 62
     7
370
    25
100
AcDbCircle
 10
266.8905
 20
67.183
 30
0.0
 40
0.8496300000000474
  0
CIRCLE
  5
40C
330
1F
100
AcDbEntity
  8
0
  6
Continuous
 62
     7
370
    25
100
AcDbCircle
 10
113.538
 20
62.103
 30
0.0
 40
0.4999999999999858
  0
CIRCLE
  5
40D
330
1F
100
AcDbEntity
  8
0
  6
Continuous
 62
     7
370
    25
100
AcDbCircle
 10
253.873
 20
69.723
 30
0.0
 40
0.7249999999999375
  0
CIRCLE
  5
411
330
1F
100
AcDbEntity
  8
0
  6
Continuous
 62
     7
370
    25
100
AcDbCircle
 10
256.413
 20
62.103
 30
0.0
 40
0.5
  0
CIRCLE
  5
412
330
1F
100
AcDbEntity
  8
0
  6
Continuous
 62
     7
370
    25
100
AcDbCircle
 10
114.808
 20
67.183
 30
0.0
 40
2.049779999999998
  0
CIRCLE
  5
413
330
1F
100
AcDbEntity
  8
0
  6
Continuous
 62
     7
370
    25
100
AcDbCircle
 10
117.348
 20
72.263
 30
0.0
 40
0.7249999999999801
  0
CIRCLE
  5
414
330
1F
100
AcDbEntity
  8
0
  6
Continuous
 62
     7
370
    25
100
AcDbCircle
 10
130.048
 20
69.723
 30
0.0
 40
0.7249999999999943
  0
CIRCLE
  5
415
330
1F
100
AcDbEntity
  8
0
  6
Continuous
 62
     7
370
    25
100
AcDbCircle
 10
210.058
 20
67.183
 30
0.0
 40
2.049779999999998
  0
CIRCLE
  5
416
330
1F
100
AcDbEntity
  8
0
  6
Continuous
 62
     7
370
    25
100
AcDbCircle
 10
208.788
 20
62.103
 30
0.0
 40
0.5
  0
CIRCLE
  5
417
330
1F
100
AcDbEntity
  8
0
  6
Continuous
 62
     7
370
    25
100
AcDbCircle
 10
211.328
 20
62.103
 30
0.0
 40
0.5
  0
CIRCLE
  5
418
330
1F
100
AcDbEntity
  8
0
  6
Continuous
 62
     7
370
    25
100
AcDbCircle
 10
204.978
 20
67.183
 30
0.0
 40
0.849630000000019
  0
CIRCLE
  5
419
330
1F
100
AcDbEntity
  8
0
  6
Continuous
 62
     7
370
    25
100
AcDbCircle
 10
193.548
 20
72.263
 30
0.0
 40
0.7249999999999943
  0
CIRCLE
  5
41A
330
1F
100
AcDbEntity
  8
0
  6
Continuous
 62
     7
370
    25
100
AcDbCircle
 10
224.028
 20
67.183
 30
0.0
 40
0.8496299999999906
  0
CIRCLE
  5
41B
330
1F
100
AcDbEntity
  8
0
  6
Continuous
 62
     7
370
    25
100
AcDbCircle
 10
225.298
 20
69.723
 30
0.0
 40
0.7249999999999943
  0
CIRCLE
  5
41C
330
1F
100
AcDbEntity
  8
0
  6
Continuous
 62
     7
370
    25
100
AcDbCircle
 10
238.9505
 20
67.183
 30
0.0
 40
0.8496299999999906
  0
CIRCLE
  5
41D
330
1F
100
AcDbEntity
  8
0
  6
Continuous
 62
     7
370
    25
100
AcDbCircle
 10
249.428
 20
62.103
 30
0.0
 40
0.4999999999999716
  0
CIRCLE
  5
41E
330
1F
100
AcDbEntity
  8
0
  6
Continuous
 62
     7
370
    25
100
AcDbCircle
 10
157.988
 20
67.183
 30
0.0
 40
0.8496300000000474
  0
CIRCLE
  5
41F
330
1F
100
AcDbEntity
  8
0
  6
Continuous
 62
     7
370
    25
100
AcDbCircle
 10
154.178
 20
62.103
 30
0.0
 40
0.4999999999999716
  0
CIRCLE
  5
420
330
1F
100
AcDbEntity
  8
0
  6
Continuous
 62
     7
370
    25
100
AcDbCircle
 10
168.148
 20
69.723
 30
0.0
 40
0.7249999999999943
  0
CIRCLE
  5
421
330
1F
100
AcDbEntity
  8
0
  6
Continuous
 62
     7
370
    25
100
AcDbCircle
 10
173.228
 20
62.103
 30
0.0
 40
0.5
  0
CIRCLE
  5
422
330
1F
100
AcDbEntity
  8
0
  6
Continuous
 62
     7
370
    25
100
AcDbCircle
 10
151.638
 20
62.103
 30
0.0
 40
0.5
  0
CIRCLE
  5
423
330
1F
100
AcDbEntity
  8
0
  6
Continuous
 62
     7
370
    25
100
AcDbCircle
 10
138.938
 20
67.183
 30
0.0
 40
0.8496299999999906
  0
CIRCLE
  5
424
330
1F
100
AcDbEntity
  8
0
  6
Continuous
 62
     7
370
    25
100
AcDbCircle
 10
136.398
 20
72.263
 30
0.0
 40
0.7249999999999943
  0
CIRCLE
  5
425
330
1F
100
AcDbEntity
  8
0
  6
Continuous
 62
     7
370
    25
100
AcDbCircle
 10
198.3105
 20
53.213
 30
0.0
 40
0.7249999999999943
  0
CIRCLE
  5
426
330
1F
100
AcDbEntity
  8
0
  6
Continuous
 62
     7
370
    25
100
AcDbCircle
 10
219.9005
 20
48.133
 30
0.0
 40
0.849630000000019
  0
CIRCLE
  5
427
330
1F
100
AcDbEntity
  8
0
  6
Continuous
 62
     7
370
    25
100
AcDbCircle
 10
211.0105
 20
50.673
 30
0.0
 40
0.7250000000000227
  0
CIRCLE
  5
428
330
1F
100
AcDbEntity
  8
0
  6
Continuous
 62
     7
370
    25
100
AcDbCircle
 10
222.91675
 20
50.673
 30
0.0
 40
0.7250000000000227
  0
CIRCLE
  5
429
330
1F
100
AcDbEntity
  8
0
  6
Continuous
 62
     7
370
    25
100
AcDbCircle
 10
230.0605
 20
50.673
 30
0.0
 40
0.7249999999999943
  0
CIRCLE
  5
42A
330
1F
100
AcDbEntity
  8
0
  6
Continuous
 62
     7
370
    25
100
AcDbCircle
 10
190.6905
 20
48.133
 30
0.0
 40
0.8496299999999906
  0
CIRCLE
  5
42B
330
1F
100
AcDbEntity
  8
0
  6
Continuous
 62
     7
370
    25
100
AcDbCircle
 10
241.33175
 20
56.388
 30
0.0
 40
0.5000000000000284
  0
CIRCLE
  5
42C
330
1F
100
AcDbEntity
  8
0
  6
Continuous
 62
     7
370
    25
100
AcDbCircle
 10
241.33175
 20
58.928
 30
0.0
 40
0.5000000000000284
  0
CIRCLE
  5
42D
330
1F
100
AcDbEntity
  8
0
  6
Continuous
 62
     7
370
    25
100
AcDbCircle
 10
260.223
 20
53.213
 30
0.0
 40
0.7250000000000796
  0
CIRCLE
  5
42E
330
1F
100
AcDbEntity
  8
0
  6
Continuous
 62
     7
370
    25
100
AcDbCircle
 10
267.36675
 20
53.213
 30
0.0
 40
0.7250000000000227
  0
CIRCLE
  5
42F
330
1F
100
AcDbEntity
  8
0
  6
Continuous
 62
     7
370
    25
100
AcDbCircle
 10
231.17175
 20
60.198
 30
0.0
 40
0.7250000000000227
  0
CIRCLE
  5
430
330
1F
100
AcDbEntity
  8
0
  6
Continuous
 62
     7
370
    25
100
AcDbCircle
 10
269.27175
 20
60.198
 30
0.0
 40
0.7250000000000796
  0
CIRCLE
  5
431
330
1F
100
AcDbEntity
  8
0
  6
Continuous
 62
     7
370
    25
100
AcDbCircle
 10
134.8105
 20
50.673
 30
0.0
 40
0.7249999999999943
  0
CIRCLE
  5
432
330
1F
100
AcDbEntity
  8
0
  6
Continuous
 62
     7
370
    25
100
AcDbCircle
 10
152.5905
 20
48.133
 30
0.0
 40
0.849630000000019
  0
CIRCLE
  5
433
330
1F
100
AcDbEntity
  8
0
  6
Continuous
 62
     7
370
    25
100
AcDbCircle
 10
122.1105
 20
53.213
 30
0.0
 40
0.7250000000000085
  0
CIRCLE
  5
434
330
1F
100
AcDbEntity
  8
0
  6
Continuous
 62
     7
370
    25
100
AcDbCircle
 10
105.6005
 20
48.133
 30
0.0
 40
0.8496299999999906
  0
CIRCLE
  5
435
330
1F
100
AcDbEntity
  8
0
  6
Continuous
 62
     7
370
    25
100
AcDbCircle
 10
181.483
 20
86.233
 30
0.0
 40
2.049780000000027
  0
CIRCLE
  5
436
330
1F
100
AcDbEntity
  8
0
  6
Continuous
 62
     7
370
    25
100
AcDbCircle
 10
124.333
 20
86.233
 30
0.0
 40
2.049779999999984
  0
CIRCLE
  5
437
330
1F
100
AcDbEntity
  8
0
  6
Continuous
 62
     7
370
    25
100
AcDbCircle
 10
110.363
 20
86.233
 30
0.0
 40
0.849630000000019
  0
CIRCLE
  5
438
330
1F
100
AcDbEntity
  8
0
  6
Continuous
 62
     7
370
    25
100
AcDbCircle
 10
105.283
 20
86.233
 30
0.0
 40
2.049779999999984
  0
CIRCLE
  5
439
330
1F
100
AcDbEntity
  8
0
  6
Continuous
 62
     7
370
    25
100
AcDbCircle
 10
100.203
 20
86.233
 30
0.0
 40
0.849630000000019
  0
CIRCLE
  5
43A
330
1F
100
AcDbEntity
  8
0
  6
Continuous
 62
     7
370
    25
100
AcDbCircle
 10
101.473
 20
88.773
 30
0.0
 40
0.7249999999999943
  0
CIRCLE
  5
43B
330
1F
100
AcDbEntity
  8
0
  6
Continuous
 62
     7
370
    25
100
AcDbCircle
 10
200.533
 20
86.233
 30
0.0
 40
2.04977999999997
  0
CIRCLE
  5
43C
330
1F
100
AcDbEntity
  8
0
  6
Continuous
 62
     7
370
    25
100
AcDbCircle
 10
243.713
 20
86.233
 30
0.0
 40
0.849630000000019
  0
CIRCLE
  5
43D
330
1F
100
AcDbEntity
  8
0
  6
Continuous
 62
     7
370
    25
100
AcDbCircle
 10
214.503
 20
86.233
 30
0.0
 40
0.8496299999999621
  0
CIRCLE
  5
441
330
1F
100
AcDbEntity
  8
0
  6
Continuous
 62
     7
370
    25
100
AcDbCircle
 10
234.823
 20
88.773
 30
0.0
 40
0.7250000000000227
  0
CIRCLE
  5
442
330
1F
100
AcDbEntity
  8
0
  6
Continuous
 62
     7
370
    25
100
AcDbCircle
 10
215.773
 20
88.773
 30
0.0
 40
0.7249999999999943
  0
CIRCLE
  5
446
330
1F
100
AcDbEntity
  8
0
  6
Continuous
 62
     7
370
    25
100
AcDbCircle
 10
243.713
 20
10.033
 30
0.0
 40
0.849630000000019
  0
CIRCLE
  5
447
330
1F
100
AcDbEntity
  8
0
  6
Continuous
 62
     7
370
    25
100
AcDbCircle
 10
238.633
 20
10.033
 30
0.0
 40
2.04977999999997
  0
CIRCLE
  5
450
330
1F
100
AcDbEntity
  8
0
  6
Continuous
 62
     7
370
    25
100
AcDbCircle
 10
241.173
 20
15.113
 30
0.0
 40
0.7249999999999943
  0
CIRCLE
  5
451
330
1F
100
AcDbEntity
  8
0
  6
Continuous
 62
     7
370
    25
100
AcDbCircle
 10
236.6518
 20
15.113
 30
0.0
 40
0.5
  0
CIRCLE
  5
455
330
1F
100
AcDbEntity
  8
0
  6
Continuous
 62
     7
370
    25
100
AcDbCircle
 10
231.80675
 20
10.033
 30
0.0
 40
0.8496299999999906
  0
CIRCLE
  5
456
330
1F
100
AcDbEntity
  8
0
  6
Continuous
 62
     7
370
    25
100
AcDbCircle
 10
226.8855
 20
15.113
 30
0.0
 40
0.7250000000000227
  0
CIRCLE
  5
463
330
1F
100
AcDbEntity
  8
0
  6
Continuous
 62
     7
370
    25
100
AcDbCircle
 10
222.91675
 20
12.573
 30
0.0
 40
0.7249999999999943
  0
CIRCLE
  5
464
330
1F
100
AcDbEntity
  8
0
  6
Continuous
 62
     7
370
    25
100
AcDbCircle
 10
229.26675
 20
15.113
 30
0.0
 40
0.7249999999999943
  0
CIRCLE
  5
465
330
1F
100
AcDbEntity
  8
0
  6
Continuous
 62
     7
370
    25
100
AcDbCircle
 10
222.123
 20
15.113
 30
0.0
 40
0.7250000000000227
  0
CIRCLE
  5
466
330
1F
100
AcDbEntity
  8
0
  6
Continuous
 62
     7
370
    25
100
AcDbCircle
 10
234.823
 20
12.573
 30
0.0
 40
0.7249999999999943
  0
CIRCLE
  5
467
330
1F
100
AcDbEntity
  8
0
  6
Continuous
 62
     7
370
    25
100
AcDbCircle
 10
233.553
 20
10.033
 30
0.0
 40
0.8496299999999621
  0
CIRCLE
  5
468
330
1F
100
AcDbEntity
  8
0
  6
Continuous
 62
     7
370
    25
100
AcDbCircle
 10
276.733
 20
10.033
 30
0.0
 40
2.049779999999998
  0
CIRCLE
  5
469
330
1F
100
AcDbEntity
  8
0
  6
Continuous
 62
     7
370
    25
100
AcDbCircle
 10
252.603
 20
10.033
 30
0.0
 40
0.8496299999999621
  0
CIRCLE
  5
46A
330
1F
100
AcDbEntity
  8
0
  6
Continuous
 62
     7
370
    25
100
AcDbCircle
 10
255.30175
 20
18.288
 30
0.0
 40
1.999999999999972
  0
CIRCLE
  5
46B
330
1F
100
AcDbEntity
  8
0
  6
Continuous
 62
     7
370
    25
100
AcDbCircle
 10
253.873
 20
12.573
 30
0.0
 40
0.7249999999999375
  0
CIRCLE
  5
46D
330
1F
100
AcDbEntity
  8
0
  6
Continuous
 62
     7
370
    25
100
AcDbCircle
 10
157.82925
 20
15.113
 30
0.0
 40
0.7249999999999943
  0
CIRCLE
  5
46E
330
1F
100
AcDbEntity
  8
0
  6
Continuous
 62
     7
370
    25
100
AcDbCircle
 10
167.35425
 20
15.113
 30
0.0
 40
0.7249999999999943
  0
CIRCLE
  5
47B
330
1F
100
AcDbEntity
  8
0
  6
Continuous
 62
     7
370
    25
100
AcDbCircle
 10
151.47925
 20
12.573
 30
0.0
 40
0.7249999999999943
  0
CIRCLE
  5
47C
330
1F
100
AcDbEntity
  8
0
  6
Continuous
 62
     7
370
    25
100
AcDbCircle
 10
150.20925
 20
10.033
 30
0.0
 40
0.849630000000019
  0
CIRCLE
  5
47D
330
1F
100
AcDbEntity
  8
0
  6
Continuous
 62
     7
370
    25
100
AcDbCircle
 10
152.908
 20
18.288
 30
0.0
 40
1.999999999999972
  0
CIRCLE
  5
47E
330
1F
100
AcDbEntity
  8
0
  6
Continuous
 62
     7
370
    25
100
AcDbCircle
 10
214.503
 20
10.033
 30
0.0
 40
0.8496299999999621
  0
CIRCLE
  5
47F
330
1F
100
AcDbEntity
  8
0
  6
Continuous
 62
     7
370
    25
100
AcDbCircle
 10
207.99425
 20
10.033
 30
0.0
 40
0.8496300000000474
  0
CIRCLE
  5
480
330
1F
100
AcDbEntity
  8
0
  6
Continuous
 62
     7
370
    25
100
AcDbCircle
 10
215.773
 20
12.573
 30
0.0
 40
0.7249999999999943
  0
CIRCLE
  5
481
330
1F
100
AcDbEntity
  8
0
  6
Continuous
 62
     7
370
    25
100
AcDbCircle
 10
203.073
 20
15.113
 30
0.0
 40
0.7249999999999943
  0
CIRCLE
  5
482
330
1F
100
AcDbEntity
  8
0
  6
Continuous
 62
     7
370
    25
100
AcDbCircle
 10
205.45425
 20
15.113
 30
0.0
 40
0.7249999999999943
  0
CIRCLE
  5
483
330
1F
100
AcDbEntity
  8
0
  6
Continuous
 62
     7
370
    25
100
AcDbCircle
 10
205.2955
 20
18.288
 30
0.0
 40
2.000000000000057
  0
CIRCLE
  5
48B
330
1F
100
AcDbEntity
  8
0
  6
Continuous
 62
     7
370
    25
100
AcDbCircle
 10
243.586
 20
18.9484
 30
0.0
 40
0.1500000000000057
  0
LINE
  5
48C
330
1F
100
AcDbEntity
  8
0
  6
Continuous
 62
     7
370
    25
100
AcDbLine
 10
20.3802
 20
94.5006
 30
0.0
 11
21.0802
 21
94.5006
 31
0.0
  0
LINE
  5
48D
330
1F
100
AcDbEntity
  8
0
  6
Continuous
 62
     7
370
    25
100
AcDbLine
 10
20.4102
 20
94.5006
 30
0.0
 11
20.4102
 21
92.9006
 31
0.0
  0
LINE
  5
48E
330
1F
100
AcDbEntity
  8
0
  6
Continuous
 62
     7
370
    25
100
AcDbLine
 10
20.3802
 20
92.9006
 30
0.0
 11
21.0802
 21
92.9006
 31
0.0
  0
LINE
  5
48F
330
1F
100
AcDbEntity
  8
0
  6
Continuous
 62
     7
370
    25
100
AcDbLine
 10
20.3802
 20
92.9006
 30
0.0
 11
20.3802
 21
94.5006
 31
0.0
  0
LINE
  5
490
330
1F
100
AcDbEntity
  8
0
  6
Continuous
 62
     7
370
    25
100
AcDbLine
 10
17.7102
 20
92.9006
 30
0.0
 11
17.7102
 21
93.2206
 31
0.0
  0
LINE
  5
491
330
1F
100
AcDbEntity
  8
0
  6
Continuous
 62
     7
370
    25
100
AcDbLine
 10
17.6802
 20
92.9006
 30
0.0
 11
17.6802
 21
93.2215384173
 31
0.0
  0
LINE
  5
492
330
1F
100
AcDbEntity
  8
0
  6
Continuous
 62
     7
370
    25
100
AcDbLine
 10
17.7102
 20
94.1806
 30
0.0
 11
17.7102
 21
94.5006
 31
0.0
  0
LINE
  5
493
330
1F
100
AcDbEntity
  8
0
  6
Continuous
 62
     7
370
    25
100
AcDbLine
 10
17.6802
 20
94.1796615827
 30
0.0
 11
17.6802
 21
94.5006
 31
0.0
  0
LINE
  5
494
330
1F
100
AcDbEntity
  8
0
  6
Continuous
 62
     7
370
    25
100
AcDbLine
 10
21.0502
 20
94.5006
 30
0.0
 11
21.0502
 21
94.1806
 31
0.0
  0
LINE
  5
495
330
1F
100
AcDbEntity
  8
0
  6
Continuous
 62
     7
370
    25
100
AcDbLine
 10
21.0502
 20
93.2206
 30
0.0
 11
21.0502
 21
92.9006
 31
0.0
  0
LINE
  5
496
330
1F
100
AcDbEntity
  8
0
  6
Continuous
 62
     7
370
    25
100
AcDbLine
 10
21.0802
 20
93.2215384173
 30
0.0
 11
21.0802
 21
92.9006
 31
0.0
  0
LINE
  5
497
330
1F
100
AcDbEntity
  8
0
  6
Continuous
 62
     7
370
    25
100
AcDbLine
 10
18.3502
 20
92.9006
 30
0.0
 11
18.3502
 21
94.5006
 31
0.0
  0
LINE
  5
498
330
1F
100
AcDbEntity
  8
0
  6
Continuous
 62
     7
370
    25
100
AcDbLine
 10
18.3802
 20
94.5006
 30
0.0
 11
17.6802
 21
94.5006
 31
0.0
  0
LINE
  5
499
330
1F
100
AcDbEntity
  8
0
  6
Continuous
 62
     7
370
    25
100
AcDbLine
 10
18.3802
 20
94.5006
 30
0.0
 11
18.3802
 21
92.9006
 31
0.0
  0
LINE
  5
49A
330
1F
100
AcDbEntity
  8
0
  6
Continuous
 62
     7
370
    25
100
AcDbLine
 10
18.3802
 20
92.9006
 30
0.0
 11
17.6802
 21
92.9006
 31
0.0
  0
LINE
  5
49B
330
1F
100
AcDbEntity
  8
0
  6
Continuous
 62
     7
370
    25
100
AcDbLine
 10
21.0802
 20
94.5006
 30
0.0
 11
21.0802
 21
94.1796615827
 31
0.0
  0
LINE
  5
49C
330
1F
100
AcDbEntity
  8
0
  6
Continuous
 62
     7
370
    25
100
AcDbLine
 10
19.9952
 20
92.8506
 30
0.0
 11
20.2952
 21
92.8506
 31
0.0
  0
LINE
  5
49D
330
1F
100
AcDbEntity
  8
0
  6
Continuous
 62
     7
370
    25
100
AcDbLine
 10
20.2952
 20
94.5506
 30
0.0
 11
20.2952
 21
92.8506
 31
0.0
  0
LINE
  5
49E
330
1F
100
AcDbEntity
  8
0
  6
Continuous
 62
     7
370
    25
100
AcDbLine
 10
19.9952
 20
94.5506
 30
0.0
 11
20.2952
 21
94.5506
 31
0.0
  0
LINE
  5
49F
330
1F
100
AcDbEntity
  8
0
  6
Continuous
 62
     7
370
    25
100
AcDbLine
 10
19.9952
 20
94.5506
 30
0.0
 11
19.9952
 21
92.8506
 31
0.0
  0
LINE
  5
4A0
330
1F
100
AcDbEntity
  8
0
  6
Continuous
 62
     7
370
    25
100
AcDbLine
 10
17.6952
 20
94.6356
 30
0.0
 11
17.6952
 21
94.5006
 31
0.0
  0
LINE
  5
4A1
330
1F
100
AcDbEntity
  8
0
  6
Continuous
 62
     7
370
    25
100
AcDbLine
 10
21.0652
 20
94.6356
 30
0.0
 11
17.6952
 21
94.6356
 31
0.0
  0
LINE
  5
4A2
330
1F
100
AcDbEntity
  8
0
  6
Continuous
 62
     7
370
    25
100
AcDbLine
 10
21.0652
 20
94.6356
 30
0.0
 11
21.0652
 21
94.5006
 31
0.0
  0
LINE
  5
4A3
330
1F
100
AcDbEntity
  8
0
  6
Continuous
 62
     7
370
    25
100
AcDbLine
 10
21.0652
 20
92.9006
 30
0.0
 11
21.0652
 21
92.7656
 31
0.0
  0
LINE
  5
4A4
330
1F
100
AcDbEntity
  8
0
  6
Continuous
 62
     7
370
    25
100
AcDbLine
 10
21.0652
 20
92.7656
 30
0.0
 11
17.6952
 21
92.7656
 31
0.0
  0
LINE
  5
4A5
330
1F
100
AcDbEntity
  8
0
  6
Continuous
 62
     7
370
    25
100
AcDbLine
 10
17.6952
 20
92.9006
 30
0.0
 11
17.6952
 21
92.7656
 31
0.0
  0
LINE
  5
4A6
330
1F
100
AcDbEntity
  8
0
  6
Continuous
 62
     7
370
    25
100
AcDbLine
 10
15.0758
 20
94.128
 30
0.0
 11
15.0758
 21
94.728
 31
0.0
  0
LINE
  5
4A7
330
1F
100
AcDbEntity
  8
0
  6
Continuous
 62
     7
370
    25
100
AcDbLine
 10
14.4758
 20
94.728
 30
0.0
 11
14.4758
 21
94.128
 31
0.0
  0
LINE
  5
4A8
330
1F
100
AcDbEntity
  8
0
  6
Continuous
 62
     7
370
    25
100
AcDbLine
 10
15.0702
 20
93.2267
 30
0.0
 11
15.0702
 21
92.7267
 31
0.0
  0
LINE
  5
4A9
330
1F
100
AcDbEntity
  8
0
  6
Continuous
 62
     7
370
    25
100
AcDbLine
 10
16.0702
 20
92.7267
 30
0.0
 11
16.0702
 21
93.2267
 31
0.0
  0
LINE
  5
4AA
330
1F
100
AcDbEntity
  8
0
  6
Continuous
 62
     7
370
    25
100
AcDbLine
 10
14.4758
 20
90.798
 30
0.0
 11
14.4758
 21
89.698
 31
0.0
  0
LINE
  5
4AB
330
1F
100
AcDbEntity
  8
0
  6
Continuous
 62
     7
370
    25
100
AcDbLine
 10
15.0758
 20
89.698
 30
0.0
 11
15.0758
 21
90.798
 31
0.0
  0
LINE
  5
4AC
330
1F
100
AcDbEntity
  8
0
  6
Continuous
 62
     7
370
    25
100
AcDbLine
 10
24.313
 20
8.7655
 30
0.0
 11
26.813
 21
8.7655
 31
0.0
  0
LINE
  5
4AD
330
1F
100
AcDbEntity
  8
0
  6
Continuous
 62
     7
370
    25
100
AcDbLine
 10
26.813
 20
11.2655
 30
0.0
 11
24.313
 21
11.2655
 31
0.0
  0
LINE
  5
4AE
330
1F
100
AcDbEntity
  8
0
  6
Continuous
 62
     7
370
    25
100
AcDbLine
 10
23.1822
 20
92.7267
 30
0.0
 11
23.1822
 21
93.2267
 31
0.0
  0
LINE
  5
4AF
330
1F
100
AcDbEntity
  8
0
  6
Continuous
 62
     7
370
    25
100
AcDbLine
 10
22.1822
 20
93.2267
 30
0.0
 11
22.1822
 21
92.7267
 31
0.0
  0
LINE
  5
4B0
330
1F
100
AcDbEntity
  8
0
  6
Continuous
 62
     7
370
    25
100
AcDbLine
 10
23.7258
 20
94.128
 30
0.0
 11
23.7258
 21
94.728
 31
0.0
  0
LINE
  5
4B1
330
1F
100
AcDbEntity
  8
0
  6
Continuous
 62
     7
370
    25
100
AcDbLine
 10
23.1258
 20
94.728
 30
0.0
 11
23.1258
 21
94.128
 31
0.0
  0
LINE
  5
4B2
330
1F
100
AcDbEntity
  8
0
  6
Continuous
 62
     7
370
    25
100
AcDbLine
 10
23.1258
 20
90.798
 30
0.0
 11
23.1258
 21
89.698
 31
0.0
  0
LINE
  5
4B3
330
1F
100
AcDbEntity
  8
0
  6
Continuous
 62
     7
370
    25
100
AcDbLine
 10
23.7258
 20
89.698
 30
0.0
 11
23.7258
 21
90.798
 31
0.0
  0
LINE
  5
4B4
330
1F
100
AcDbEntity
  8
0
  6
Continuous
 62
     7
370
    25
100
AcDbLine
 10
34.058
 20
93.237
 30
0.0
 11
34.058
 21
92.437
 31
0.0
  0
LINE
  5
4B5
330
1F
100
AcDbEntity
  8
0
  6
Continuous
 62
     7
370
    25
100
AcDbLine
 10
34.758
 20
92.437
 30
0.0
 11
34.758
 21
93.237
 31
0.0
  0
LINE
  5
4B6
330
1F
100
AcDbEntity
  8
0
  6
Continuous
 62
     7
370
    25
100
AcDbLine
 10
43.158
 20
92.437
 30
0.0
 11
43.158
 21
93.237
 31
0.0
  0
LINE
  5
4B7
330
1F
100
AcDbEntity
  8
0
  6
Continuous
 62
     7
370
    25
100
AcDbLine
 10
42.458
 20
93.237
 30
0.0
 11
42.458
 21
92.437
 31
0.0
  0
LINE
  5
4B8
330
1F
100
AcDbEntity
  8
0
  6
Continuous
 62
     7
370
    25
100
AcDbLine
 10
187.293
 20
8.7655
 30
0.0
 11
189.793
 21
8.7655
 31
0.0
  0
LINE
  5
4B9
330
1F
100
AcDbEntity
  8
0
  6
Continuous
 62
     7
370
    25
100
AcDbLine
 10
189.793
 20
11.2655
 30
0.0
 11
187.293
 21
11.2655
 31
0.0
  0
LINE
  5
4BA
330
1F
100
AcDbEntity
  8
0
  6
Continuous
 62
     7
370
    25
100
AcDbLine
 10
262.263
 20
68.4055
 30
0.0
 11
259.763
 21
68.4055
 31
0.0
  0
LINE
  5
4BB
330
1F
100
AcDbEntity
  8
0
  6
Continuous
 62
     7
370
    25
100
AcDbLine
 10
259.763
 20
65.9055
 30
0.0
 11
262.263
 21
65.9055
 31
0.0
  0
LINE
  5
4BC
330
1F
100
AcDbEntity
  8
0
  6
Continuous
 62
     7
370
    25
100
AcDbLine
 10
130.403
 20
49.3555
 30
0.0
 11
127.903
 21
49.3555
 31
0.0
  0
LINE
  5
4BD
330
1F
100
AcDbEntity
  8
0
  6
Continuous
 62
     7
370
    25
100
AcDbLine
 10
127.903
 20
46.8555
 30
0.0
 11
130.403
 21
46.8555
 31
0.0
  0
LINE
  5
4BE
330
1F
100
AcDbEntity
  8
0
  6
Continuous
 62
     7
370
    25
100
AcDbLine
 10
249.203
 20
2.151
 30
0.0
 11
249.203
 21
10.351
 31
0.0
  0
LINE
  5
4BF
330
1F
100
AcDbEntity
  8
0
  6
Continuous
 62
     7
370
    25
100
AcDbLine
 10
248.403
 20
10.351
 30
0.0
 11
248.403
 21
3.133
 31
0.0
  0
LINE
  5
4C0
330
1F
100
AcDbEntity
  8
0
  6
Continuous
 62
     7
370
    25
100
AcDbLine
 10
238.535
 20
3.133
 30
0.0
 11
248.403
 21
3.133
 31
0.0
  0
LINE
  5
4C1
330
1F
100
AcDbEntity
  8
0
  6
Continuous
 62
     7
370
    25
100
AcDbLine
 10
238.535
 20
3.133
 30
0.0
 11
238.535
 21
6.773
 31
0.0
  0
LINE
  5
4C2
330
1F
100
AcDbEntity
  8
0
  6
Continuous
 62
     7
370
    25
100
AcDbLine
 10
237.735
 20
6.773
 30
0.0
 11
237.735
 21
5.2870898083
 31
0.0
  0
LINE
  5
4C3
330
1F
100
AcDbEntity
  8
0
  6
Continuous
 62
     7
370
    25
100
AcDbLine
 10
237.735
 20
4.6189101917
 30
0.0
 11
237.735
 21
2.173
 31
0.0
  0
LINE
  5
4C4
330
1F
100
AcDbEntity
  8
0
  6
Continuous
 62
     7
370
    25
100
AcDbLine
 10
3.133
 20
1.133
 30
0.0
 11
236.026
 21
1.133
 31
0.0
  0
LINE
  5
4C5
330
1F
100
AcDbEntity
  8
0
  6
Continuous
 62
     7
370
    25
100
AcDbLine
 10
1.133
 20
93.133
 30
0.0
 11
1.133
 21
3.133
 31
0.0
  0
LINE
  5
4C6
330
1F
100
AcDbEntity
  8
0
  6
Continuous
 62
     7
370
    25
100
AcDbLine
 10
302.683
 20
95.133
 30
0.0
 11
3.133
 21
95.133
 31
0.0
  0
LINE
  5
4C7
330
1F
100
AcDbEntity
  8
0
  6
Continuous
 62
     7
370
    25
100
AcDbLine
 10
304.683
 20
3.133
 30
0.0
 11
304.683
 21
93.133
 31
0.0
  0
LINE
  5
4C8
330
1F
100
AcDbEntity
  8
0
  6
Continuous
 62
     7
370
    25
100
AcDbLine
 10
250.783
 20
1.133
 30
0.0
 11
302.683
 21
1.133
 31
0.0
  0
LINE
  5
4C9
330
1F
100
AcDbEntity
  8
0
  6
Continuous
 62
     7
370
    25
100
AcDbLine
 10
237.735
 20
20.115
 30
0.0
 11
237.735
 21
13.215
 31
0.0
  0
LINE
  5
4CA
330
1F
100
AcDbEntity
  8
0
  6
Continuous
 62
     7
370
    25
100
AcDbLine
 10
238.535
 20
13.215
 30
0.0
 11
238.535
 21
19.783
 31
0.0
  0
LINE
  5
4CB
330
1F
100
AcDbEntity
  8
0
  6
Continuous
 62
     7
370
    25
100
AcDbLine
 10
242.739
 20
20.583
 30
0.0
 11
238.139
 21
20.583
 31
0.0
  0
LINE
  5
4CC
330
1F
100
AcDbEntity
  8
0
  6
Continuous
 62
     7
370
    25
100
AcDbLine
 10
238.535
 20
19.783
 30
0.0
 11
242.739
 21
19.783
 31
0.0
  0
LINE
  5
4CD
330
1F
100
AcDbEntity
  8
0
  6
Continuous
 62
     7
370
    25
100
AcDbLine
 10
248.785
 20
20.583
 30
0.0
 11
244.485
 21
20.583
 31
0.0
  0
LINE
  5
4CE
330
1F
100
AcDbEntity
  8
0
  6
Continuous
 62
     7
370
    25
100
AcDbLine
 10
249.203
 20
11.93
 30
0.0
 11
249.203
 21
20.13
 31
0.0
  0
LINE
  5
4CF
330
1F
100
AcDbEntity
  8
0
  6
Continuous
 62
     7
370
    25
100
AcDbLine
 10
248.403
 20
19.783
 30
0.0
 11
248.403
 21
11.93
 31
0.0
  0
LINE
  5
4D0
330
1F
100
AcDbEntity
  8
0
  6
Continuous
 62
     7
370
    25
100
AcDbLine
 10
244.485
 20
19.783
 30
0.0
 11
248.403
 21
19.783
 31
0.0
  0
ARC
  5
4D1
330
1F
100
AcDbEntity
  8
0
  6
Continuous
 62
     7
370
    25
100
AcDbCircle
 10
21.0502
 20
93.7006
 30
0.0
 40
0.4799999999999898
100
AcDbArc
 50
90.0
 51
270.0
  0
ARC
  5
4D2
330
1F
100
AcDbEntity
  8
0
  6
Continuous
 62
     7
370
    25
100
AcDbCircle
 10
17.7102
 20
93.7006
 30
0.0
 40
0.4799999999999898
100
AcDbArc
 50
270.0
 51
90.0
  0
ARC
  5
4D3
330
1F
100
AcDbEntity
  8
0
  6
Continuous
 62
     7
370
    25
100
AcDbCircle
 10
14.7758
 20
94.128
 30
0.0
 40
0.2999999999999972
100
AcDbArc
 50
180.0
 51
0.0
  0
ARC
  5
4D4
330
1F
100
AcDbEntity
  8
0
  6
Continuous
 62
     7
370
    25
100
AcDbCircle
 10
14.7758
 20
94.728
 30
0.0
 40
0.2999999999999972
100
AcDbArc
 50
0.0
 51
180.0
  0
ARC
  5
4D5
330
1F
100
AcDbEntity
  8
0
  6
Continuous
 62
     7
370
    25
100
AcDbCircle
 10
15.5702
 20
93.2267
 30
0.0
 40
0.5000000000000036
100
AcDbArc
 50
0.0
 51
180.0
  0
ARC
  5
4D6
330
1F
100
AcDbEntity
  8
0
  6
Continuous
 62
     7
370
    25
100
AcDbCircle
 10
15.5702
 20
92.7267
 30
0.0
 40
0.5000000000000036
100
AcDbArc
 50
180.0
 51
0.0
  0
ARC
  5
4D7
330
1F
100
AcDbEntity
  8
0
  6
Continuous
 62
     7
370
    25
100
AcDbCircle
 10
14.7758
 20
89.698
 30
0.0
 40
0.2999999999999972
100
AcDbArc
 50
180.0
 51
0.0
  0
ARC
  5
4D8
330
1F
100
AcDbEntity
  8
0
  6
Continuous
 62
     7
370
    25
100
AcDbCircle
 10
14.7758
 20
90.798
 30
0.0
 40
0.2999999999999972
100
AcDbArc
 50
360.0
 51
180.0
  0
ARC
  5
4D9
330
1F
100
AcDbEntity
  8
0
  6
Continuous
 62
     7
370
    25
100
AcDbCircle
 10
13.5255
 20
4.953
 30
0.0
 40
0.5000000000001559
100
AcDbArc
 50
80.8656507957
 51
279.1343492043
  0
ARC
  5
4DA
330
1F
100
AcDbEntity
  8
0
  6
Continuous
 62
     7
370
    25
100
AcDbCircle
 10
13.68425
 20
4.953
 30
0.0
 40
0.5000000000002792
100
AcDbArc
 50
260.8656507957
 51
99.1343492042
  0
ARC
  5
4DB
330
1F
100
AcDbEntity
  8
0
  6
Continuous
 62
     7
370
    25
100
AcDbCircle
 10
26.813
 20
10.0155
 30
0.0
 40
1.249999999999998
100
AcDbArc
 50
270.0
 51
90.0
  0
ARC
  5
4DC
330
1F
100
AcDbEntity
  8
0
  6
Continuous
 62
     7
370
    25
100
AcDbCircle
 10
24.313
 20
10.0155
 30
0.0
 40
1.249999999999998
100
AcDbArc
 50
90.0
 51
270.0
  0
ARC
  5
4DD
330
1F
100
AcDbEntity
  8
0
  6
Continuous
 62
     7
370
    25
100
AcDbCircle
 10
22.6822
 20
92.7267
 30
0.0
 40
0.5000000000000071
100
AcDbArc
 50
180.0
 51
0.0
  0
ARC
  5
4DE
330
1F
100
AcDbEntity
  8
0
  6
Continuous
 62
     7
370
    25
100
AcDbCircle
 10
22.6822
 20
93.2267
 30
0.0
 40
0.5000000000000071
100
AcDbArc
 50
0.0
 51
180.0
  0
ARC
  5
4DF
330
1F
100
AcDbEntity
  8
0
  6
Continuous
 62
     7
370
    25
100
AcDbCircle
 10
23.4258
 20
94.128
 30
0.0
 40
0.2999999999999972
100
AcDbArc
 50
180.0
 51
0.0
  0
ARC
  5
4E0
330
1F
100
AcDbEntity
  8
0
  6
Continuous
 62
     7
370
    25
100
AcDbCircle
 10
23.4258
 20
94.728
 30
0.0
 40
0.2999999999999972
100
AcDbArc
 50
0.0
 51
180.0
  0
ARC
  5
4E1
330
1F
100
AcDbEntity
  8
0
  6
Continuous
 62
     7
370
    25
100
AcDbCircle
 10
23.4258
 20
89.698
 30
0.0
 40
0.2999999999999972
100
AcDbArc
 50
180.0
 51
0.0
  0
ARC
  5
4E2
330
1F
100
AcDbEntity
  8
0
  6
Continuous
 62
     7
370
    25
100
AcDbCircle
 10
23.4258
 20
90.798
 30
0.0
 40
0.2999999999999972
100
AcDbArc
 50
360.0
 51
180.0
  0
ARC
  5
4E3
330
1F
100
AcDbEntity
  8
0
  6
Continuous
 62
     7
370
    25
100
AcDbCircle
 10
298.16425
 20
93.218
 30
0.0
 40
1.50000000003313
100
AcDbArc
 50
295.0640083632
 51
254.4632750186
  0
ARC
  5
4E4
330
1F
100
AcDbEntity
  8
0
  6
Continuous
 62
     7
370
    25
100
AcDbCircle
 10
298.323
 20
91.313
 30
0.0
 40
0.7250000000030532
100
AcDbArc
 50
140.6376325886
 51
48.8896507938
  0
ARC
  5
4E5
330
1F
100
AcDbEntity
  8
0
  6
Continuous
 62
     7
370
    25
100
AcDbCircle
 10
34.408
 20
92.437
 30
0.0
 40
0.3499999999999943
100
AcDbArc
 50
180.0
 51
0.0
  0
ARC
  5
4E6
330
1F
100
AcDbEntity
  8
0
  6
Continuous
 62
     7
370
    25
100
AcDbCircle
 10
34.408
 20
93.237
 30
0.0
 40
0.3499999999999943
100
AcDbArc
 50
360.0
 51
180.0
  0
ARC
  5
4E7
330
1F
100
AcDbEntity
  8
0
  6
Continuous
 62
     7
370
    25
100
AcDbCircle
 10
291.338
 20
86.233
 30
0.0
 40
0.8496300000061601
100
AcDbArc
 50
248.0565016964
 51
111.9434983029
  0
ARC
  5
4E8
330
1F
100
AcDbEntity
  8
0
  6
Continuous
 62
     7
370
    25
100
AcDbCircle
 10
290.703
 20
86.233
 30
0.0
 40
0.8496299999973126
100
AcDbArc
 50
68.0565016979
 51
291.9434983021
  0
ARC
  5
4E9
330
1F
100
AcDbEntity
  8
0
  6
Continuous
 62
     7
370
    25
100
AcDbCircle
 10
267.36675
 20
69.56425
 30
0.0
 40
1.499999999996849
100
AcDbArc
 50
37.3044456726
 51
345.3154192753
  0
ARC
  5
4EA
330
1F
100
AcDbEntity
  8
0
  6
Continuous
 62
     7
370
    25
100
AcDbCircle
 10
268.1605
 20
69.723
 30
0.0
 40
0.8500000000433756
100
AcDbArc
 50
320.6457376093
 51
61.9741273399
  0
ARC
  5
4EB
330
1F
100
AcDbEntity
  8
0
  6
Continuous
 62
     7
370
    25
100
AcDbCircle
 10
282.60675
 20
69.56425
 30
0.0
 40
2.000000000002942
100
AcDbArc
 50
269.0084011142
 51
234.1217012394
  0
ARC
  5
4EC
330
1F
100
AcDbEntity
  8
0
  6
Continuous
 62
     7
370
    25
100
AcDbCircle
 10
281.8130000002
 20
67.183
 30
0.0
 40
0.8496300000008029
100
AcDbArc
 50
116.4456049868
 51
26.6844973718
  0
ARC
  5
4ED
330
1F
100
AcDbEntity
  8
0
  6
Continuous
 62
     7
370
    25
100
AcDbCircle
 10
279.11425
 20
93.218
 30
0.0
 40
1.500000000003454
100
AcDbArc
 50
295.0640083629
 51
254.4632750182
  0
ARC
  5
4EE
330
1F
100
AcDbEntity
  8
0
  6
Continuous
 62
     7
370
    25
100
AcDbCircle
 10
279.273
 20
91.313
 30
0.0
 40
0.7250000000045398
100
AcDbArc
 50
140.6376325895
 51
48.8896507924
  0
ARC
  5
4EF
330
1F
100
AcDbEntity
  8
0
  6
Continuous
 62
     7
370
    25
100
AcDbCircle
 10
272.288
 20
86.233
 30
0.0
 40
0.8496300000061153
100
AcDbArc
 50
248.0565016964
 51
111.9434983029
  0
ARC
  5
4F0
330
1F
100
AcDbEntity
  8
0
  6
Continuous
 62
     7
370
    25
100
AcDbCircle
 10
271.653
 20
86.233
 30
0.0
 40
0.8496299999972914
100
AcDbArc
 50
68.0565016979
 51
291.9434983021
  0
ARC
  5
4F1
330
1F
100
AcDbEntity
  8
0
  6
Continuous
 62
     7
370
    25
100
AcDbCircle
 10
241.01425
 20
93.218
 30
0.0
 40
1.500000000003215
100
AcDbArc
 50
295.0640083629
 51
254.4632750182
  0
ARC
  5
4F2
330
1F
100
AcDbEntity
  8
0
  6
Continuous
 62
     7
370
    25
100
AcDbCircle
 10
241.173
 20
91.313
 30
0.0
 40
0.7250000000044259
100
AcDbArc
 50
140.6376325895
 51
48.8896507924
  0
ARC
  5
4F3
330
1F
100
AcDbEntity
  8
0
  6
Continuous
 62
     7
370
    25
100
AcDbCircle
 10
234.188
 20
86.233
 30
0.0
 40
0.8496300000169771
100
AcDbArc
 50
248.0565016954
 51
111.9434983025
  0
ARC
  5
4F4
330
1F
100
AcDbEntity
  8
0
  6
Continuous
 62
     7
370
    25
100
AcDbCircle
 10
233.553
 20
86.233
 30
0.0
 40
0.8496299999982113
100
AcDbArc
 50
68.0565016986
 51
291.9434983014
  0
ARC
  5
4F5
330
1F
100
AcDbEntity
  8
0
  6
Continuous
 62
     7
370
    25
100
AcDbCircle
 10
42.808
 20
93.237
 30
0.0
 40
0.3500000000000014
100
AcDbArc
 50
360.0
 51
180.0
  0
ARC
  5
4F6
330
1F
100
AcDbEntity
  8
0
  6
Continuous
 62
     7
370
    25
100
AcDbCircle
 10
42.808
 20
92.437
 30
0.0
 40
0.3500000000000014
100
AcDbArc
 50
180.0
 51
0.0
  0
ARC
  5
4F7
330
1F
100
AcDbEntity
  8
0
  6
Continuous
 62
     7
370
    25
100
AcDbCircle
 10
267.208
 20
10.033
 30
0.0
 40
2.049780000007418
100
AcDbArc
 50
35.240923174
 51
147.4130135038
  0
ARC
  5
4F8
330
1F
100
AcDbEntity
  8
0
  6
Continuous
 62
     7
370
    25
100
AcDbCircle
 10
271.653
 20
10.033
 30
0.0
 40
0.8496300000010429
100
AcDbArc
 50
68.0565016973
 51
291.9434983027
  0
ARC
  5
4F9
330
1F
100
AcDbEntity
  8
0
  6
Continuous
 62
     7
370
    25
100
AcDbCircle
 10
272.288
 20
10.033
 30
0.0
 40
0.8496300000012925
100
AcDbArc
 50
248.0565016972
 51
111.9434983026
  0
ARC
  5
4FA
330
1F
100
AcDbEntity
  8
0
  6
Continuous
 62
     7
370
    25
100
AcDbCircle
 10
262.763
 20
10.033
 30
0.0
 40
0.8496300000266568
100
AcDbArc
 50
248.0565016945
 51
111.9434983023
  0
ARC
  5
4FB
330
1F
100
AcDbEntity
  8
0
  6
Continuous
 62
     7
370
    25
100
AcDbCircle
 10
262.128
 20
10.033
 30
0.0
 40
0.8496299999981743
100
AcDbArc
 50
68.0565016994
 51
291.9434983006
  0
ARC
  5
4FC
330
1F
100
AcDbEntity
  8
0
  6
Continuous
 62
     7
370
    25
100
AcDbCircle
 10
127.66675
 20
12.573
 30
0.0
 40
0.725000000000122
100
AcDbArc
 50
270.0048448188
 51
228.8830647414
  0
ARC
  5
4FD
330
1F
100
AcDbEntity
  8
0
  6
Continuous
 62
     7
370
    25
100
AcDbCircle
 10
126.71425
 20
10.033
 30
0.0
 40
2.049780000000419
100
AcDbArc
 50
76.5796187551
 51
62.3082908061
  0
ARC
  5
4FE
330
1F
100
AcDbEntity
  8
0
  6
Continuous
 62
     7
370
    25
100
AcDbCircle
 10
122.26925
 20
10.033
 30
0.0
 40
0.8496300000001363
100
AcDbArc
 50
248.0565016972
 51
111.9434983028
  0
ARC
  5
4FF
330
1F
100
AcDbEntity
  8
0
  6
Continuous
 62
     7
370
    25
100
AcDbCircle
 10
121.63425
 20
10.033
 30
0.0
 40
0.8496300000001193
100
AcDbArc
 50
68.0565016972
 51
291.9434983028
  0
ARC
  5
500
330
1F
100
AcDbEntity
  8
0
  6
Continuous
 62
     7
370
    25
100
AcDbCircle
 10
189.793
 20
10.0155
 30
0.0
 40
1.249999999999998
100
AcDbArc
 50
270.0
 51
90.0
  0
ARC
  5
501
330
1F
100
AcDbEntity
  8
0
  6
Continuous
 62
     7
370
    25
100
AcDbCircle
 10
187.293
 20
10.0155
 30
0.0
 40
1.249999999999998
100
AcDbArc
 50
90.0
 51
270.0
  0
ARC
  5
502
330
1F
100
AcDbEntity
  8
0
  6
Continuous
 62
     7
370
    25
100
AcDbCircle
 10
225.6155
 20
4.953
 30
0.0
 40
0.5000000000005377
100
AcDbArc
 50
260.8656507958
 51
99.1343492045
  0
ARC
  5
503
330
1F
100
AcDbEntity
  8
0
  6
Continuous
 62
     7
370
    25
100
AcDbCircle
 10
225.45675
 20
4.953
 30
0.0
 40
0.4999999999991616
100
AcDbArc
 50
80.8656507957
 51
279.1343492043
  0
ARC
  5
504
330
1F
100
AcDbEntity
  8
0
  6
Continuous
 62
     7
370
    25
100
AcDbCircle
 10
156.55925
 20
4.953
 30
0.0
 40
0.5000000000103445
100
AcDbArc
 50
260.8656507929
 51
99.1343492052
  0
ARC
  5
505
330
1F
100
AcDbEntity
  8
0
  6
Continuous
 62
     7
370
    25
100
AcDbCircle
 10
156.4005
 20
4.953
 30
0.0
 40
0.4999999999999484
100
AcDbArc
 50
80.865650798
 51
279.134349202
  0
ARC
  5
506
330
1F
100
AcDbEntity
  8
0
  6
Continuous
 62
     7
370
    25
100
AcDbCircle
 10
198.15175
 20
10.033
 30
0.0
 40
2.049780000011595
100
AcDbArc
 50
76.5796187553
 51
166.6109563804
  0
ARC
  5
507
330
1F
100
AcDbEntity
  8
0
  6
Continuous
 62
     7
370
    25
100
AcDbCircle
 10
195.453
 20
10.033
 30
0.0
 40
0.8496299999987176
100
AcDbArc
 50
33.9629031672
 51
326.0370968328
  0
ARC
  5
508
330
1F
100
AcDbEntity
  8
0
  6
Continuous
 62
     7
370
    25
100
AcDbCircle
 10
198.15175
 20
10.033
 30
0.0
 40
2.049779999999281
100
AcDbArc
 50
193.3890436191
 51
305.5107025864
  0
ARC
  5
509
330
1F
100
AcDbEntity
  8
0
  6
Continuous
 62
     7
370
    25
100
AcDbCircle
 10
200.533
 20
10.033
 30
0.0
 40
2.049780000000397
100
AcDbArc
 50
234.4892974138
 51
305.5107025863
  0
ARC
  5
50A
330
1F
100
AcDbEntity
  8
0
  6
Continuous
 62
     7
370
    25
100
AcDbCircle
 10
202.91425
 20
10.033
 30
0.0
 40
2.04977999999151
100
AcDbArc
 50
234.4892974136
 51
346.6109563811
  0
ARC
  5
50B
330
1F
100
AcDbEntity
  8
0
  6
Continuous
 62
     7
370
    25
100
AcDbCircle
 10
205.613
 20
10.033
 30
0.0
 40
0.8496300000036395
100
AcDbArc
 50
213.9629031664
 51
146.0370968331
  0
ARC
  5
50C
330
1F
100
AcDbEntity
  8
0
  6
Continuous
 62
     7
370
    25
100
AcDbCircle
 10
202.91425
 20
10.033
 30
0.0
 40
2.049780000002286
100
AcDbArc
 50
13.3890436193
 51
125.510702586
  0
ARC
  5
50D
330
1F
100
AcDbEntity
  8
0
  6
Continuous
 62
     7
370
    25
100
AcDbCircle
 10
200.533
 20
10.033
 30
0.0
 40
2.049780000000397
100
AcDbArc
 50
54.4892974137
 51
125.5107025863
  0
ARC
  5
50E
330
1F
100
AcDbEntity
  8
0
  6
Continuous
 62
     7
370
    25
100
AcDbCircle
 10
198.1517500003
 20
10.0330000005
 30
0.0
 40
2.049779999403882
100
AcDbArc
 50
54.4892974131
 51
62.3082908075
  0
ARC
  5
50F
330
1F
100
AcDbEntity
  8
0
  6
Continuous
 62
     7
370
    25
100
AcDbCircle
 10
199.10425
 20
12.573
 30
0.0
 40
0.725000000000957
100
AcDbArc
 50
270.0048448189
 51
228.8830647416
  0
ARC
  5
510
330
1F
100
AcDbEntity
  8
0
  6
Continuous
 62
     7
370
    25
100
AcDbCircle
 10
201.64425
 20
4.953
 30
0.0
 40
0.4999999999975824
100
AcDbArc
 50
80.8656507968
 51
279.1343492032
  0
ARC
  5
511
330
1F
100
AcDbEntity
  8
0
  6
Continuous
 62
     7
370
    25
100
AcDbCircle
 10
201.803
 20
4.953
 30
0.0
 40
0.5000000000012215
100
AcDbArc
 50
260.8656507945
 51
99.1343492053
  0
ARC
  5
512
330
1F
100
AcDbEntity
  8
0
  6
Continuous
 62
     7
370
    25
100
AcDbCircle
 10
199.42175
 20
4.953
 30
0.0
 40
0.5000000000005126
100
AcDbArc
 50
260.8656507958
 51
99.1343492045
  0
ARC
  5
513
330
1F
100
AcDbEntity
  8
0
  6
Continuous
 62
     7
370
    25
100
AcDbCircle
 10
199.263
 20
4.953
 30
0.0
 40
0.4999999999991616
100
AcDbArc
 50
80.8656507957
 51
279.1343492043
  0
ARC
  5
514
330
1F
100
AcDbEntity
  8
0
  6
Continuous
 62
     7
370
    25
100
AcDbCircle
 10
38.608
 20
10.033
 30
0.0
 40
2.049780000000579
100
AcDbArc
 50
13.3890436192
 51
125.5107025862
  0
ARC
  5
515
330
1F
100
AcDbEntity
  8
0
  6
Continuous
 62
     7
370
    25
100
AcDbCircle
 10
36.22675
 20
10.033
 30
0.0
 40
2.049779999999268
100
AcDbArc
 50
54.4892974137
 51
166.6109563809
  0
ARC
  5
516
330
1F
100
AcDbEntity
  8
0
  6
Continuous
 62
     7
370
    25
100
AcDbCircle
 10
33.528
 20
10.033
 30
0.0
 40
0.8496300000003437
100
AcDbArc
 50
33.9629031669
 51
326.0370968331
  0
ARC
  5
517
330
1F
100
AcDbEntity
  8
0
  6
Continuous
 62
     7
370
    25
100
AcDbCircle
 10
36.22675
 20
10.033
 30
0.0
 40
2.049780000000581
100
AcDbArc
 50
193.3890436192
 51
305.5107025862
  0
ARC
  5
518
330
1F
100
AcDbEntity
  8
0
  6
Continuous
 62
     7
370
    25
100
AcDbCircle
 10
38.608
 20
10.033
 30
0.0
 40
2.049779999999274
100
AcDbArc
 50
234.4892974137
 51
346.6109563809
  0
ARC
  5
519
330
1F
100
AcDbEntity
  8
0
  6
Continuous
 62
     7
370
    25
100
AcDbCircle
 10
41.30675
 20
10.033
 30
0.0
 40
0.8496300000002577
100
AcDbArc
 50
213.9629031668
 51
146.0370968331
  0
ARC
  5
51A
330
1F
100
AcDbEntity
  8
0
  6
Continuous
 62
     7
370
    25
100
AcDbCircle
 10
95.4405
 20
10.033
 30
0.0
 40
0.8496300000000178
100
AcDbArc
 50
257.1597809442
 51
102.8402190558
  0
ARC
  5
51B
330
1F
100
AcDbEntity
  8
0
  6
Continuous
 62
     7
370
    25
100
AcDbCircle
 10
93.37675
 20
10.033
 30
0.0
 40
2.049780000000364
100
AcDbArc
 50
23.8368099763
 51
336.1631900237
  0
ARC
  5
51C
330
1F
100
AcDbEntity
  8
0
  6
Continuous
 62
     7
370
    25
100
AcDbCircle
 10
88.93175
 20
10.033
 30
0.0
 40
0.8496300000001512
100
AcDbArc
 50
248.0565016972
 51
111.9434983028
  0
ARC
  5
51D
330
1F
100
AcDbEntity
  8
0
  6
Continuous
 62
     7
370
    25
100
AcDbCircle
 10
88.29675
 20
10.033
 30
0.0
 40
0.8496300000001088
100
AcDbArc
 50
68.0565016972
 51
291.9434983028
  0
ARC
  5
51E
330
1F
100
AcDbEntity
  8
0
  6
Continuous
 62
     7
370
    25
100
AcDbCircle
 10
100.5205
 20
10.033
 30
0.0
 40
2.049779999999828
100
AcDbArc
 50
203.8368099763
 51
156.1631900237
  0
ARC
  5
51F
330
1F
100
AcDbEntity
  8
0
  6
Continuous
 62
     7
370
    25
100
AcDbCircle
 10
98.45675
 20
10.033
 30
0.0
 40
0.8496300000002018
100
AcDbArc
 50
77.1597809442
 51
282.8402190558
  0
ARC
  5
520
330
1F
100
AcDbEntity
  8
0
  6
Continuous
 62
     7
370
    25
100
AcDbCircle
 10
57.3405
 20
10.033
 30
0.0
 40
0.8496300000003378
100
AcDbArc
 50
33.9629031669
 51
326.0370968331
  0
ARC
  5
521
330
1F
100
AcDbEntity
  8
0
  6
Continuous
 62
     7
370
    25
100
AcDbCircle
 10
60.03925
 20
10.033
 30
0.0
 40
2.049780000000584
100
AcDbArc
 50
193.3890436192
 51
305.5107025862
  0
ARC
  5
522
330
1F
100
AcDbEntity
  8
0
  6
Continuous
 62
     7
370
    25
100
AcDbCircle
 10
62.4205
 20
10.033
 30
0.0
 40
2.049779999999294
100
AcDbArc
 50
234.4892974137
 51
346.6109563809
  0
ARC
  5
523
330
1F
100
AcDbEntity
  8
0
  6
Continuous
 62
     7
370
    25
100
AcDbCircle
 10
65.11925
 20
10.033
 30
0.0
 40
0.8496300000002784
100
AcDbArc
 50
213.9629031668
 51
146.0370968331
  0
ARC
  5
524
330
1F
100
AcDbEntity
  8
0
  6
Continuous
 62
     7
370
    25
100
AcDbCircle
 10
62.4205
 20
10.033
 30
0.0
 40
2.049780000000579
100
AcDbArc
 50
13.3890436192
 51
125.5107025862
  0
ARC
  5
525
330
1F
100
AcDbEntity
  8
0
  6
Continuous
 62
     7
370
    25
100
AcDbCircle
 10
60.03925
 20
10.033
 30
0.0
 40
2.049779999999295
100
AcDbArc
 50
54.4892974137
 51
166.6109563809
  0
ARC
  5
526
330
1F
100
AcDbEntity
  8
0
  6
Continuous
 62
     7
370
    25
100
AcDbCircle
 10
61.1505
 20
4.953
 30
0.0
 40
0.5000000000001573
100
AcDbArc
 50
80.8656507957
 51
279.1343492043
  0
ARC
  5
527
330
1F
100
AcDbEntity
  8
0
  6
Continuous
 62
     7
370
    25
100
AcDbCircle
 10
61.30925
 20
4.953
 30
0.0
 40
0.500000000000281
100
AcDbArc
 50
260.8656507957
 51
99.1343492042
  0
ARC
  5
528
330
1F
100
AcDbEntity
  8
0
  6
Continuous
 62
     7
370
    25
100
AcDbCircle
 10
37.338
 20
4.953
 30
0.0
 40
0.5000000000001573
100
AcDbArc
 50
80.8656507957
 51
279.1343492043
  0
ARC
  5
529
330
1F
100
AcDbEntity
  8
0
  6
Continuous
 62
     7
370
    25
100
AcDbCircle
 10
37.49675
 20
4.953
 30
0.0
 40
0.5000000000002559
100
AcDbArc
 50
260.8656507957
 51
99.1343492042
  0
ARC
  5
52A
330
1F
100
AcDbEntity
  8
0
  6
Continuous
 62
     7
370
    25
100
AcDbCircle
 10
210.3755
 20
29.083
 30
0.0
 40
0.8496300000027706
100
AcDbArc
 50
77.1597809446
 51
282.8402190554
  0
ARC
  5
52B
330
1F
100
AcDbEntity
  8
0
  6
Continuous
 62
     7
370
    25
100
AcDbCircle
 10
212.43925
 20
29.083
 30
0.0
 40
2.049780000004358
100
AcDbArc
 50
203.8368099762
 51
156.1631900235
  0
ARC
  5
52C
330
1F
100
AcDbEntity
  8
0
  6
Continuous
 62
     7
370
    25
100
AcDbCircle
 10
224.3455
 20
29.083
 30
0.0
 40
2.049779999996177
100
AcDbArc
 50
23.8368099764
 51
336.1631900236
  0
ARC
  5
52D
330
1F
100
AcDbEntity
  8
0
  6
Continuous
 62
     7
370
    25
100
AcDbCircle
 10
226.40925
 20
29.083
 30
0.0
 40
0.8496300000031746
100
AcDbArc
 50
257.1597809438
 51
102.8402190558
  0
ARC
  5
52E
330
1F
100
AcDbEntity
  8
0
  6
Continuous
 62
     7
370
    25
100
AcDbCircle
 10
231.48925
 20
29.083
 30
0.0
 40
2.04978000000276
100
AcDbArc
 50
23.8368099765
 51
156.1631900236
  0
ARC
  5
52F
330
1F
100
AcDbEntity
  8
0
  6
Continuous
 62
     7
370
    25
100
AcDbCircle
 10
229.4255
 20
29.083
 30
0.0
 40
0.8496299999949734
100
AcDbArc
 50
77.1597809445
 51
282.8402190555
  0
ARC
  5
530
330
1F
100
AcDbEntity
  8
0
  6
Continuous
 62
     7
370
    25
100
AcDbCircle
 10
231.48925
 20
29.083
 30
0.0
 40
2.049779999996377
100
AcDbArc
 50
203.836809976
 51
336.1631900239
  0
ARC
  5
531
330
1F
100
AcDbEntity
  8
0
  6
Continuous
 62
     7
370
    25
100
AcDbCircle
 10
233.553
 20
29.083
 30
0.0
 40
0.8496300000016671
100
AcDbArc
 50
257.1597809438
 51
102.840219056
  0
ARC
  5
532
330
1F
100
AcDbEntity
  8
0
  6
Continuous
 62
     7
370
    25
100
AcDbCircle
 10
255.61925
 20
29.083
 30
0.0
 40
0.8496300000127693
100
AcDbArc
 50
77.1597809441
 51
282.8402190559
  0
ARC
  5
533
330
1F
100
AcDbEntity
  8
0
  6
Continuous
 62
     7
370
    25
100
AcDbCircle
 10
257.683
 20
29.083
 30
0.0
 40
2.049780000000513
100
AcDbArc
 50
203.8368099766
 51
156.1631900233
  0
ARC
  5
534
330
1F
100
AcDbEntity
  8
0
  6
Continuous
 62
     7
370
    25
100
AcDbCircle
 10
252.9205
 20
48.133
 30
0.0
 40
2.049779999999161
100
AcDbArc
 50
76.5796187554
 51
62.3082908061
  0
ARC
  5
535
330
1F
100
AcDbEntity
  8
0
  6
Continuous
 62
     7
370
    25
100
AcDbCircle
 10
253.873
 20
50.673
 30
0.0
 40
0.7250000000016956
100
AcDbArc
 50
270.0048448189
 51
228.8830647407
  0
ARC
  5
536
330
1F
100
AcDbEntity
  8
0
  6
Continuous
 62
     7
370
    25
100
AcDbCircle
 10
262.263
 20
67.1555
 30
0.0
 40
1.250000000016972
100
AcDbArc
 50
32.4807172399
 51
89.9999999993
  0
ARC
  5
537
330
1F
100
AcDbEntity
  8
0
  6
Continuous
 62
     7
370
    25
100
AcDbCircle
 10
259.763
 20
67.1555
 30
0.0
 40
1.250000000022897
100
AcDbArc
 50
90.0000000001
 51
108.1837621893
  0
ARC
  5
538
330
1F
100
AcDbEntity
  8
0
  6
Continuous
 62
     7
370
    25
100
AcDbCircle
 10
257.683
 20
67.183
 30
0.0
 40
2.049779999998801
100
AcDbArc
 50
34.4683776206
 51
324.0166780139
  0
ARC
  5
539
330
1F
100
AcDbEntity
  8
0
  6
Continuous
 62
     7
370
    25
100
AcDbCircle
 10
259.763
 20
67.1554999999
 30
0.0
 40
1.24999999989037
100
AcDbArc
 50
250.3012934444
 51
270.0000000012
  0
ARC
  5
53A
330
1F
100
AcDbEntity
  8
0
  6
Continuous
 62
     7
370
    25
100
AcDbCircle
 10
262.263
 20
67.1555
 30
0.0
 40
1.249999999984709
100
AcDbArc
 50
269.9999999998
 51
333.8154749601
  0
ARC
  5
53B
330
1F
100
AcDbEntity
  8
0
  6
Continuous
 62
     7
370
    25
100
AcDbCircle
 10
262.763
 20
67.183
 30
0.0
 40
0.8496300000253877
100
AcDbArc
 50
317.0338211218
 51
49.2623710788
  0
ARC
  5
53C
330
1F
100
AcDbEntity
  8
0
  6
Continuous
 62
     7
370
    25
100
AcDbCircle
 10
236.2517499998
 20
52.578
 30
0.0
 40
0.8496300002361505
100
AcDbArc
 50
131.794782277
 51
20.1327307828
  0
ARC
  5
53D
330
1F
100
AcDbEntity
  8
0
  6
Continuous
 62
     7
370
    25
100
AcDbCircle
 10
236.4105
 20
53.213
 30
0.0
 40
0.7250000000755709
100
AcDbArc
 50
331.8034650337
 51
180.1240480311
  0
ARC
  5
53E
330
1F
100
AcDbEntity
  8
0
  6
Continuous
 62
     7
370
    25
100
AcDbCircle
 10
238.633
 20
55.118
 30
0.0
 40
1.500000000003982
100
AcDbArc
 50
146.3200805617
 51
119.9846989063
  0
ARC
  5
53F
330
1F
100
AcDbEntity
  8
0
  6
Continuous
 62
     7
370
    25
100
AcDbCircle
 10
236.25175
 20
57.658
 30
0.0
 40
2.049780000037554
100
AcDbArc
 50
322.7485202459
 51
303.556259222
  0
ARC
  5
540
330
1F
100
AcDbEntity
  8
0
  6
Continuous
 62
     7
370
    25
100
AcDbCircle
 10
236.25175
 20
62.738
 30
0.0
 40
0.8496300000002133
100
AcDbArc
 50
223.7752876451
 51
195.7144749485
  0
ARC
  5
541
330
1F
100
AcDbEntity
  8
0
  6
Continuous
 62
     7
370
    25
100
AcDbCircle
 10
235.1405000019
 20
62.1030000001
 30
0.0
 40
0.4999999999986924
100
AcDbArc
 50
54.0730971187
 51
5.41666549
  0
ARC
  5
542
330
1F
100
AcDbEntity
  8
0
  6
Continuous
 62
     7
370
    25
100
AcDbCircle
 10
267.36675
 20
45.75175
 30
0.0
 40
1.499999999994121
100
AcDbArc
 50
150.015301093
 51
123.6799194396
  0
ARC
  5
543
330
1F
100
AcDbEntity
  8
0
  6
Continuous
 62
     7
370
    25
100
AcDbCircle
 10
274.35175
 20
57.658
 30
0.0
 40
2.049780000000354
100
AcDbArc
 50
322.7485202458
 51
303.5562592221
  0
ARC
  5
544
330
1F
100
AcDbEntity
  8
0
  6
Continuous
 62
     7
370
    25
100
AcDbCircle
 10
276.733
 20
55.118
 30
0.0
 40
1.500000000001382
100
AcDbArc
 50
146.320080562
 51
119.984698906
  0
ARC
  5
545
330
1F
100
AcDbEntity
  8
0
  6
Continuous
 62
     7
370
    25
100
AcDbCircle
 10
282.60675
 20
45.75175
 30
0.0
 40
1.999999999998965
100
AcDbArc
 50
125.8782987605
 51
90.991598886
  0
ARC
  5
546
330
1F
100
AcDbEntity
  8
0
  6
Continuous
 62
     7
370
    25
100
AcDbCircle
 10
281.813
 20
48.133
 30
0.0
 40
0.8496300000347156
100
AcDbArc
 50
333.3155026317
 51
243.5543950139
  0
ARC
  5
547
330
1F
100
AcDbEntity
  8
0
  6
Continuous
 62
     7
370
    25
100
AcDbCircle
 10
127.903
 20
48.1055
 30
0.0
 40
1.250000000000007
100
AcDbArc
 50
90.0
 51
270.0
  0
ARC
  5
548
330
1F
100
AcDbEntity
  8
0
  6
Continuous
 62
     7
370
    25
100
AcDbCircle
 10
130.403
 20
48.1055
 30
0.0
 40
1.250000000000014
100
AcDbArc
 50
270.0
 51
90.0
  0
ARC
  5
549
330
1F
100
AcDbEntity
  8
0
  6
Continuous
 62
     7
370
    25
100
AcDbCircle
 10
248.803
 20
2.151
 30
0.0
 40
0.4000000000249331
100
AcDbArc
 50
332.5982881187
 51
359.9999999988
  0
ARC
  5
54A
330
1F
100
AcDbEntity
  8
0
  6
Continuous
 62
     7
370
    25
100
AcDbCircle
 10
248.803
 20
10.351
 30
0.0
 40
0.4000000000000057
100
AcDbArc
 50
360.0
 51
180.0
  0
ARC
  5
54B
330
1F
100
AcDbEntity
  8
0
  6
Continuous
 62
     7
370
    25
100
AcDbCircle
 10
238.135
 20
6.773
 30
0.0
 40
0.4000000000000057
100
AcDbArc
 50
0.0
 51
180.0
  0
ARC
  5
54C
330
1F
100
AcDbEntity
  8
0
  6
Continuous
 62
     7
370
    25
100
AcDbCircle
 10
237.363
 20
4.953
 30
0.0
 40
0.4999999999999605
100
AcDbArc
 50
41.9267217383
 51
318.0732782617
  0
ARC
  5
54D
330
1F
100
AcDbEntity
  8
0
  6
Continuous
 62
     7
370
    25
100
AcDbCircle
 10
238.1350000007
 20
2.173
 30
0.0
 40
0.4000000007297905
100
AcDbArc
 50
180.0000000053
 51
189.9303104394
  0
ARC
  5
54E
330
1F
100
AcDbEntity
  8
0
  6
Continuous
 62
     7
370
    25
100
AcDbCircle
 10
236.026
 20
3.133
 30
0.0
 40
1.99999999998109
100
AcDbArc
 50
269.9999999998
 51
329.0366251463
  0
ARC
  5
54F
330
1F
100
AcDbEntity
  8
0
  6
Continuous
 62
     7
370
    25
100
AcDbCircle
 10
3.133
 20
3.133
 30
0.0
 40
2.000000000000009
100
AcDbArc
 50
180.0
 51
270.0
  0
ARC
  5
550
330
1F
100
AcDbEntity
  8
0
  6
Continuous
 62
     7
370
    25
100
AcDbCircle
 10
3.133
 20
93.133
 30
0.0
 40
2.000000000000014
100
AcDbArc
 50
90.0
 51
180.0
  0
ARC
  5
551
330
1F
100
AcDbEntity
  8
0
  6
Continuous
 62
     7
370
    25
100
AcDbCircle
 10
302.683
 20
93.133
 30
0.0
 40
2.0
100
AcDbArc
 50
0.0
 51
90.0
  0
ARC
  5
552
330
1F
100
AcDbEntity
  8
0
  6
Continuous
 62
     7
370
    25
100
AcDbCircle
 10
250.783
 20
3.133
 30
0.0
 40
1.99999999999422
100
AcDbArc
 50
215.6650164478
 51
270.0000000001
  0
ARC
  5
553
330
1F
100
AcDbEntity
  8
0
  6
Continuous
 62
     7
370
    25
100
AcDbCircle
 10
302.683
 20
3.133
 30
0.0
 40
2.000000000000057
100
AcDbArc
 50
270.0
 51
360.0
  0
ARC
  5
554
330
1F
100
AcDbEntity
  8
0
  6
Continuous
 62
     7
370
    25
100
AcDbCircle
 10
12.41425
 20
48.133
 30
0.0
 40
2.04978000000162
100
AcDbArc
 50
76.579618755
 51
62.3082908058
  0
ARC
  5
555
330
1F
100
AcDbEntity
  8
0
  6
Continuous
 62
     7
370
    25
100
AcDbCircle
 10
13.36675
 20
50.673
 30
0.0
 40
0.725000000000138
100
AcDbArc
 50
270.0048448193
 51
228.8830647415
  0
ARC
  5
556
330
1F
100
AcDbEntity
  8
0
  6
Continuous
 62
     7
370
    25
100
AcDbCircle
 10
16.85925
 20
29.083
 30
0.0
 40
0.8496300000001147
100
AcDbArc
 50
68.0565016972
 51
291.9434983028
  0
ARC
  5
557
330
1F
100
AcDbEntity
  8
0
  6
Continuous
 62
     7
370
    25
100
AcDbCircle
 10
17.49425
 20
29.083
 30
0.0
 40
0.8496300000001598
100
AcDbArc
 50
248.0565016972
 51
111.9434983028
  0
ARC
  5
558
330
1F
100
AcDbEntity
  8
0
  6
Continuous
 62
     7
370
    25
100
AcDbCircle
 10
9.7155
 20
10.033
 30
0.0
 40
0.8496300000003416
100
AcDbArc
 50
33.9629031669
 51
326.0370968331
  0
ARC
  5
559
330
1F
100
AcDbEntity
  8
0
  6
Continuous
 62
     7
370
    25
100
AcDbCircle
 10
12.41425
 20
10.033
 30
0.0
 40
2.049780000000582
100
AcDbArc
 50
193.3890436192
 51
305.5107025862
  0
ARC
  5
55A
330
1F
100
AcDbEntity
  8
0
  6
Continuous
 62
     7
370
    25
100
AcDbCircle
 10
12.41425
 20
10.033
 30
0.0
 40
2.04977999999929
100
AcDbArc
 50
54.4892974137
 51
166.6109563809
  0
ARC
  5
55B
330
1F
100
AcDbEntity
  8
0
  6
Continuous
 62
     7
370
    25
100
AcDbCircle
 10
14.7955
 20
10.033
 30
0.0
 40
2.049779999999307
100
AcDbArc
 50
234.4892974137
 51
346.6109563809
  0
ARC
  5
55C
330
1F
100
AcDbEntity
  8
0
  6
Continuous
 62
     7
370
    25
100
AcDbCircle
 10
14.7955
 20
10.033
 30
0.0
 40
2.049780000000596
100
AcDbArc
 50
13.3890436192
 51
125.5107025862
  0
ARC
  5
55D
330
1F
100
AcDbEntity
  8
0
  6
Continuous
 62
     7
370
    25
100
AcDbCircle
 10
17.49425
 20
10.033
 30
0.0
 40
0.8496300000002636
100
AcDbArc
 50
213.9629031668
 51
146.0370968331
  0
ARC
  5
55E
330
1F
100
AcDbEntity
  8
0
  6
Continuous
 62
     7
370
    25
100
AcDbCircle
 10
205.2955
 20
29.083
 30
0.0
 40
2.049779999996153
100
AcDbArc
 50
23.8368099764
 51
336.1631900236
  0
ARC
  5
55F
330
1F
100
AcDbEntity
  8
0
  6
Continuous
 62
     7
370
    25
100
AcDbCircle
 10
207.35925
 20
29.083
 30
0.0
 40
0.8496300000031497
100
AcDbArc
 50
257.1597809438
 51
102.8402190558
  0
ARC
  5
560
330
1F
100
AcDbEntity
  8
0
  6
Continuous
 62
     7
370
    25
100
AcDbCircle
 10
236.56925
 20
29.083
 30
0.0
 40
0.849630000002758
100
AcDbArc
 50
77.1597809446
 51
282.8402190554
  0
ARC
  5
561
330
1F
100
AcDbEntity
  8
0
  6
Continuous
 62
     7
370
    25
100
AcDbCircle
 10
238.633
 20
29.083
 30
0.0
 40
2.049780000004376
100
AcDbArc
 50
203.8368099762
 51
156.1631900235
  0
ARC
  5
562
330
1F
100
AcDbEntity
  8
0
  6
Continuous
 62
     7
370
    25
100
AcDbCircle
 10
228.7905
 20
48.133
 30
0.0
 40
0.8496300000014787
100
AcDbArc
 50
257.159780944
 51
102.8402190565
  0
ARC
  5
563
330
1F
100
AcDbEntity
  8
0
  6
Continuous
 62
     7
370
    25
100
AcDbCircle
 10
226.72675
 20
48.133
 30
0.0
 40
2.049779999994207
100
AcDbArc
 50
23.8368099762
 51
336.1631900238
  0
ARC
  5
564
330
1F
100
AcDbEntity
  8
0
  6
Continuous
 62
     7
370
    25
100
AcDbCircle
 10
229.108
 20
67.183
 30
0.0
 40
2.049779999996789
100
AcDbArc
 50
76.5796187551
 51
62.3082908061
  0
ARC
  5
565
330
1F
100
AcDbEntity
  8
0
  6
Continuous
 62
     7
370
    25
100
AcDbCircle
 10
230.0605
 20
69.723
 30
0.0
 40
0.7250000000009663
100
AcDbArc
 50
270.0048448189
 51
228.8830647416
  0
ARC
  5
566
330
1F
100
AcDbEntity
  8
0
  6
Continuous
 62
     7
370
    25
100
AcDbCircle
 10
264.82675
 20
48.133
 30
0.0
 40
2.049780000033813
100
AcDbArc
 50
326.4437407772
 51
156.1631900238
  0
ARC
  5
567
330
1F
100
AcDbEntity
  8
0
  6
Continuous
 62
     7
370
    25
100
AcDbCircle
 10
264.82675
 20
48.133
 30
0.0
 40
2.049780000002212
100
AcDbArc
 50
203.8368099764
 51
307.2514797548
  0
ARC
  5
568
330
1F
100
AcDbEntity
  8
0
  6
Continuous
 62
     7
370
    25
100
AcDbCircle
 10
262.763
 20
48.133
 30
0.0
 40
0.849629999999109
100
AcDbArc
 50
77.1597809439
 51
282.8402190561
  0
ARC
  5
569
330
1F
100
AcDbEntity
  8
0
  6
Continuous
 62
     7
370
    25
100
AcDbCircle
 10
259.74675
 20
48.133
 30
0.0
 40
0.8496300000014787
100
AcDbArc
 50
257.159780944
 51
102.8402190565
  0
ARC
  5
56A
330
1F
100
AcDbEntity
  8
0
  6
Continuous
 62
     7
370
    25
100
AcDbCircle
 10
257.683
 20
48.133
 30
0.0
 40
2.049779999994182
100
AcDbArc
 50
23.8368099762
 51
336.1631900238
  0
ARC
  5
56B
330
1F
100
AcDbEntity
  8
0
  6
Continuous
 62
     7
370
    25
100
AcDbCircle
 10
272.923
 20
69.723
 30
0.0
 40
0.725000000007084
100
AcDbArc
 50
270.0048448204
 51
228.8830647374
  0
ARC
  5
56C
330
1F
100
AcDbEntity
  8
0
  6
Continuous
 62
     7
370
    25
100
AcDbCircle
 10
271.9705
 20
67.183
 30
0.0
 40
2.04977999999867
100
AcDbArc
 50
76.5796187565
 51
62.3082908048
  0
ARC
  5
56D
330
1F
100
AcDbEntity
  8
0
  6
Continuous
 62
     7
370
    25
100
AcDbCircle
 10
273.2405000026
 20
62.1030000001
 30
0.0
 40
0.4999999999992715
100
AcDbArc
 50
54.0730971201
 51
5.416665494
  0
ARC
  5
56E
330
1F
100
AcDbEntity
  8
0
  6
Continuous
 62
     7
370
    25
100
AcDbCircle
 10
274.3517499999
 20
62.738
 30
0.0
 40
0.8496300001056579
100
AcDbArc
 50
344.2855250525
 51
195.7144749476
  0
ARC
  5
56F
330
1F
100
AcDbEntity
  8
0
  6
Continuous
 62
     7
370
    25
100
AcDbCircle
 10
274.35175
 20
62.738
 30
0.0
 40
0.8496299999970108
100
AcDbArc
 50
223.7752876454
 51
316.2247123546
  0
ARC
  5
570
330
1F
100
AcDbEntity
  8
0
  6
Continuous
 62
     7
370
    25
100
AcDbCircle
 10
275.463
 20
62.103
 30
0.0
 40
0.5000000000052489
100
AcDbArc
 50
174.5833345257
 51
125.9269028802
  0
ARC
  5
571
330
1F
100
AcDbEntity
  8
0
  6
Continuous
 62
     7
370
    25
100
AcDbCircle
 10
281.178
 20
86.233
 30
0.0
 40
0.8496300000168985
100
AcDbArc
 50
68.0565016962
 51
291.9434983038
  0
ARC
  5
572
330
1F
100
AcDbEntity
  8
0
  6
Continuous
 62
     7
370
    25
100
AcDbCircle
 10
281.813
 20
86.233
 30
0.0
 40
0.8496300000024808
100
AcDbArc
 50
248.0565016986
 51
111.9434983011
  0
ARC
  5
573
330
1F
100
AcDbEntity
  8
0
  6
Continuous
 62
     7
370
    25
100
AcDbCircle
 10
233.8705
 20
48.133
 30
0.0
 40
2.049780000003318
100
AcDbArc
 50
203.8368099761
 51
156.1631900237
  0
ARC
  5
574
330
1F
100
AcDbEntity
  8
0
  6
Continuous
 62
     7
370
    25
100
AcDbCircle
 10
231.80675
 20
48.133
 30
0.0
 40
0.8496299999988576
100
AcDbArc
 50
77.1597809446
 51
282.8402190554
  0
ARC
  5
575
330
1F
100
AcDbEntity
  8
0
  6
Continuous
 62
     7
370
    25
100
AcDbCircle
 10
250.53925
 20
29.083
 30
0.0
 40
2.049779999996203
100
AcDbArc
 50
23.8368099764
 51
336.1631900236
  0
ARC
  5
576
330
1F
100
AcDbEntity
  8
0
  6
Continuous
 62
     7
370
    25
100
AcDbCircle
 10
252.603
 20
29.083
 30
0.0
 40
0.8496300000031485
100
AcDbArc
 50
257.1597809438
 51
102.8402190558
  0
ARC
  5
577
330
1F
100
AcDbEntity
  8
0
  6
Continuous
 62
     7
370
    25
100
AcDbCircle
 10
252.603
 20
67.183
 30
0.0
 40
0.8496300000168535
100
AcDbArc
 50
68.0565016962
 51
291.9434983038
  0
ARC
  5
578
330
1F
100
AcDbEntity
  8
0
  6
Continuous
 62
     7
370
    25
100
AcDbCircle
 10
253.238
 20
67.183
 30
0.0
 40
0.8496300000025283
100
AcDbArc
 50
248.0565016986
 51
111.9434983011
  0
ARC
  5
579
330
1F
100
AcDbEntity
  8
0
  6
Continuous
 62
     7
370
    25
100
AcDbCircle
 10
224.028
 20
86.233
 30
0.0
 40
0.8496299999936219
100
AcDbArc
 50
68.0565016978
 51
291.9434983022
  0
ARC
  5
57A
330
1F
100
AcDbEntity
  8
0
  6
Continuous
 62
     7
370
    25
100
AcDbCircle
 10
224.663
 20
86.233
 30
0.0
 40
0.8496300000013827
100
AcDbArc
 50
248.0565016965
 51
111.9434983034
  0
ARC
  5
57B
330
1F
100
AcDbEntity
  8
0
  6
Continuous
 62
     7
370
    25
100
AcDbCircle
 10
262.128
 20
86.233
 30
0.0
 40
0.8496300000168561
100
AcDbArc
 50
68.0565016962
 51
291.9434983038
  0
ARC
  5
57C
330
1F
100
AcDbEntity
  8
0
  6
Continuous
 62
     7
370
    25
100
AcDbCircle
 10
262.763
 20
86.233
 30
0.0
 40
0.8496300000025679
100
AcDbArc
 50
248.0565016986
 51
111.9434983011
  0
ARC
  5
57D
330
1F
100
AcDbEntity
  8
0
  6
Continuous
 62
     7
370
    25
100
AcDbCircle
 10
238.1349999989
 20
20.1150000001
 30
0.0
 40
0.3999999988820084
100
AcDbArc
 50
171.7490652554
 51
180.0000000163
  0
ARC
  5
57E
330
1F
100
AcDbEntity
  8
0
  6
Continuous
 62
     7
370
    25
100
AcDbCircle
 10
238.135
 20
13.215
 30
0.0
 40
0.4000000000000057
100
AcDbArc
 50
180.0
 51
0.0
  0
ARC
  5
57F
330
1F
100
AcDbEntity
  8
0
  6
Continuous
 62
     7
370
    25
100
AcDbCircle
 10
238.139
 20
20.183
 30
0.0
 40
0.4000000000091966
100
AcDbArc
 50
90.0000000007
 51
181.5180134096
  0
ARC
  5
580
330
1F
100
AcDbEntity
  8
0
  6
Continuous
 62
     7
370
    25
100
AcDbCircle
 10
242.739
 20
20.183
 30
0.0
 40
0.4000000000000057
100
AcDbArc
 50
270.0
 51
90.0
  0
ARC
  5
581
330
1F
100
AcDbEntity
  8
0
  6
Continuous
 62
     7
370
    25
100
AcDbCircle
 10
267.208
 20
10.033
 30
0.0
 40
2.049779999999357
100
AcDbArc
 50
214.2935431147
 51
323.2456913989
  0
ARC
  5
582
330
1F
100
AcDbEntity
  8
0
  6
Continuous
 62
     7
370
    25
100
AcDbCircle
 10
266.033
 20
10.0155
 30
0.0
 40
1.250000000000861
100
AcDbArc
 50
116.2107562706
 51
245.4958003484
  0
ARC
  5
583
330
1F
100
AcDbEntity
  8
0
  6
Continuous
 62
     7
370
    25
100
AcDbCircle
 10
268.533
 20
10.0155
 30
0.0
 40
1.250000000000001
100
AcDbArc
 50
284.7049462863
 51
73.7816682864
  0
ARC
  5
584
330
1F
100
AcDbEntity
  8
0
  6
Continuous
 62
     7
370
    25
100
AcDbCircle
 10
226.72675
 20
10.033
 30
0.0
 40
2.049779999987604
100
AcDbArc
 50
234.4892974132
 51
346.6109563816
  0
ARC
  5
585
330
1F
100
AcDbEntity
  8
0
  6
Continuous
 62
     7
370
    25
100
AcDbCircle
 10
224.3455
 20
10.033
 30
0.0
 40
2.049779999990013
100
AcDbArc
 50
193.3890436189
 51
305.5107025865
  0
ARC
  5
586
330
1F
100
AcDbEntity
  8
0
  6
Continuous
 62
     7
370
    25
100
AcDbCircle
 10
229.4255
 20
10.033
 30
0.0
 40
0.8496299999999246
100
AcDbArc
 50
213.9629031661
 51
146.0370968339
  0
ARC
  5
587
330
1F
100
AcDbEntity
  8
0
  6
Continuous
 62
     7
370
    25
100
AcDbCircle
 10
221.64675
 20
10.033
 30
0.0
 40
0.8496299999760352
100
AcDbArc
 50
257.1597809432
 51
326.0370968346
  0
ARC
  5
588
330
1F
100
AcDbEntity
  8
0
  6
Continuous
 62
     7
370
    25
100
AcDbCircle
 10
219.583
 20
10.033
 30
0.0
 40
2.049779999998149
100
AcDbArc
 50
76.5796187559
 51
336.1631900236
  0
ARC
  5
589
330
1F
100
AcDbEntity
  8
0
  6
Continuous
 62
     7
370
    25
100
AcDbCircle
 10
226.72675
 20
10.033
 30
0.0
 40
2.049780000008279
100
AcDbArc
 50
13.3890436192
 51
125.510702586
  0
ARC
  5
58A
330
1F
100
AcDbEntity
  8
0
  6
Continuous
 62
     7
370
    25
100
AcDbCircle
 10
220.5355
 20
12.573
 30
0.0
 40
0.7250000000045131
100
AcDbArc
 50
270.0048448196
 51
228.883064739
  0
ARC
  5
58B
330
1F
100
AcDbEntity
  8
0
  6
Continuous
 62
     7
370
    25
100
AcDbCircle
 10
224.3455
 20
10.033
 30
0.0
 40
2.049780000006181
100
AcDbArc
 50
54.4892974142
 51
166.6109563805
  0
ARC
  5
58C
330
1F
100
AcDbEntity
  8
0
  6
Continuous
 62
     7
370
    25
100
AcDbCircle
 10
221.64675
 20
10.033
 30
0.0
 40
0.8496300000254166
100
AcDbArc
 50
33.9629031677
 51
102.8402190545
  0
ARC
  5
58D
330
1F
100
AcDbEntity
  8
0
  6
Continuous
 62
     7
370
    25
100
AcDbCircle
 10
219.583
 20
10.033
 30
0.0
 40
2.049779999999762
100
AcDbArc
 50
23.8368099765
 51
62.3082908053
  0
ARC
  5
58E
330
1F
100
AcDbEntity
  8
0
  6
Continuous
 62
     7
370
    25
100
AcDbCircle
 10
248.785
 20
20.183
 30
0.0
 40
0.3999999999996721
100
AcDbArc
 50
14.7465866904
 51
90.0000000001
  0
ARC
  5
58F
330
1F
100
AcDbEntity
  8
0
  6
Continuous
 62
     7
370
    25
100
AcDbCircle
 10
162.7505
 20
10.033
 30
0.0
 40
0.8496299999988755
100
AcDbArc
 50
77.1597809446
 51
282.8402190554
  0
ARC
  5
590
330
1F
100
AcDbEntity
  8
0
  6
Continuous
 62
     7
370
    25
100
AcDbCircle
 10
164.81425
 20
10.033
 30
0.0
 40
2.04978000000327
100
AcDbArc
 50
203.8368099761
 51
156.1631900237
  0
ARC
  5
591
330
1F
100
AcDbEntity
  8
0
  6
Continuous
 62
     7
370
    25
100
AcDbCircle
 10
160.36925
 20
10.033
 30
0.0
 40
0.8496300000002496
100
AcDbArc
 50
248.0565016973
 51
111.9434983029
  0
ARC
  5
592
330
1F
100
AcDbEntity
  8
0
  6
Continuous
 62
     7
370
    25
100
AcDbCircle
 10
159.73425
 20
10.033
 30
0.0
 40
0.8496299999759663
100
AcDbArc
 50
257.1597809436
 51
291.9434983035
  0
ARC
  5
593
330
1F
100
AcDbEntity
  8
0
  6
Continuous
 62
     7
370
    25
100
AcDbCircle
 10
159.73425
 20
10.033
 30
0.0
 40
0.8496300000244047
100
AcDbArc
 50
68.0565016975
 51
102.8402190554
  0
ARC
  5
594
330
1F
100
AcDbEntity
  8
0
  6
Continuous
 62
     7
370
    25
100
AcDbCircle
 10
157.6705
 20
10.033
 30
0.0
 40
2.049779999993263
100
AcDbArc
 50
234.4892974136
 51
336.1631900239
  0
ARC
  5
595
330
1F
100
AcDbEntity
  8
0
  6
Continuous
 62
     7
370
    25
100
AcDbCircle
 10
157.6705
 20
10.033
 30
0.0
 40
2.049780000002904
100
AcDbArc
 50
23.8368099765
 51
125.510702586
  0
ARC
  5
596
330
1F
100
AcDbEntity
  8
0
  6
Continuous
 62
     7
370
    25
100
AcDbCircle
 10
155.28925
 20
10.033
 30
0.0
 40
2.049779999999406
100
AcDbArc
 50
193.3890436191
 51
305.5107025864
  0
ARC
  5
597
330
1F
100
AcDbEntity
  8
0
  6
Continuous
 62
     7
370
    25
100
AcDbCircle
 10
155.28925
 20
10.033
 30
0.0
 40
2.049780000004592
100
AcDbArc
 50
54.4892974138
 51
166.6109563807
  0
ARC
  5
598
330
1F
100
AcDbEntity
  8
0
  6
Continuous
 62
     7
370
    25
100
AcDbCircle
 10
152.5905
 20
10.033
 30
0.0
 40
0.8496299999976001
100
AcDbArc
 50
33.9629031671
 51
326.0370968329
  0
ARC
  5
599
330
1F
100
AcDbEntity
  8
0
  6
Continuous
 62
     7
370
    25
100
AcDbCircle
 10
248.803
 20
11.93
 30
0.0
 40
0.4000000000000057
100
AcDbArc
 50
180.0
 51
360.0
  0
ARC
  5
59A
330
1F
100
AcDbEntity
  8
0
  6
Continuous
 62
     7
370
    25
100
AcDbCircle
 10
248.803
 20
20.13
 30
0.0
 40
0.4000000000041268
100
AcDbArc
 50
0.0000000001
 51
22.7707140049
  0
ARC
  5
59B
330
1F
100
AcDbEntity
  8
0
  6
Continuous
 62
     7
370
    25
100
AcDbCircle
 10
244.485
 20
20.183
 30
0.0
 40
0.4000000000000057
100
AcDbArc
 50
90.0
 51
270.0
  0
ENDSEC
  0
SECTION
  2
OBJECTS
  0
DICTIONARY
  5
C
330
0
100
AcDbDictionary
281
     1
  3
ACAD_GROUP
350
D
  3
ACAD_LAYOUT
350
1A
  3
ACAD_MLINESTYLE
350
17
  3
ACAD_PLOTSETTINGS
350
19
  3
ACAD_PLOTSTYLENAME
350
E
  3
ACAD_SCALELIST
350
47
  0
DICTIONARY
  5
D
102
{ACAD_REACTORS
330
C
102
}
330
C
100
AcDbDictionary
281
     1
  0
DICTIONARY
  5
1A
102
{ACAD_REACTORS
330
C
102
}
330
C
100
AcDbDictionary
281
     1
  3
Layout1
350
1E
  3
Layout2
350
26
  3
Model
350
22
  0
DICTIONARY
  5
17
102
{ACAD_REACTORS
330
C
102
}
330
C
100
AcDbDictionary
281
     1
  3
Standard
350
18
  0
DICTIONARY
  5
19
102
{ACAD_REACTORS
330
C
102
}
330
C
100
AcDbDictionary
281
     1
  0
ACDBDICTIONARYWDFLT
  5
E
102
{ACAD_REACTORS
330
C
102
}
330
C
100
AcDbDictionary
281
     1
  3
Normal
350
F
100
AcDbDictionaryWithDefault
340
F
  0
DICTIONARY
  5
47
102
{ACAD_REACTORS
330
C
102
}
330
C
100
AcDbDictionary
281
     1
  3
A0
350
48
  3
A1
350
49
  3
A2
350
4A
  3
A3
350
4B
  3
A4
350
4C
  3
A5
350
4D
  3
A6
350
4E
  3
A7
350
4F
  3
A8
350
50
  3
A9
350
51
  3
B0
350
52
  3
B1
350
53
  3
B2
350
54
  3
B3
350
55
  3
B4
350
56
  3
B5
350
57
  3
B6
350
58
  3
B7
350
59
  3
B8
350
5A
  3
B9
350
5B
  3
C0
350
5C
  3
C1
350
5D
  3
C2
350
5E
  3
C3
350
5F
  3
C4
350
60
  3
C5
350
61
  3
C6
350
62
  3
C7
350
63
  3
C8
350
64
  3
C9
350
65
  3
D0
350
66
  3
D1
350
67
  3
D2
350
68
  0
LAYOUT
  5
1E
102
{ACAD_REACTORS
330
1A
102
}
330
1A
100
AcDbPlotSettings
  1

  2
none_device
  4

  6

 40
0.0
 41
0.0
 42
0.0
 43
0.0
 44
0.0
 45
0.0
 46
0.0
 47
0.0
 48
0.0
 49
0.0
140
0.0
141
0.0
142
1.0
143
1.0
 70
   688
 72
     1
 73
     0
 74
     5
  7

 75
    16
147
1.0
148
0.0
149
0.0
100
AcDbLayout
  1
Layout1
 70
     1
 71
     1
 10
0.0
 20
0.0
 11
420.0
 21
297.0
 12
0.0
 22
0.0
 32
0.0
 14
1.0000000000E+20
 24
1.0000000000E+20
 34
1.0000000000E+20
 15
-1.0000000000E+20
 25
-1.0000000000E+20
 35
-1.0000000000E+20
146
0.0
 13
0.0
 23
0.0
 33
0.0
 16
1.0
 26
0.0
 36
0.0
 17
0.0
 27
1.0
 37
0.0
 76
     0
330
1B
  0
LAYOUT
  5
26
102
{ACAD_REACTORS
330
1A
102
}
330
1A
100
AcDbPlotSettings
  1

  2
none_device
  4

  6

 40
0.0
 41
0.0
 42
0.0
 43
0.0
 44
0.0
 45
0.0
 46
0.0
 47
0.0
 48
0.0
 49
0.0
140
0.0
141
0.0
142
1.0
143
1.0
 70
   688
 72
     1
 73
     0
 74
     5
  7

 75
    16
147
1.0
148
0.0
149
0.0
100
AcDbLayout
  1
Layout2
 70
     1
 71
     2
 10
0.0
 20
0.0
 11
0.0
 21
0.0
 12
0.0
 22
0.0
 32
0.0
 14
0.0
 24
0.0
 34
0.0
 15
0.0
 25
0.0
 35
0.0
146
0.0
 13
0.0
 23
0.0
 33
0.0
 16
1.0
 26
0.0
 36
0.0
 17
0.0
 27
1.0
 37
0.0
 76
     0
330
23
  0
LAYOUT
  5
22
102
{ACAD_REACTORS
330
1A
102
}
330
1A
100
AcDbPlotSettings
  1

  2
none_device
  4
ANSI_A_(11.00_x_8.50_Inches)
  6

 40
6.35
 41
19.05
 42
6.35000508
 43
19.05000254
 44
279.4
 45
215.9
 46
-5.9854340933
 47
45.0394268374
 48
0.0
 49
0.0
140
0.0
141
0.0
142
0.0358754736
143
1.0
 70
  1696
 72
     0
 73
     0
 74
     0
  7

 75
     0
147
0.0179189148
148
-1300.4909072572
149
0.0
100
AcDbLayout
  1
Model
 70
     1
 71
     0
 10
0.0
 20
0.0
 11
420.0
 21
297.0
 12
0.0
 22
0.0
 32
0.0
 14
1.133
 24
1.133
 34
0.0
 15
304.683
 25
95.133
 35
0.0
146
0.0
 13
0.0
 23
0.0
 33
0.0
 16
1.0
 26
0.0
 36
0.0
 17
0.0
 27
1.0
 37
0.0
 76
     0
330
1F
331
29
  0
MLINESTYLE
  5
18
102
{ACAD_REACTORS
330
17
102
}
330
17
100
AcDbMlineStyle
  2
Standard
 70
     0
  3

 62
   256
 51
90.0
 52
90.0
 71
     2
 49
0.5
 62
   256
  6
BYLAYER
 49
-0.5
 62
   256
  6
BYLAYER
  0
ACDBPLACEHOLDER
  5
F
102
{ACAD_REACTORS
330
E
102
}
330
E
  0
SCALE
  5
48
102
{ACAD_REACTORS
330
47
102
}
330
47
100
AcDbScale
 70
     0
300
1:1
140
1.0
141
1.0
290
     1
  0
SCALE
  5
49
102
{ACAD_REACTORS
330
47
102
}
330
47
100
AcDbScale
 70
     0
300
1:2
140
1.0
141
2.0
290
     0
  0
SCALE
  5
4A
102
{ACAD_REACTORS
330
47
102
}
330
47
100
AcDbScale
 70
     0
300
1:4
140
1.0
141
4.0
290
     0
  0
SCALE
  5
4B
102
{ACAD_REACTORS
330
47
102
}
330
47
100
AcDbScale
 70
     0
300
1:5
140
1.0
141
5.0
290
     0
  0
SCALE
  5
4C
102
{ACAD_REACTORS
330
47
102
}
330
47
100
AcDbScale
 70
     0
300
1:8
140
1.0
141
8.0
290
     0
  0
SCALE
  5
4D
102
{ACAD_REACTORS
330
47
102
}
330
47
100
AcDbScale
 70
     0
300
1:10
140
1.0
141
10.0
290
     0
  0
SCALE
  5
4E
102
{ACAD_REACTORS
330
47
102
}
330
47
100
AcDbScale
 70
     0
300
1:16
140
1.0
141
16.0
290
     0
  0
SCALE
  5
4F
102
{ACAD_REACTORS
330
47
102
}
330
47
100
AcDbScale
 70
     0
300
1:20
140
1.0
141
20.0
290
     0
  0
SCALE
  5
50
102
{ACAD_REACTORS
330
47
102
}
330
47
100
AcDbScale
 70
     0
300
1:30
140
1.0
141
30.0
290
     0
  0
SCALE
  5
51
102
{ACAD_REACTORS
330
47
102
}
330
47
100
AcDbScale
 70
     0
300
1:40
140
1.0
141
40.0
290
     0
  0
SCALE
  5
52
102
{ACAD_REACTORS
330
47
102
}
330
47
100
AcDbScale
 70
     0
300
1:50
140
1.0
141
50.0
290
     0
  0
SCALE
  5
53
102
{ACAD_REACTORS
330
47
102
}
330
47
100
AcDbScale
 70
     0
300
1:100
140
1.0
141
100.0
290
     0
  0
SCALE
  5
54
102
{ACAD_REACTORS
330
47
102
}
330
47
100
AcDbScale
 70
     0
300
2:1
140
2.0
141
1.0
290
     0
  0
SCALE
  5
55
102
{ACAD_REACTORS
330
47
102
}
330
47
100
AcDbScale
 70
     0
300
4:1
140
4.0
141
1.0
290
     0
  0
SCALE
  5
56
102
{ACAD_REACTORS
330
47
102
}
330
47
100
AcDbScale
 70
     0
300
8:1
140
8.0
141
1.0
290
     0
  0
SCALE
  5
57
102
{ACAD_REACTORS
330
47
102
}
330
47
100
AcDbScale
 70
     0
300
10:1
140
10.0
141
1.0
290
     0
  0
SCALE
  5
58
102
{ACAD_REACTORS
330
47
102
}
330
47
100
AcDbScale
 70
     0
300
100:1
140
100.0
141
1.0
290
     0
  0
SCALE
  5
59
102
{ACAD_REACTORS
330
47
102
}
330
47
100
AcDbScale
 70
     0
300
1/128" = 1'-0"
140
0.0078125
141
12.0
290
     0
  0
SCALE
  5
5A
102
{ACAD_REACTORS
330
47
102
}
330
47
100
AcDbScale
 70
     0
300
1/64" = 1'-0"
140
0.015625
141
12.0
290
     0
  0
SCALE
  5
5B
102
{ACAD_REACTORS
330
47
102
}
330
47
100
AcDbScale
 70
     0
300
1/32" = 1'-0"
140
0.03125
141
12.0
290
     0
  0
SCALE
  5
5C
102
{ACAD_REACTORS
330
47
102
}
330
47
100
AcDbScale
 70
     0
300
1/16" = 1'-0"
140
0.0625
141
12.0
290
     0
  0
SCALE
  5
5D
102
{ACAD_REACTORS
330
47
102
}
330
47
100
AcDbScale
 70
     0
300
3/32" = 1'-0"
140
0.09375
141
12.0
290
     0
  0
SCALE
  5
5E
102
{ACAD_REACTORS
330
47
102
}
330
47
100
AcDbScale
 70
     0
300
1/8" = 1'-0"
140
0.125
141
12.0
290
     0
  0
SCALE
  5
5F
102
{ACAD_REACTORS
330
47
102
}
330
47
100
AcDbScale
 70
     0
300
3/16" = 1'-0"
140
0.1875
141
12.0
290
     0
  0
SCALE
  5
60
102
{ACAD_REACTORS
330
47
102
}
330
47
100
AcDbScale
 70
     0
300
1/4" = 1'-0"
140
0.25
141
12.0
290
     0
  0
SCALE
  5
61
102
{ACAD_REACTORS
330
47
102
}
330
47
100
AcDbScale
 70
     0
300
3/8" = 1'-0"
140
0.375
141
12.0
290
     0
  0
SCALE
  5
62
102
{ACAD_REACTORS
330
47
102
}
330
47
100
AcDbScale
 70
     0
300
1/2" = 1'-0"
140
0.5
141
12.0
290
     0
  0
SCALE
  5
63
102
{ACAD_REACTORS
330
47
102
}
330
47
100
AcDbScale
 70
     0
300
3/4" = 1'-0"
140
0.75
141
12.0
290
     0
  0
SCALE
  5
64
102
{ACAD_REACTORS
330
47
102
}
330
47
100
AcDbScale
 70
     0
300
1" = 1'-0"
140
1.0
141
12.0
290
     0
  0
SCALE
  5
65
102
{ACAD_REACTORS
330
47
102
}
330
47
100
AcDbScale
 70
     0
300
1-1/2" = 1'-0"
140
1.5
141
12.0
290
     0
  0
SCALE
  5
66
102
{ACAD_REACTORS
330
47
102
}
330
47
100
AcDbScale
 70
     0
300
3" = 1'-0"
140
3.0
141
12.0
290
     0
  0
SCALE
  5
67
102
{ACAD_REACTORS
330
47
102
}
330
47
100
AcDbScale
 70
     0
300
6" = 1'-0"
140
6.0
141
12.0
290
     0
  0
SCALE
  5
68
102
{ACAD_REACTORS
330
47
102
}
330
47
100
AcDbScale
 70
     0
300
1'-0" = 1'-0"
140
12.0
141
12.0
290
     0
  0
ENDSEC
  0
EOF
